<svg width="67" height="40" viewBox="0 0 67 40" fill="none" xmlns="http://www.w3.org/2000/svg">
<path d="M18.8626 14.5362C18.8626 15.3598 18.9517 16.0276 19.1075 16.5174C19.2856 17.0071 19.5082 17.5414 19.8198 18.1201C19.9311 18.2982 19.9757 18.4763 19.9757 18.6321C19.9757 18.8547 19.8421 19.0773 19.5527 19.2999L18.1503 20.2349C17.9499 20.3685 17.7496 20.4352 17.5715 20.4352C17.3489 20.4352 17.1263 20.3239 16.9037 20.1236C16.5921 19.7897 16.3249 19.4335 16.1023 19.0773C15.8797 18.6989 15.6571 18.276 15.4122 17.764C13.6759 19.8119 11.4944 20.8359 8.86762 20.8359C6.99773 20.8359 5.50627 20.3017 4.4155 19.2332C3.32473 18.1647 2.76822 16.74 2.76822 14.9591C2.76822 13.067 3.43603 11.531 4.79393 10.3734C6.15183 9.21589 7.95494 8.63712 10.2478 8.63712C11.0046 8.63712 11.7838 8.7039 12.6074 8.8152C13.431 8.92651 14.2769 9.10459 15.1674 9.30494V7.67991C15.1674 5.9881 14.8112 4.80829 14.1211 4.11821C13.4088 3.42813 12.2067 3.09422 10.4926 3.09422C9.71352 3.09422 8.91214 3.18327 8.0885 3.38361C7.26486 3.58396 6.46348 3.82882 5.68435 4.14047C5.32819 4.2963 5.06106 4.38534 4.90523 4.42986C4.74941 4.47438 4.63811 4.49664 4.54906 4.49664C4.23742 4.49664 4.08159 4.27404 4.08159 3.80656V2.71579C4.08159 2.35962 4.12611 2.0925 4.23742 1.93667C4.34872 1.78085 4.54906 1.62502 4.86071 1.4692C5.63983 1.06851 6.57478 0.7346 7.66555 0.467473C8.75632 0.178085 9.91387 0.0445212 11.1382 0.0445212C13.7872 0.0445212 15.7239 0.645557 16.9705 1.84763C18.1948 3.0497 18.8181 4.87507 18.8181 7.32374V14.5362H18.8626ZM9.82483 17.9198C10.5594 17.9198 11.3163 17.7862 12.1177 17.5191C12.9191 17.252 13.6314 16.7622 14.2324 16.0944C14.5886 15.6715 14.8557 15.204 14.9893 14.6697C15.1229 14.1355 15.2119 13.4899 15.2119 12.7331V11.7981C14.5663 11.6423 13.8763 11.5087 13.1639 11.4197C12.4516 11.3307 11.7615 11.2861 11.0714 11.2861C9.57996 11.2861 8.48919 11.5755 7.75459 12.1766C7.01999 12.7776 6.66382 13.6235 6.66382 14.7365C6.66382 15.7828 6.93095 16.5619 7.48746 17.0961C8.02172 17.6527 8.80084 17.9198 9.82483 17.9198ZM27.7001 20.3239C27.2994 20.3239 27.0323 20.2572 26.8542 20.1013C26.6761 19.9678 26.5203 19.6561 26.3867 19.2332L21.1555 2.02572C21.0219 1.5805 20.9551 1.29112 20.9551 1.13529C20.9551 0.779121 21.1332 0.578776 21.4894 0.578776H23.6709C24.0939 0.578776 24.3833 0.645558 24.5391 0.801382C24.7172 0.934946 24.8507 1.24659 24.9843 1.66955L28.7241 16.4061L32.1967 1.66955C32.308 1.22433 32.4416 0.934946 32.6197 0.801382C32.7978 0.667818 33.1094 0.578776 33.5101 0.578776H35.291C35.7139 0.578776 36.0033 0.645558 36.1814 0.801382C36.3595 0.934946 36.5153 1.24659 36.6043 1.66955L40.1215 16.5842L43.9726 1.66955C44.1062 1.22433 44.262 0.934946 44.4178 0.801382C44.5959 0.667818 44.8853 0.578776 45.286 0.578776H47.3562C47.7124 0.578776 47.9127 0.756861 47.9127 1.13529C47.9127 1.24659 47.8905 1.3579 47.8682 1.49146C47.8459 1.62502 47.8014 1.80311 47.7124 2.04798L42.3476 19.2554C42.214 19.7006 42.0582 19.99 41.8801 20.1236C41.702 20.2572 41.4126 20.3462 41.0342 20.3462H39.1198C38.6968 20.3462 38.4074 20.2794 38.2294 20.1236C38.0513 19.9678 37.8955 19.6784 37.8064 19.2332L34.356 4.87507L30.9279 19.2109C30.8166 19.6561 30.683 19.9455 30.5049 20.1013C30.3268 20.2572 30.0152 20.3239 29.6145 20.3239H27.7001ZM56.305 20.925C55.1474 20.925 53.9899 20.7914 52.8768 20.5243C51.7638 20.2572 50.8956 19.9678 50.3169 19.6339C49.9607 19.4335 49.7158 19.2109 49.6268 19.0106C49.5378 18.8102 49.4932 18.5876 49.4932 18.3873V17.252C49.4932 16.7845 49.6713 16.5619 50.0052 16.5619C50.1388 16.5619 50.2724 16.5842 50.4059 16.6287C50.5395 16.6732 50.7398 16.7622 50.9624 16.8513C51.7193 17.1852 52.5429 17.4523 53.4111 17.6304C54.3015 17.8085 55.1697 17.8975 56.0601 17.8975C57.4625 17.8975 58.5533 17.6527 59.3102 17.1629C60.067 16.6732 60.4677 15.9609 60.4677 15.0482C60.4677 14.4249 60.2674 13.9129 59.8667 13.4899C59.466 13.067 58.7091 12.6885 57.6183 12.3324L54.3906 11.3307C52.7655 10.8187 51.5635 10.0618 50.8289 9.06007C50.0943 8.0806 49.7158 6.98983 49.7158 5.83228C49.7158 4.89733 49.9162 4.07369 50.3169 3.36135C50.7176 2.64901 51.2518 2.02572 51.9196 1.53598C52.5874 1.02399 53.3443 0.645558 54.2347 0.37843C55.1252 0.111303 56.0601 0 57.0396 0C57.5293 0 58.0413 0.0222606 58.531 0.0890424C59.043 0.155824 59.5105 0.244867 59.978 0.333909C60.4232 0.445212 60.8461 0.556515 61.2468 0.690079C61.6475 0.823643 61.9592 0.957206 62.1818 1.09077C62.4934 1.26885 62.716 1.44694 62.8496 1.64729C62.9832 1.82537 63.0499 2.07024 63.0499 2.38189V3.42813C63.0499 3.89561 62.8719 4.14047 62.5379 4.14047C62.3599 4.14047 62.0705 4.05143 61.692 3.87335C60.4232 3.29457 58.9985 3.00518 57.418 3.00518C56.1492 3.00518 55.1474 3.20553 54.4573 3.62848C53.7673 4.05143 53.4111 4.69699 53.4111 5.60967C53.4111 6.23297 53.6337 6.76723 54.0789 7.19018C54.5241 7.61313 55.3478 8.03608 56.5276 8.41451L59.6886 9.41624C61.2913 9.92823 62.4489 10.6406 63.139 11.5533C63.8291 12.4659 64.163 13.5122 64.163 14.6697C64.163 15.6269 63.9626 16.4951 63.5842 17.252C63.1835 18.0088 62.6492 18.6767 61.9592 19.2109C61.2691 19.7674 60.4454 20.1681 59.4882 20.4575C58.4865 20.7691 57.4403 20.925 56.305 20.925Z" fill="white"/>
<path fill-rule="evenodd" clip-rule="evenodd" d="M60.5115 31.7185C53.1877 37.1278 42.5471 39.9994 33.398 39.9994C20.5759 39.9994 9.02267 35.2579 0.296515 27.3777C-0.393564 26.7544 0.229733 25.9085 1.05338 26.3982C10.4919 31.8743 22.1342 35.1912 34.1772 35.1912C42.3023 35.1912 51.2288 33.4994 59.443 30.0267C60.6673 29.4702 61.7135 30.8281 60.5115 31.7185Z" fill="white"/>
<path fill-rule="evenodd" clip-rule="evenodd" d="M63.5612 28.2453C62.6262 27.0432 57.3727 27.6665 54.9908 27.9559C54.2785 28.045 54.1672 27.4217 54.8127 26.9542C58.9977 24.0158 65.8763 24.8617 66.6777 25.8412C67.479 26.8429 66.455 33.7214 62.5372 37.016C61.9361 37.528 61.3574 37.2609 61.6245 36.593C62.5149 34.3892 64.4961 29.4251 63.5612 28.2453Z" fill="white"/>
</svg>
