<svg width="140" height="40" viewBox="0 0 140 40" fill="none" xmlns="http://www.w3.org/2000/svg">
<g clip-path="url(#clip0_125_1815)">
<path d="M24.8223 37.8639C31.4571 36.6918 36.9371 35.7219 37 35.7086L37.1145 35.6843L30.8505 28.2335C27.4054 24.1356 24.5866 20.7669 24.5866 20.7474C24.5866 20.7107 31.0546 2.89903 31.091 2.83566C31.1032 2.81448 35.5049 10.4139 41.761 21.2572C47.6182 31.4089 52.4471 39.779 52.492 39.8574L52.5736 40L32.6662 39.9974L12.7589 39.9949L24.8223 37.8639ZM101.165 36.0619C98.1343 35.8676 96.3719 34.1421 95.9049 30.9123C95.7806 30.0532 95.7802 30.0309 95.7675 24.4531L95.7552 19.0548H97.0963H98.4374L98.448 24.2764C98.4575 28.9824 98.4635 29.5342 98.5085 29.8653C98.6911 31.2088 99.0546 32.1124 99.6735 32.7609C100.169 33.2799 100.749 33.5838 101.551 33.7451C101.93 33.8212 103.007 33.8213 103.352 33.7454C104.166 33.5663 104.818 33.2122 105.394 32.6371C106.05 31.9815 106.535 31.0515 106.769 29.9998L106.849 29.6453L106.857 24.3796L106.866 19.1138H108.235H109.605V27.3917V35.6696H108.249H106.894V34.3563C106.894 33.4639 106.885 33.0462 106.864 33.0531C106.847 33.0587 106.778 33.1651 106.709 33.2897C106.242 34.1413 105.464 34.9201 104.612 35.3893C103.59 35.9518 102.565 36.1517 101.165 36.0619ZM131.922 36.0485C130.853 35.9681 129.726 35.6004 128.806 35.0309C126.865 33.8307 125.717 31.8523 125.381 29.1297C125.265 28.1876 125.251 26.9221 125.348 26.1215C125.565 24.3328 126.268 22.5768 127.269 21.3231C127.525 21.0018 128.107 20.4197 128.429 20.1631C129.297 19.4702 130.312 18.9857 131.389 18.7499C132.017 18.6126 133.123 18.5481 133.79 18.6099C135.466 18.7652 137.002 19.5543 138.046 20.7963C139.107 22.0581 139.69 23.8212 139.764 25.9924C139.776 26.3326 139.779 26.9291 139.771 27.318L139.756 28.025L133.886 28.0324L128.016 28.0399V28.3018C128.016 29.0992 128.21 30.0074 128.545 30.7801C128.834 31.4465 129.332 32.1741 129.739 32.5262C130.574 33.2482 131.596 33.6803 132.715 33.7843C133.13 33.8229 134.187 33.7823 134.659 33.7097C136.008 33.5025 137.29 32.9736 138.325 32.1974C138.447 32.1061 138.563 32.0208 138.584 32.0078C138.614 31.9889 138.621 32.2275 138.621 33.2304L138.62 34.4765L138.342 34.648C137.171 35.3723 135.829 35.8374 134.409 36.0115C133.985 36.0635 132.429 36.0867 131.922 36.0485ZM137.031 25.5389C137.031 24.2032 136.468 22.7194 135.671 21.9554C135.103 21.4102 134.416 21.0769 133.599 20.9504C133.212 20.8905 132.398 20.9136 131.99 20.9959C131.129 21.17 130.416 21.5487 129.795 22.1627C129.141 22.809 128.651 23.5939 128.342 24.4882C128.231 24.8098 128.102 25.3378 128.061 25.6315L128.042 25.7714H132.536H137.031V25.5389ZM57.4098 35.6327C57.4167 35.6125 59.4099 30.3762 61.8392 23.9966L66.256 12.3973L67.6751 12.3973L69.0943 12.3972L69.2121 12.6991C69.5719 13.6219 78.0542 35.6444 78.0542 35.6559C78.0542 35.6634 77.3748 35.6695 76.5445 35.6693L75.0347 35.669L73.8122 32.4141L72.5896 29.1592L67.6671 29.1592L62.7446 29.1591L62.7018 29.2696C62.6783 29.3303 62.156 30.7949 61.5411 32.5242L60.4232 35.6685L58.9103 35.669C57.7127 35.6694 57.3999 35.6619 57.4098 35.6327ZM71.6911 26.6753C71.6911 26.6701 70.8684 24.4397 69.8629 21.7188C67.9817 16.6285 67.8764 16.3223 67.7278 15.505C67.6581 15.1218 67.6228 15.1112 67.5815 15.4609C67.5519 15.7108 67.4237 16.2701 67.3248 16.5803C67.2758 16.7342 66.4286 19.0593 65.4423 21.7472C64.4559 24.4351 63.6489 26.6456 63.6489 26.6594C63.6489 26.6733 65.4584 26.6846 67.67 26.6846C69.8816 26.6846 71.6911 26.6804 71.6911 26.6753ZM78.9675 35.2456V34.8217L83.8718 28.0798L88.7761 21.3379L84.3358 21.3231L79.8954 21.3084L79.8877 20.1816L79.88 19.0548H86.3023H92.7247V19.4354V19.816L87.8198 26.5947C85.1221 30.323 82.9149 33.3796 82.9149 33.3873C82.9149 33.395 85.0956 33.4012 87.7609 33.4012H92.6069V34.5354V35.6696H85.7872H78.9675V35.2456ZM114.956 35.6499C114.945 35.6391 114.937 31.9008 114.937 27.3426V19.0548H116.277H117.617V20.7634C117.617 21.7032 117.629 22.472 117.643 22.472C117.657 22.472 117.722 22.3182 117.788 22.1302C118.089 21.2687 118.612 20.4637 119.285 19.8239C119.892 19.2475 120.585 18.9029 121.403 18.771C121.633 18.7339 121.827 18.7268 122.287 18.7388C122.864 18.7538 123.165 18.796 123.516 18.9108L123.627 18.9469V20.3382V21.7295L123.31 21.5709C122.751 21.2909 122.199 21.1801 121.535 21.2146C121.104 21.2371 120.82 21.2925 120.475 21.4221C119.765 21.6887 119.188 22.1592 118.786 22.8015C118.203 23.7314 117.787 24.9266 117.665 26.0251C117.643 26.2223 117.63 27.8278 117.624 30.993L117.617 35.6696H116.296C115.57 35.6696 114.967 35.6607 114.956 35.6499ZM0.93119 35.5917C0.93119 35.5812 3.88274 30.4576 7.49018 24.2058L14.0492 12.839L21.6929 6.42437C25.897 2.89632 29.348 0.00541723 29.3618 0.00014492C29.3756 -0.00512634 29.3203 0.134066 29.2389 0.309462C29.1575 0.484858 25.4225 8.49607 20.9389 18.1121L12.7869 35.5959L6.85905 35.6034C3.59873 35.6074 0.93119 35.6022 0.93119 35.5917Z" fill="white"/>
</g>
<defs>
<clipPath id="clip0_125_1815">
<rect width="138.844" height="40" fill="white" transform="translate(0.93119)"/>
</clipPath>
</defs>
</svg>
