<svg viewBox="0 0 300 300" xmlns="http://www.w3.org/2000/svg"><g fill="#2fc177"><path d="m0 0v30h30 49.04 30 160.96v240h-160.96v30h190.96v-300z"/><path d="m79.04 270h-49.04v-210h-30v240h79.04z"/><path d="m95.8 60h60.06q22.86.22 34.34 11.85t11.59 31.06a37.88 37.88 0 0 1 -4.57 18.87 30.53 30.53 0 0 1 -7 8.12 50.51 50.51 0 0 1 -11.27 7.36v.44q12.69 3.39 19.19 13.71a45.94 45.94 0 0 1 6.07 23.16q-.21 20.75-12.55 32.81-12.25 12.62-30.54 12.62h-65.32zm23.46 21.5v46h33.94q12.87 0 18.93-7a22.25 22.25 0 0 0 6.17-16.11 23.38 23.38 0 0 0 -6.17-16.39q-6.06-6.29-18.93-6.51zm0 67.49v48.19h36.23q13.09-.21 19.17-7.37a24.76 24.76 0 0 0 6.08-16.72 25.08 25.08 0 0 0 -6.08-17q-6.06-6.93-19.17-7.15z"/></g></svg>