<svg width="62" height="62" viewBox="0 0 62 62" fill="none" xmlns="http://www.w3.org/2000/svg">
<path fill-rule="evenodd" clip-rule="evenodd" d="M31 55.8002C44.6967 55.8002 55.8 44.6969 55.8 31.0002C55.8 17.3035 44.6967 6.2002 31 6.2002C17.3034 6.2002 6.20001 17.3035 6.20001 31.0002C6.20001 44.6969 17.3034 55.8002 31 55.8002ZM25.0764 22.4169C24.6162 22.4169 24.2431 22.79 24.2431 23.2502C24.2431 23.7104 24.6162 24.0835 25.0764 24.0835H35.8518L22.6608 37.2722C22.3353 37.5976 22.3353 38.1253 22.6607 38.4507C22.9861 38.7762 23.5138 38.7762 23.8392 38.4508L37.0306 25.2618V36.0377C37.0306 36.4979 37.4037 36.871 37.8639 36.871C38.3242 36.871 38.6973 36.4979 38.6973 36.0377V23.2502C38.6973 22.79 38.3242 22.4169 37.8639 22.4169H25.0764Z" fill="white"/>
</svg>
