<svg width="47" height="47" viewBox="0 0 47 47" fill="none" xmlns="http://www.w3.org/2000/svg">
<path fill-rule="evenodd" clip-rule="evenodd" d="M23.5 5.59354C13.742 5.59354 5.80323 13.5323 5.80323 23.2903L3.31055 23.29C3.31055 12.1577 12.3677 3.10059 23.5 3.10059C34.6323 3.10059 43.6894 12.1577 43.6894 23.29C43.6894 34.4224 34.6323 43.4795 23.5 43.4795V40.9871C33.258 40.9871 41.1968 33.0483 41.1968 23.2903C41.1968 13.5323 33.258 5.59354 23.5 5.59354ZM22.7174 29.205L34.2896 17.6335C35.1966 19.3473 35.7128 21.3001 35.7128 23.374C35.7128 30.1654 30.2074 35.6708 23.416 35.6708C16.6245 35.6708 11.1191 30.1654 11.1191 23.374C11.1191 16.5825 16.6248 11.0771 23.416 11.0771C26.7565 11.0771 29.7832 12.4111 32.4976 15.0714L22.8838 24.6852L18.6259 20.4273L16.2828 22.7702L21.3798 27.8674L22.7174 29.205Z" fill="white"/>
</svg>
