<svg width="144" height="54" viewBox="0 0 144 54" fill="none" xmlns="http://www.w3.org/2000/svg">
<path fill-rule="evenodd" clip-rule="evenodd" d="M142.38 26.127C142.921 25.6051 143.346 24.9742 143.625 24.276C143.904 23.5779 144.032 22.8283 144 22.077C144.007 21.438 143.885 20.8042 143.64 20.214C143.398 19.644 143.064 19.1179 142.65 18.657C142.212 18.1739 141.702 17.7611 141.138 17.433C140.535 17.0755 139.895 16.7829 139.23 16.56C138.49 16.3478 137.787 16.0263 137.142 15.606C136.975 15.487 136.838 15.3302 136.743 15.1484C136.648 14.9667 136.597 14.765 136.594 14.5599C136.592 14.3547 136.637 14.1518 136.728 13.9677C136.818 13.7835 136.951 13.6233 137.115 13.5C137.466 13.212 138.024 13.068 138.78 13.068C139.453 13.0647 140.123 13.1742 140.76 13.392C141.31 13.5723 141.839 13.8139 142.335 14.112L142.668 10.602C142.178 10.2964 141.648 10.0602 141.093 9.90002C140.235 9.66427 139.346 9.5581 138.456 9.58502C137.593 9.57346 136.734 9.71046 135.918 9.99002C135.228 10.2322 134.594 10.6119 134.055 11.106C133.547 11.5713 133.147 12.1428 132.885 12.78C132.62 13.4282 132.485 14.1226 132.489 14.823C132.481 15.9873 132.893 17.1154 133.65 18C134.577 19.0249 135.765 19.7778 137.088 20.178C137.86 20.4112 138.589 20.7667 139.248 21.231C139.617 21.546 139.833 21.996 139.824 22.482C139.832 22.7219 139.78 22.9599 139.671 23.1739C139.562 23.3879 139.401 23.571 139.203 23.706C138.667 24.0385 138.041 24.1958 137.412 24.156C135.43 24.1455 133.516 23.4382 132.003 22.158L132.381 26.19C133.063 26.6832 133.828 27.049 134.64 27.27C135.603 27.54 136.584 27.657 137.583 27.648C139.707 27.648 141.3 27.144 142.389 26.127H142.38ZM82.35 20.097L89.037 27.432H91.152V9.99902H86.967V16.479C86.967 17.595 86.985 18.666 87.039 19.692L86.985 19.728C86.0919 18.5916 85.1521 17.4927 84.168 16.434L78.345 10.008H74.97V27.234H79.155V19.944L79.146 18.198C79.1371 17.5735 79.1131 16.9493 79.074 16.326L79.137 16.299C80.1722 17.5864 81.2406 18.8468 82.341 20.079L82.35 20.097ZM61.758 27.252V10.026H71.793V13.446H65.943V16.875H70.722V20.358H65.952V23.814H72.558V27.252H61.758ZM70.065 43.533L65.484 38.493C65.0913 38.0688 64.7073 37.6367 64.332 37.197L63.756 36.522L63.234 35.91L63.207 35.937L63.234 37.233V43.326H61.722V33.507H62.748L66.951 38.124C67.2067 38.3943 67.4528 38.6735 67.689 38.961L67.959 39.258L68.229 39.573C68.4935 39.8674 68.7515 40.1675 69.003 40.473L69.03 40.455C69.011 40.0653 69.002 39.6752 69.003 39.285V33.498H70.515V43.533H70.065ZM72.495 43.317V33.507H77.805V34.785H74.007V37.746H77.193V39.024H74.007V42.039H78.345V43.317H72.495ZM83.385 43.326V34.776H86.535V33.507H78.732V34.785H81.882V43.335L83.385 43.326ZM93.69 41.661C93.5132 42.0193 93.2615 42.3354 92.952 42.588C92.6452 42.8333 92.2937 43.0167 91.917 43.128C91.5474 43.2462 91.162 43.3069 90.774 43.308H87.57V33.498H90.306C90.984 33.5038 91.6415 33.7314 92.178 34.146C92.6019 34.4979 92.8947 34.9826 93.009 35.5216C93.1233 36.0605 93.0525 36.6223 92.808 37.116C92.6789 37.419 92.4414 37.6629 92.142 37.8C92.6418 37.9591 93.0793 38.2706 93.393 38.691C93.7076 39.1126 93.9008 39.6122 93.9516 40.1358C94.0024 40.6594 93.9178 41.1869 93.69 41.661ZM91.143 35.073C90.837 34.8604 90.4715 34.7501 90.099 34.758H89.082V37.35H90.099C90.459 37.35 90.828 37.251 91.143 37.044C91.44 36.846 91.593 36.522 91.593 36.072C91.593 35.604 91.431 35.271 91.143 35.073ZM92.304 39.573C92.1956 39.3621 92.0419 39.1777 91.854 39.033C91.6652 38.888 91.4518 38.7783 91.224 38.709C90.9811 38.639 90.7298 38.6027 90.477 38.601H89.073V42.048H90.477C90.7259 42.0515 90.9742 42.0212 91.215 41.958C91.5798 41.875 91.9046 41.6683 92.1342 41.373C92.3639 41.0777 92.4843 40.712 92.475 40.338C92.4848 40.0715 92.4316 39.8072 92.304 39.573ZM95.607 33.507V43.317H101.448V42.039H97.11V39.024H100.296V37.746H97.11V34.776H100.917V33.507H95.607ZM109.287 43.317V39.024H104.256V43.317H102.762V33.507H104.265V37.737H109.296V33.507H110.799V43.317H109.287ZM112.797 33.507V43.317H118.638V42.039H114.3V39.024H117.486V37.746H114.3V34.776H118.098V33.507H112.788H112.797ZM119.934 43.317V33.507H125.244V34.785H121.446V37.746H124.623V39.024H121.446V42.039H125.775V43.317H119.934ZM129.924 39.006L133.02 43.317V43.335H134.757L131.4 38.799C131.881 38.6041 132.302 38.2878 132.624 37.881C132.977 37.4204 133.155 36.8497 133.128 36.27C133.139 35.8727 133.058 35.4782 132.891 35.1175C132.723 34.7568 132.475 34.4397 132.165 34.191C131.598 33.7451 130.897 33.504 130.176 33.507H127.071V43.317H128.538V39.006H129.924ZM131.103 35.136C131.269 35.2673 131.403 35.4359 131.492 35.6283C131.581 35.8206 131.623 36.0312 131.616 36.243C131.624 36.4726 131.578 36.7009 131.481 36.909C131.39 37.0918 131.261 37.253 131.103 37.3819C130.944 37.5107 130.76 37.6042 130.563 37.656C130.358 37.7152 130.146 37.7455 129.933 37.746H128.565V34.74H129.933C130.353 34.7387 130.763 34.8711 131.103 35.118V35.136ZM94.509 27.252V10.026H104.535V13.446H98.685V16.875H103.464V20.358H98.694V23.814H105.3V27.252H94.5H94.509ZM115.443 23.526L117.738 27.252H122.328L116.829 18.396L122.049 10.026H117.711L115.551 13.509C115.188 14.0624 114.864 14.6397 114.579 15.237H114.525C114.269 14.6305 113.953 14.0515 113.58 13.509L111.42 10.026H106.839L112.095 18.504L106.569 27.252H110.907L113.256 23.526L113.832 22.599C114.021 22.266 114.192 21.951 114.345 21.636H114.399C114.722 22.2797 115.07 22.9102 115.443 23.526ZM124.875 27.252V10.026H129.051V27.252H124.875Z" fill="#635D63"/>
<path fill-rule="evenodd" clip-rule="evenodd" d="M27 0L0 27L27 54L54 27L27 0Z" fill="#BDDB00"/>
<path fill-rule="evenodd" clip-rule="evenodd" d="M0 27L27 0L33.012 6.012L33.039 14.418H20.79V22.743H33.048L33.075 31.068H20.808V39.384H33.111L33.138 47.862L27 54L0 27Z" fill="#DF0073"/>
</svg>
