<svg width="1600" height="532" viewBox="0 0 1600 532" fill="none" xmlns="http://www.w3.org/2000/svg">
<rect width="1920" height="532" transform="translate(-160)" fill="url(#paint0_linear_125_1728)"/>
<g clip-path="url(#clip0_125_1728)">
<g clip-path="url(#clip1_125_1728)">
<g opacity="0.2">
<mask id="mask0_125_1728" style="mask-type:alpha" maskUnits="userSpaceOnUse" x="-160" y="-87" width="1920" height="704">
<path d="M1760 -86.1699H-160V616.497H1760V-86.1699Z" fill="url(#paint1_linear_125_1728)"/>
</mask>
<g mask="url(#mask0_125_1728)">
<path d="M1062.72 -940.691L-948.607 220.549" stroke="#DDEAFF" stroke-width="1.20398"/>
<path d="M1133.62 -899.756L-877.705 261.484" stroke="#DDEAFF" stroke-width="1.20398"/>
<path d="M1204.52 -858.821L-806.804 302.419" stroke="#DDEAFF" stroke-width="1.20398"/>
<path d="M1275.43 -817.887L-735.898 343.353" stroke="#DDEAFF" stroke-width="1.20398"/>
<path d="M1346.32 -776.95L-665.004 384.29" stroke="#DDEAFF" stroke-width="1.20398"/>
<path d="M1417.23 -736.016L-594.098 425.224" stroke="#DDEAFF" stroke-width="1.20398"/>
<path d="M1488.13 -695.08L-523.191 466.16" stroke="#DDEAFF" stroke-width="1.20398"/>
<path d="M1559.03 -654.145L-452.298 507.095" stroke="#DDEAFF" stroke-width="1.20398"/>
<path d="M1629.93 -613.209L-381.391 548.031" stroke="#DDEAFF" stroke-width="1.20398"/>
<path d="M1700.84 -572.274L-310.484 588.966" stroke="#DDEAFF" stroke-width="1.20398"/>
<path d="M1771.73 -531.338L-239.591 629.902" stroke="#DDEAFF" stroke-width="1.20398"/>
<path d="M1842.64 -490.403L-168.684 670.837" stroke="#DDEAFF" stroke-width="1.20398"/>
<path d="M1913.55 -449.468L-97.7779 711.772" stroke="#DDEAFF" stroke-width="1.20398"/>
<path d="M1984.44 -408.533L-26.8843 752.707" stroke="#DDEAFF" stroke-width="1.20398"/>
<path d="M2055.35 -367.597L44.0219 793.643" stroke="#DDEAFF" stroke-width="1.20398"/>
<path d="M2126.25 -326.662L114.929 834.578" stroke="#DDEAFF" stroke-width="1.20398"/>
<path d="M2197.15 -285.727L185.822 875.513" stroke="#DDEAFF" stroke-width="1.20398"/>
<path d="M2268.05 -244.792L256.729 916.448" stroke="#DDEAFF" stroke-width="1.20398"/>
<path d="M2338.96 -203.856L327.635 957.384" stroke="#DDEAFF" stroke-width="1.20398"/>
<path d="M2409.85 -162.921L398.529 998.319" stroke="#DDEAFF" stroke-width="1.20398"/>
<path d="M2480.76 -121.985L469.436 1039.25" stroke="#DDEAFF" stroke-width="1.20398"/>
<path d="M2551.67 -81.0498L540.342 1080.19" stroke="#DDEAFF" stroke-width="1.20398"/>
<path d="M2622.56 -40.1152L611.235 1121.12" stroke="#DDEAFF" stroke-width="1.20398"/>
<path d="M2693.47 0.820312L682.142 1162.06" stroke="#DDEAFF" stroke-width="1.20398"/>
<path d="M2764.36 41.7559L753.036 1203" stroke="#DDEAFF" stroke-width="1.20398"/>
<path d="M2835.27 82.6914L823.942 1243.93" stroke="#DDEAFF" stroke-width="1.20398"/>
<path d="M2906.17 123.626L894.849 1284.87" stroke="#DDEAFF" stroke-width="1.20398"/>
<path d="M2977.07 164.562L965.742 1325.8" stroke="#DDEAFF" stroke-width="1.20398"/>
<path d="M3047.97 205.496L1036.65 1366.74" stroke="#DDEAFF" stroke-width="1.20398"/>
<path d="M3118.88 246.433L1107.55 1407.67" stroke="#DDEAFF" stroke-width="1.20398"/>
<path d="M-1019.08 248.509L1067.32 1453.09" stroke="#DDEAFF" stroke-width="1.20398"/>
<path d="M-947.331 207.081L1139.06 1411.66" stroke="#DDEAFF" stroke-width="1.20398"/>
<path d="M-875.58 165.654L1210.81 1370.23" stroke="#DDEAFF" stroke-width="1.20398"/>
<path d="M-803.833 124.228L1282.56 1328.81" stroke="#DDEAFF" stroke-width="1.20398"/>
<path d="M-732.085 82.8105L1354.31 1287.39" stroke="#DDEAFF" stroke-width="1.20398"/>
<path d="M-660.339 41.3838L1426.05 1245.96" stroke="#DDEAFF" stroke-width="1.20398"/>
<path d="M-588.593 -0.0332031L1497.8 1204.55" stroke="#DDEAFF" stroke-width="1.20398"/>
<path d="M-516.845 -41.46L1569.55 1163.12" stroke="#DDEAFF" stroke-width="1.20398"/>
<path d="M-445.096 -82.8867L1641.3 1121.69" stroke="#DDEAFF" stroke-width="1.20398"/>
<path d="M-373.348 -124.304L1713.04 1080.28" stroke="#DDEAFF" stroke-width="1.20398"/>
<path d="M-301.601 -165.73L1784.79 1038.85" stroke="#DDEAFF" stroke-width="1.20398"/>
<path d="M-229.854 -207.147L1856.54 997.432" stroke="#DDEAFF" stroke-width="1.20398"/>
<path d="M-70.1636 -299.356L2016.23 905.223" stroke="#DDEAFF" stroke-width="1.20398"/>
<path d="M-216.606 -303.252L1869.79 901.328" stroke="#DDEAFF" stroke-width="1.20398"/>
<path d="M1.58392 -340.772L2087.98 863.807" stroke="#DDEAFF" stroke-width="1.20398"/>
<path d="M73.3306 -382.189L2159.72 822.39" stroke="#DDEAFF" stroke-width="1.20398"/>
<path d="M145.079 -423.627L2231.47 780.953" stroke="#DDEAFF" stroke-width="1.20398"/>
<path d="M216.827 -465.043L2303.22 739.537" stroke="#DDEAFF" stroke-width="1.20398"/>
<path d="M288.573 -506.471L2374.97 698.109" stroke="#DDEAFF" stroke-width="1.20398"/>
<path d="M360.321 -547.887L2446.71 656.693" stroke="#DDEAFF" stroke-width="1.20398"/>
<path d="M432.068 -589.314L2518.46 615.265" stroke="#DDEAFF" stroke-width="1.20398"/>
<path d="M503.816 -630.741L2590.21 573.839" stroke="#DDEAFF" stroke-width="1.20398"/>
<path d="M575.563 -672.157L2661.96 532.423" stroke="#DDEAFF" stroke-width="1.20398"/>
<path d="M647.311 -713.586L2733.7 490.994" stroke="#DDEAFF" stroke-width="1.20398"/>
<path d="M719.057 -755.013L2805.45 449.567" stroke="#DDEAFF" stroke-width="1.20398"/>
<path d="M790.805 -796.438L2877.2 408.141" stroke="#DDEAFF" stroke-width="1.20398"/>
<path d="M862.552 -837.856L2948.94 366.723" stroke="#DDEAFF" stroke-width="1.20398"/>
<path d="M934.302 -879.283L3020.7 325.297" stroke="#DDEAFF" stroke-width="1.20398"/>
<path d="M1006.05 -920.7L3092.44 283.88" stroke="#DDEAFF" stroke-width="1.20398"/>
<path d="M1077.79 -962.116L3164.19 242.464" stroke="#DDEAFF" stroke-width="1.20398"/>
<path d="M1149.54 -1003.54L3235.94 201.037" stroke="#DDEAFF" stroke-width="1.20398"/>
</g>
</g>
</g>
</g>
<defs>
<linearGradient id="paint0_linear_125_1728" x1="960" y1="0" x2="960" y2="532" gradientUnits="userSpaceOnUse">
<stop stop-color="#218753"/>
<stop offset="1" stop-color="#187B49"/>
</linearGradient>
<linearGradient id="paint1_linear_125_1728" x1="800" y1="-86.1699" x2="800" y2="616.496" gradientUnits="userSpaceOnUse">
<stop stop-color="#C4C4C4" stop-opacity="0"/>
<stop offset="0.526042" stop-color="#C4C4C4"/>
<stop offset="1" stop-color="#C4C4C4" stop-opacity="0"/>
</linearGradient>
<clipPath id="clip0_125_1728">
<rect width="1920" height="532" fill="white" transform="translate(-160)"/>
</clipPath>
<clipPath id="clip1_125_1728">
<rect width="1920" height="704" fill="white" transform="translate(-160 -86.21)"/>
</clipPath>
</defs>
</svg>
