<svg width="46" height="47" viewBox="0 0 46 47" fill="none" xmlns="http://www.w3.org/2000/svg">
<path fill-rule="evenodd" clip-rule="evenodd" d="M23.0013 3.2349L23.0019 3.23291L23.003 3.24031L23.6529 5.24072H25.763L24.053 6.48311L24.6935 8.45424L24.7081 8.48252L24.7009 8.4773L24.7068 8.49527L24.6593 8.44707L23 7.2417L21.3359 8.45054L21.2918 8.49532L21.2972 8.47863L21.2918 8.48257L21.3029 8.46121L21.9464 6.48087L20.2391 5.24072H22.3495L22.9995 3.24031L23.0006 3.23291L23.0013 3.2349ZM22.9995 38.0919L22.3495 40.0923H20.2391L21.9463 41.3325L21.3029 43.3128L21.2918 43.3342L21.2972 43.3302L21.2918 43.3469L21.3358 43.3022L23 42.0934L24.6663 43.3038L24.7087 43.3469L24.7035 43.3308L24.7081 43.3342L24.6987 43.316L24.0546 41.3336L25.7633 40.0923H23.653L23.003 38.0919L23.0019 38.0845L23.0013 38.0865L23.0006 38.0845L22.9995 38.0919ZM3.86809 25.9107L3.86596 25.9173L3.88325 25.8997L5.57315 24.6722L7.26518 25.9013L7.28094 25.9173L7.279 25.9113L7.28034 25.9123L7.27762 25.9071L6.62875 23.9101L8.33535 22.6704L6.22709 22.6705L5.57468 20.6626L4.92166 22.6704H2.81128L4.51805 23.9102L3.87031 25.9039L3.86596 25.9123L3.86809 25.9107ZM13.6366 7.5766L14.2864 5.57671L14.2876 5.56884L14.2883 5.57095L14.289 5.56884L14.2902 5.57671L14.94 7.57665H17.0501L15.3438 8.81704L15.9917 10.8117L15.9952 10.8185L15.9935 10.8172L15.9958 10.8244L15.9768 10.8051L14.2881 9.5777L12.6014 10.8035L12.5809 10.8244L12.5834 10.8167L12.5809 10.8185L12.586 10.8085L13.2329 8.81709L11.5261 7.5766H13.6366ZM9.61596 17.1985L8.964 15.192L10.6714 13.9517H8.56108L7.90918 11.9454L7.25591 13.9517H5.14526L6.85205 15.1916L6.19995 17.1985L6.20314 17.1952L6.19995 17.2014L7.90815 15.9605L9.61627 17.2014L9.61344 17.1959L9.61596 17.1985ZM10.6711 31.3814H8.56106L7.90918 29.3752L7.25593 31.3814H5.14526L6.85411 32.6228L6.20422 34.6228L6.19995 34.631L6.20204 34.6295L6.19995 34.636L6.21692 34.6187L7.90713 33.3909L9.59619 34.6179L9.61401 34.636L9.61182 34.6292L9.61432 34.631L9.6092 34.6212L8.96037 32.6244L10.6711 31.3814ZM14.2902 35.7643L14.9398 37.7642H17.0501L15.3418 39.0061L15.9849 40.9862L15.9952 41.006L15.9902 41.0024L15.9958 41.0198L15.9498 40.973L14.2881 39.7653L12.6285 40.9714L12.5809 41.0198L12.5867 41.0018L12.5809 41.006L12.5928 40.983L13.2349 39.0061L11.5261 37.7642H13.6369L14.2864 35.7643L14.2876 35.7564L14.2883 35.7585L14.289 35.7564L14.2902 35.7643ZM40.4276 20.6626L40.4269 20.6646L40.4263 20.6626L40.4252 20.67L39.7753 22.6704H37.6649L39.3717 23.9102L38.7239 25.9039L38.7195 25.9123L38.7217 25.9107L38.7195 25.9173L38.7368 25.8997L40.4268 24.6722L42.1188 25.9013L42.1345 25.9173L42.1326 25.9113L42.1339 25.9123L42.1312 25.907L41.4824 23.91L43.1888 22.6704H41.0787L40.4287 20.67L40.4276 20.6626ZM28.952 7.5766L30.6587 8.81709L30.0118 10.8085L30.0066 10.8185L30.0092 10.8167L30.0066 10.8244L30.0272 10.8035L31.7138 9.5777L33.4026 10.8051L33.4216 10.8244L33.4193 10.8172L33.421 10.8185L33.4175 10.8117L32.7696 8.81688L34.476 7.5766H32.3677L31.7154 5.56884L31.0624 7.5766H28.952ZM37.0377 15.1915L36.3856 17.1985L36.3887 17.1952L36.3856 17.2014L38.0937 15.9605L39.8019 17.2014L39.7991 17.1959L39.8015 17.1985L39.1496 15.192L40.857 13.9517H38.7444L38.0921 11.9459L37.4393 13.9517H35.3309L37.0377 15.1915ZM37.4394 31.3814H35.3309L37.0397 32.6228L36.3898 34.6228L36.3856 34.631L36.3876 34.6295L36.3856 34.636L36.4026 34.6187L38.0937 33.3902L39.7838 34.6179L39.8015 34.636L39.7994 34.6292L39.8019 34.631L39.7967 34.6211L39.1475 32.6232L40.857 31.3814H38.7444L38.0921 29.3757L37.4394 31.3814ZM31.7154 35.7486L32.3675 37.7563H34.476L32.7675 38.9981L33.4107 40.9784L33.421 40.9982L33.416 40.9946L33.4216 41.012L33.3756 40.9652L31.7138 39.7574L30.0543 40.9636L30.0066 41.012L30.0125 40.994L30.0066 40.9982L30.0186 40.9752L30.6607 38.9983L28.952 37.7563H31.0626L31.7154 35.7486Z" fill="white"/>
</svg>
