<svg width="47" height="47" viewBox="0 0 47 47" fill="none" xmlns="http://www.w3.org/2000/svg">
<mask id="mask0_125_1958" style="mask-type:luminance" maskUnits="userSpaceOnUse" x="3" y="2" width="41" height="43">
<path d="M43.69 2.53027H3.31V44.0503H43.69V2.53027Z" fill="white"/>
</mask>
<g mask="url(#mask0_125_1958)">
<path d="M8.2 40.3305H11.15C10.78 41.3405 9.68 42.0205 8.41 42.0205C6.64 42.0205 5.47 40.7605 5.47 38.9305C5.47 37.1005 6.66 35.8305 8.41 35.8305C9.65 35.8305 10.69 36.4905 11.11 37.5405H13.3C12.84 35.3405 10.81 33.7905 8.37 33.7905C5.46 33.7905 3.31 35.9905 3.31 38.9305C3.31 41.8705 5.51 44.0605 8.41 44.0605C11.31 44.0605 13.42 41.7805 13.42 38.7105H8.2V40.3405V40.3305Z" fill="white"/>
<path d="M19.35 34.0002H15.64V43.8302H19.35C22.24 43.8302 24.34 41.7702 24.34 38.9102C24.34 36.0502 22.25 33.9902 19.35 33.9902V34.0002ZM19.31 41.8602H17.77V35.9802H19.31C21 35.9802 22.16 37.1702 22.16 38.9202C22.16 40.6702 20.99 41.8702 19.31 41.8702V41.8602Z" fill="white"/>
<path d="M30.39 34H26.61V43.83H28.73V40.77H30.39C32.37 40.77 33.86 39.32 33.86 37.39C33.86 35.46 32.36 34.01 30.39 34.01V34ZM30.29 38.8H28.73V35.98H30.29C31.13 35.98 31.71 36.57 31.71 37.38C31.71 38.19 31.13 38.8 30.29 38.8Z" fill="white"/>
<path d="M41.51 40.12C42.61 39.59 43.31 38.55 43.31 37.26C43.31 35.36 41.84 34 39.87 34H35.91V43.83H38.03V40.49H39.39L41.31 43.83H43.68L41.5 40.12H41.51ZM39.73 38.52H38.03V35.96H39.73C40.63 35.96 41.15 36.51 41.15 37.24C41.15 37.97 40.63 38.52 39.73 38.52Z" fill="white"/>
<path d="M30.52 25.3503C31.67 25.3503 32.82 24.3903 32.82 23.2403V12.3103C32.82 11.1603 31.86 10.2003 30.52 10.2003V9.05027C30.52 5.41027 27.45 2.53027 23.81 2.53027C20.17 2.53027 17.1 5.41027 17.1 9.05027V10.2003C15.95 10.2003 14.8 11.1603 14.8 12.3103V23.2403C14.8 24.3903 15.76 25.3503 17.1 25.3503H30.52ZM28.58 15.1503C28.66 15.2303 28.71 15.3403 28.71 15.4603C28.71 15.5803 28.67 15.6803 28.58 15.7603L23.37 20.9703C23.29 21.0503 23.18 21.1003 23.07 21.1003C22.96 21.1003 22.85 21.0603 22.77 20.9703L19.94 18.1403C19.77 17.9703 19.77 17.7003 19.94 17.5303L20.49 16.9803C20.66 16.8103 20.93 16.8103 21.1 16.9803L23.08 18.9603L27.43 14.6003C27.6 14.4303 27.87 14.4303 28.04 14.6003L28.59 15.1503H28.58ZM19.4 9.05027C19.4 6.56027 21.32 4.64027 23.81 4.64027C26.3 4.64027 28.22 6.56027 28.22 9.05027V10.2003H19.4V9.05027Z" fill="white"/>
</g>
</svg>
