<svg width="1600" height="1672" viewBox="0 0 1600 1672" fill="none" xmlns="http://www.w3.org/2000/svg">
<g opacity="0.5" filter="url(#filter0_f_125_2172)">
<rect x="755" y="796" width="583" height="583" rx="291.5" fill="#218753"/>
</g>
<mask id="mask0_125_2172" style="mask-type:alpha" maskUnits="userSpaceOnUse" x="0" y="0" width="1601" height="940">
<rect x="0.444443" width="1600" height="940" fill="url(#paint0_linear_125_2172)"/>
</mask>
<g mask="url(#mask0_125_2172)">
</g>
<g clip-path="url(#clip0_125_2172)">
<g opacity="0.4">
<path opacity="0.0144928" d="M1496.98 1314.29C1506.62 1319.41 1518.49 1317.53 1526.08 1309.68L1752.41 1075.6C1756.9 1070.95 1759.37 1064.73 1759.29 1058.27L1753.67 592.207C1753.61 587.129 1751.98 582.195 1748.99 578.089L1508.84 247.982C1503.43 240.537 1494.29 236.757 1485.2 238.197L1204.75 282.616C1195.65 284.056 1188.13 290.474 1185.28 299.229L1058.9 687.388C1057.33 692.217 1057.29 697.415 1058.81 702.263L1197.48 1147.25C1199.41 1153.42 1203.68 1158.58 1209.39 1161.6L1496.98 1314.29Z" fill="#1C1C1E" stroke="url(#paint1_linear_125_2172)"/>
<path opacity="0.0289855" d="M1445.76 1312.76C1455.1 1318.35 1467.02 1317.1 1475 1309.69L1711.91 1089.74C1716.65 1085.34 1719.46 1079.25 1719.72 1072.78L1738.55 611.352C1738.76 606.263 1737.38 601.236 1734.59 596.97L1513.51 257.992C1508.49 250.29 1499.57 246.049 1490.43 247.01L1209.72 276.514C1200.57 277.476 1192.73 283.477 1189.42 292.055L1043.65 669.591C1041.81 674.342 1041.51 679.547 1042.77 684.482L1157.12 1131.92C1158.72 1138.18 1162.74 1143.56 1168.29 1146.88L1445.76 1312.76Z" fill="#1C1C1E" stroke="url(#paint2_linear_125_2172)"/>
<path opacity="0.0434783" d="M1394.93 1309.68C1403.96 1315.72 1415.88 1315.09 1424.23 1308.14L1670.88 1102.79C1675.85 1098.65 1678.99 1092.7 1679.59 1086.26L1722.37 630.727C1722.85 625.641 1721.72 620.532 1719.15 616.116L1517.4 269.349C1512.78 261.411 1504.11 256.723 1494.94 257.204L1214.76 271.887C1205.59 272.368 1197.45 277.937 1193.69 286.314L1029.29 652.27C1027.2 656.93 1026.61 662.129 1027.62 667.137L1117.78 1115.7C1119.05 1122.05 1122.79 1127.63 1128.17 1131.24L1394.93 1309.68Z" fill="#1C1C1E" stroke="url(#paint3_linear_125_2172)"/>
<path opacity="0.057971" d="M1344.59 1305.08C1353.27 1311.55 1365.18 1311.55 1373.86 1305.08L1629.36 1114.74C1634.56 1110.86 1638.02 1105.08 1638.96 1098.67L1705.12 650.271C1705.87 645.201 1705.01 640.024 1702.66 635.469L1520.44 281.998C1516.24 273.847 1507.84 268.724 1498.67 268.724L1219.79 268.724C1210.61 268.724 1202.21 273.847 1198.01 281.998L1015.79 635.469C1013.45 640.024 1012.58 645.201 1013.33 650.271L1079.49 1098.67C1080.44 1105.08 1083.89 1110.86 1089.09 1114.74L1344.59 1305.08Z" fill="#1C1C1E" stroke="url(#paint4_linear_125_2172)"/>
<path opacity="0.0724638" d="M1294.8 1299.01C1303.13 1305.89 1314.97 1306.51 1323.97 1300.54L1587.44 1125.56C1592.85 1121.96 1596.61 1116.37 1597.9 1110L1686.8 669.926C1687.82 664.887 1687.23 659.655 1685.11 654.971L1522.58 295.881C1518.8 287.537 1510.69 281.997 1501.54 281.517L1224.72 267.01C1215.58 266.531 1206.93 271.193 1202.3 279.096L1003.12 619.23C1000.53 623.666 999.39 628.807 999.875 633.925L1042.3 1080.88C1042.91 1087.35 1046.07 1093.31 1051.07 1097.45L1294.8 1299.01Z" fill="#1C1C1E" stroke="url(#paint5_linear_125_2172)"/>
<path opacity="0.0869565" d="M1245.65 1291.5C1253.59 1298.78 1265.35 1300.01 1274.63 1294.55L1545.16 1135.24C1550.76 1131.94 1554.83 1126.54 1556.45 1120.24L1667.42 689.632C1668.71 684.637 1668.39 679.365 1666.5 674.564L1523.74 310.936C1520.4 302.423 1512.59 296.48 1503.5 295.524L1229.5 266.725C1220.4 265.769 1211.53 269.959 1206.49 277.592L991.245 603.592C988.404 607.895 986.993 612.986 987.213 618.139L1006.23 1062.41C1006.51 1068.91 1009.36 1075.03 1014.16 1079.43L1245.65 1291.5Z" fill="#1C1C1E" stroke="url(#paint6_linear_125_2172)"/>
<path opacity="0.101449" d="M1197.2 1282.61C1204.74 1290.26 1216.38 1292.1 1225.92 1287.16L1502.59 1143.78C1508.38 1140.78 1512.73 1135.6 1514.69 1129.38L1646.98 709.33C1648.53 704.395 1648.48 699.095 1646.84 694.189L1523.88 327.099C1520.98 318.439 1513.5 312.111 1504.48 310.683L1234.03 267.847C1225.01 266.418 1215.94 270.126 1210.5 277.466L980.12 588.591C977.041 592.749 975.358 597.775 975.311 602.949L971.322 1043.32C971.263 1049.84 973.803 1056.11 978.378 1060.75L1197.2 1282.61Z" fill="#1C1C1E" stroke="url(#paint7_linear_125_2172)"/>
<path opacity="0.115942" d="M1149.49 1272.5C1156.61 1280.5 1168.1 1282.94 1177.86 1278.53L1459.76 1151.28C1465.71 1148.59 1470.34 1143.64 1472.63 1137.53L1625.44 729.073C1627.26 724.211 1627.48 718.897 1626.09 713.897L1522.89 344.411C1520.44 335.628 1513.31 328.933 1504.39 327.037L1238.2 270.456C1229.27 268.56 1220.04 271.776 1214.23 278.803L969.667 574.371C966.358 578.371 964.405 583.318 964.089 588.499L937.553 1023.8C937.156 1030.31 939.374 1036.72 943.716 1041.59L1149.49 1272.5Z" fill="#1C1C1E" stroke="url(#paint8_linear_125_2172)"/>
<path opacity="0.130435" d="M1102.7 1260.9C1109.39 1269.22 1120.69 1272.25 1130.65 1268.39L1416.85 1157.41C1422.95 1155.05 1427.85 1150.35 1430.46 1144.35L1602.94 748.477C1605.02 743.702 1605.52 738.388 1604.38 733.308L1520.86 362.478C1518.86 353.594 1512.1 346.553 1503.3 344.196L1242.06 274.197C1233.27 271.84 1223.89 274.557 1217.72 281.25L959.974 560.64C956.443 564.468 954.223 569.322 953.637 574.497L905.073 1003.58C904.338 1010.07 906.229 1016.59 910.325 1021.69L1102.7 1260.9Z" fill="#1C1C1E" stroke="url(#paint9_linear_125_2172)"/>
<path opacity="0.144928" d="M1056.77 1248.19C1063.01 1256.81 1074.1 1260.42 1084.22 1257.11L1373.8 1162.5C1380.03 1160.47 1385.18 1156.03 1388.11 1150.18L1579.37 767.811C1581.7 763.137 1582.49 757.838 1581.6 752.689L1517.62 381.554C1516.08 372.593 1509.7 365.225 1501.05 362.415L1245.43 279.36C1236.78 276.55 1227.29 278.761 1220.77 285.102L950.869 547.752C947.124 551.397 944.642 556.143 943.787 561.298L873.77 983.058C872.698 989.517 874.255 996.136 878.095 1001.44L1056.77 1248.19Z" fill="#1C1C1E" stroke="url(#paint10_linear_125_2172)"/>
<path opacity="0.15942" d="M1011.8 1234.33C1017.58 1243.23 1028.43 1247.39 1038.68 1244.65L1330.72 1166.46C1337.05 1164.76 1342.44 1160.6 1345.68 1154.9L1554.78 786.912C1557.37 782.353 1558.43 777.083 1557.81 771.877L1513.17 401.456C1512.09 392.442 1506.1 384.768 1497.63 381.514L1248.28 285.798C1239.8 282.544 1230.22 284.245 1223.38 290.216L942.353 535.627C938.403 539.076 935.664 543.702 934.539 548.823L843.7 962.204C842.293 968.609 843.512 975.311 847.085 980.81L1011.8 1234.33Z" fill="#1C1C1E" stroke="url(#paint11_linear_125_2172)"/>
<path opacity="0.173913" d="M967.84 1219.38C973.147 1228.52 983.727 1233.23 994.077 1231.06L1287.66 1169.28C1294.08 1167.93 1299.7 1164.05 1303.24 1158.52L1529.2 805.727C1532.04 801.296 1533.38 796.069 1533.02 790.82L1507.48 422.11C1506.85 413.066 1501.28 405.108 1493 401.421L1250.54 293.469C1242.25 289.782 1232.61 290.969 1225.47 296.554L934.379 524.29C930.235 527.532 927.245 532.022 925.851 537.096L814.873 941.085C813.133 947.419 814.009 954.186 817.305 959.868L967.84 1219.38Z" fill="#1C1C1E" stroke="url(#paint12_linear_125_2172)"/>
<path opacity="0.188406" d="M924.947 1203.4C929.771 1212.77 940.051 1218.01 950.471 1216.4L1244.68 1170.99C1251.18 1169.98 1257 1166.4 1260.84 1161.06L1502.66 824.202C1505.74 819.913 1507.35 814.743 1507.25 809.464L1500.5 443.438C1500.34 434.389 1495.19 426.169 1487.13 422.06L1252.15 302.33C1244.08 298.221 1234.41 298.892 1226.99 304.076L926.903 513.763C922.575 516.787 919.339 521.129 917.679 526.142L787.291 919.774C785.222 926.02 785.753 932.835 788.763 938.686L924.947 1203.4Z" fill="#1C1C1E" stroke="url(#paint13_linear_125_2172)"/>
<path opacity="0.202899" d="M883.165 1186.47C887.496 1196.04 897.451 1201.79 907.909 1200.75L1201.84 1171.59C1208.4 1170.93 1214.42 1167.67 1218.54 1162.53L1475.16 842.288C1478.48 838.153 1480.36 833.055 1480.53 827.758L1492.23 465.365C1492.52 456.333 1487.82 447.875 1479.99 443.356L1253.05 312.331C1245.22 307.813 1235.55 307.969 1227.87 312.738L919.879 504.066C915.378 506.862 911.904 511.043 909.98 515.981L760.958 898.342C758.565 904.483 758.746 911.328 761.462 917.333L883.165 1186.47Z" fill="#1C1C1E" stroke="url(#paint14_linear_125_2172)"/>
<path opacity="0.217391" d="M842.535 1168.66C846.364 1178.41 855.968 1184.64 866.432 1184.18L1159.2 1171.1C1165.8 1170.81 1171.99 1167.86 1176.39 1162.94L1446.75 859.936C1450.29 855.967 1452.44 850.954 1452.88 845.654L1482.63 487.81C1483.38 478.82 1479.13 470.146 1471.56 465.233L1253.19 323.424C1245.63 318.511 1235.97 318.153 1228.07 322.492L913.258 495.217C908.595 497.775 904.892 501.781 902.707 506.63L735.868 876.859C733.156 882.878 732.987 889.737 735.401 895.881L842.535 1168.66Z" fill="#1C1C1E" stroke="url(#paint15_linear_125_2172)"/>
<path opacity="0.231884" d="M803.093 1150.03C806.415 1159.93 815.643 1166.64 826.082 1166.74L1116.82 1169.55C1123.43 1169.61 1129.79 1167 1134.44 1162.31L1417.45 877.097C1421.21 873.308 1423.63 868.394 1424.34 863.103L1471.7 510.696C1472.9 501.77 1469.1 492.906 1461.82 487.612L1252.53 335.555C1245.24 330.261 1235.64 329.392 1227.52 333.291L906.994 487.229C902.182 489.54 898.256 493.36 895.814 498.107L712.016 855.396C708.99 861.276 708.471 868.13 710.575 874.399L803.093 1150.03Z" fill="#1C1C1E" stroke="url(#paint16_linear_125_2172)"/>
<path opacity="0.246377" d="M764.872 1130.68C767.681 1140.69 776.511 1147.84 786.894 1148.51L1074.74 1166.96C1081.35 1167.38 1087.85 1165.11 1092.76 1160.67L1387.29 893.727C1391.27 890.129 1393.95 885.328 1394.93 880.061L1459.41 533.943C1461.06 525.104 1457.73 516.074 1450.74 510.416L1251 348.669C1244.01 343.011 1234.49 341.634 1226.18 345.082L901.037 480.116C896.089 482.171 891.95 485.792 889.256 490.423L689.389 834.021C686.058 839.747 685.188 846.578 686.977 852.956L764.872 1130.68Z" fill="#1C1C1E" stroke="url(#paint17_linear_125_2172)"/>
<path opacity="0.26087" d="M727.9 1110.66C730.194 1120.77 738.604 1128.34 748.899 1129.57L1033.03 1163.36C1039.62 1164.14 1046.24 1162.22 1051.39 1158.03L1356.32 909.783C1360.49 906.388 1363.43 901.714 1364.68 896.482L1445.76 557.472C1447.85 548.743 1445 539.572 1438.33 533.566L1248.57 362.708C1241.9 356.702 1232.48 354.824 1224.02 357.813L895.34 473.886C890.268 475.677 885.927 479.087 882.986 483.59L667.972 812.803C664.344 818.359 663.124 825.149 664.592 831.621L727.9 1110.66Z" fill="#1C1C1E" stroke="url(#paint18_linear_125_2172)"/>
<path opacity="0.275362" d="M692.201 1090.06C693.978 1100.23 701.947 1108.2 712.124 1109.98L991.721 1158.77C998.269 1159.92 1005 1158.35 1010.37 1154.43L1324.56 925.224C1328.93 922.042 1332.12 917.508 1333.63 912.327L1430.75 581.204C1433.27 572.607 1430.9 563.319 1424.57 556.984L1245.2 377.613C1238.86 371.278 1229.57 368.906 1220.98 371.427L889.853 468.545C884.672 470.065 880.138 473.253 876.956 477.616L647.748 791.808C643.83 797.179 642.262 803.911 643.405 810.459L692.201 1090.06Z" fill="#1C1C1E" stroke="url(#paint19_linear_125_2172)"/>
<path opacity="0.289855" d="M657.795 1068.95C659.052 1079.16 666.563 1087.5 676.592 1089.82L950.874 1153.24C957.363 1154.74 964.182 1153.53 969.763 1149.9L1292.06 940.011C1296.61 937.053 1300.04 932.672 1301.83 927.554L1414.38 605.06C1417.33 596.616 1415.44 587.238 1409.46 580.593L1240.84 393.322C1234.86 386.677 1225.73 383.819 1217.02 385.867L884.529 464.098C879.252 465.34 874.537 468.296 871.12 472.504L628.693 771.102C624.495 776.272 622.583 782.928 623.397 789.538L657.795 1068.95Z" fill="#1C1C1E" stroke="url(#paint20_linear_125_2172)"/>
<path opacity="0.304348" d="M624.695 1047.41C625.435 1057.64 632.469 1066.32 642.321 1069.17L910.532 1146.79C916.941 1148.64 923.829 1147.8 929.605 1144.46L1258.86 954.109C1263.58 951.385 1267.25 947.17 1269.3 942.128L1396.66 628.963C1400.02 620.694 1398.62 611.251 1393.01 604.314L1235.47 409.775C1229.85 402.838 1220.91 399.505 1212.12 401.076L879.319 460.547C873.961 461.504 869.075 464.218 865.431 468.26L610.782 750.747C606.314 755.703 604.061 762.266 604.543 768.92L624.695 1047.41Z" fill="#1C1C1E" stroke="url(#paint21_linear_125_2172)"/>
<path opacity="0.318841" d="M592.911 1025.52C593.136 1035.73 599.677 1044.73 609.323 1048.1L870.738 1139.45C877.047 1141.66 883.984 1141.19 889.94 1138.15L1225 967.482C1229.87 965.002 1233.77 960.965 1236.08 956.014L1377.59 652.836C1381.36 644.762 1380.45 635.28 1375.21 628.072L1229.06 426.907C1223.82 419.699 1215.09 415.902 1206.24 416.991L874.174 457.889C868.751 458.557 863.706 461.019 859.843 464.883L593.984 730.806C589.259 735.533 586.669 741.985 586.816 748.667L592.911 1025.52Z" fill="#1C1C1E" stroke="url(#paint22_linear_125_2172)"/>
<path opacity="0.333333" d="M562.45 1003.35C562.163 1013.52 568.197 1022.82 577.609 1026.69L831.532 1131.28C837.723 1133.83 844.689 1133.73 850.809 1131.01L1190.53 980.101C1195.54 977.874 1199.66 974.028 1202.23 969.179L1357.2 676.603C1361.36 668.745 1360.94 659.249 1356.1 651.792L1221.58 444.652C1216.73 437.195 1208.23 432.947 1199.36 433.553L869.047 456.121C863.573 456.495 858.383 458.696 854.308 462.371L578.269 711.338C573.296 715.823 570.376 722.147 570.188 728.841L562.45 1003.35Z" fill="#1C1C1E" stroke="url(#paint23_linear_125_2172)"/>
<path opacity="0.347826" d="M533.311 980.983C532.518 991.092 538.033 1000.64 547.184 1005.01L792.953 1122.3C799.008 1125.19 805.982 1125.47 812.249 1123.07L1155.48 991.938C1160.63 989.971 1164.96 986.327 1167.78 981.594L1335.49 700.19C1340.04 692.567 1340.1 683.083 1335.66 675.398L1213.01 462.947C1208.57 455.261 1200.32 450.576 1191.45 450.699L863.892 455.237C858.382 455.313 853.059 457.244 848.783 460.718L563.6 692.399C558.393 696.629 555.148 702.81 554.623 709.498L533.311 980.983Z" fill="#1C1C1E" stroke="url(#paint24_linear_125_2172)"/>
<path opacity="0.362319" d="M505.493 958.495C504.199 968.512 509.185 978.296 518.049 983.136L755.038 1112.56C760.937 1115.78 767.9 1116.44 774.297 1114.38L1119.92 1002.96C1125.18 1001.27 1129.72 997.837 1132.79 993.232L1312.5 723.526C1317.41 716.156 1317.96 706.709 1313.94 698.818L1203.33 481.723C1199.3 473.832 1191.34 468.725 1182.49 468.366L858.661 455.227C853.132 455.003 847.69 456.656 843.221 459.919L549.938 674.045C544.509 678.008 540.947 684.028 540.086 690.694L505.493 958.495Z" fill="#1C1C1E" stroke="url(#paint25_linear_125_2172)"/>
<path opacity="0.376812" d="M478.987 935.961C477.201 945.86 481.646 955.845 490.198 961.141L717.818 1102.11C723.543 1105.65 730.476 1106.68 736.986 1104.96L1083.88 1013.16C1089.25 1011.74 1093.98 1008.53 1097.29 1004.07L1288.25 746.539C1293.51 739.439 1294.54 730.055 1290.95 721.981L1192.52 500.917C1188.93 492.843 1181.26 487.331 1172.47 486.492L853.308 456.081C847.776 455.554 842.229 456.923 837.577 459.964L537.241 656.327C531.604 660.012 527.733 665.855 526.537 672.482L478.987 935.961Z" fill="#1C1C1E" stroke="url(#paint26_linear_125_2172)"/>
<path opacity="0.391304" d="M453.782 913.453C451.512 923.21 455.41 933.366 463.626 939.098L681.326 1090.98C686.86 1094.84 693.74 1096.25 700.345 1094.87L1047.41 1022.5C1052.88 1021.36 1057.79 1018.39 1061.33 1014.08L1262.76 769.161C1268.37 762.35 1269.87 753.053 1266.71 744.819L1180.59 520.46C1177.43 512.227 1170.09 506.327 1161.37 505.013L847.791 457.785C842.271 456.953 836.633 458.032 831.81 460.841L525.466 639.295C519.636 642.691 515.465 648.342 513.936 654.913L453.782 913.453Z" fill="#1C1C1E" stroke="url(#paint27_linear_125_2172)"/>
<path opacity="0.405797" d="M429.861 891.045C427.117 900.636 430.463 910.933 438.32 917.08L645.589 1079.23C650.913 1083.39 657.722 1085.17 664.404 1084.15L1010.57 1030.98C1016.12 1030.13 1021.2 1027.4 1024.97 1023.25L1236.09 791.327C1242.01 784.819 1243.99 775.634 1241.27 767.264L1167.52 540.287C1164.8 531.917 1157.8 525.649 1149.18 523.866L842.064 460.322C836.574 459.186 830.86 459.968 825.876 462.537L514.566 622.995C508.557 626.093 504.095 631.535 502.236 638.035L429.861 891.045Z" fill="#1C1C1E" stroke="url(#paint28_linear_125_2172)"/>
<path opacity="0.42029" d="M407.205 868.808C403.999 878.21 406.788 888.617 414.265 895.157L610.631 1066.9C615.729 1071.36 622.447 1073.51 629.187 1072.84L973.412 1038.57C979.017 1038.01 984.258 1035.54 988.253 1031.57L1208.25 812.973C1214.48 806.784 1216.92 797.735 1214.65 789.253L1153.31 560.332C1151.04 551.85 1144.4 545.233 1135.91 542.987L836.087 463.676C830.641 462.236 824.866 462.716 819.733 465.035L504.492 607.471C498.32 610.26 493.577 615.48 491.391 621.891L407.205 868.808Z" fill="#1C1C1E" stroke="url(#paint29_linear_125_2172)"/>
<path opacity="0.434783" d="M385.789 846.812C382.134 856.002 384.363 866.488 391.44 873.397L576.475 1054.04C581.331 1058.78 587.937 1061.3 594.717 1060.98L935.977 1045.27C941.63 1045.01 947.018 1042.8 951.227 1039.02L1179.3 834.039C1185.82 828.182 1188.71 819.292 1186.89 810.723L1137.96 580.529C1136.14 571.959 1129.88 565.014 1121.55 562.315L829.817 467.826C824.434 466.082 818.613 466.256 813.343 468.317L495.193 592.763C488.872 595.235 483.861 600.219 481.352 606.525L385.789 846.812Z" fill="#1C1C1E" stroke="url(#paint30_linear_125_2172)"/>
<path opacity="0.449275" d="M365.587 825.123C361.496 834.079 363.165 844.614 369.823 851.867L543.14 1040.7C547.738 1045.71 554.212 1048.58 561.013 1048.63L898.322 1051.06C904.007 1051.1 909.529 1049.16 913.943 1045.58L1149.28 854.466C1156.07 848.956 1159.4 840.248 1158.04 831.614L1121.48 600.813C1120.11 592.18 1114.25 584.929 1106.09 581.785L823.215 472.749C817.91 470.704 812.059 470.568 806.665 472.364L486.616 578.907C480.163 581.055 474.894 585.789 472.068 591.975L365.587 825.123Z" fill="#1C1C1E" stroke="url(#paint31_linear_125_2172)"/>
<path opacity="0.463768" d="M346.567 803.806C342.055 812.507 343.165 823.06 349.386 830.634L510.642 1026.93C514.968 1032.19 521.291 1035.42 528.093 1035.83L860.496 1055.94C866.199 1056.29 871.842 1054.63 876.451 1051.26L1118.24 874.2C1125.27 869.048 1129.04 860.545 1128.13 851.872L1103.87 621.122C1102.96 612.449 1097.51 604.915 1089.56 601.338L816.244 478.422C811.034 476.079 805.169 475.63 799.663 477.153L478.706 565.938C472.138 567.755 466.623 572.225 463.487 578.275L346.567 803.806Z" fill="#1C1C1E" stroke="url(#paint32_linear_125_2172)"/>
<path opacity="0.478261" d="M328.693 782.924C323.777 791.351 324.33 801.891 330.1 809.758L478.995 1012.77C483.034 1018.28 489.187 1021.85 495.971 1022.62L822.553 1059.92C828.257 1060.57 834.008 1059.2 838.803 1056.04L1086.22 893.19C1093.48 888.407 1097.67 880.13 1097.21 871.443L1085.16 641.392C1084.7 632.705 1079.67 624.911 1071.95 620.914L808.866 484.818C803.768 482.18 797.905 481.416 792.3 482.66L471.406 553.886C464.74 555.366 458.993 559.561 455.552 565.459L328.693 782.924Z" fill="#1C1C1E" stroke="url(#paint33_linear_125_2172)"/>
<path opacity="0.492754" d="M311.93 762.537C306.626 770.67 306.626 781.169 311.93 789.302L448.21 998.284C451.948 1004.02 457.912 1007.92 464.66 1009.06L784.543 1062.98C790.232 1063.94 796.077 1062.86 801.048 1059.93L1053.28 911.387C1060.75 906.983 1065.34 898.953 1065.34 890.276L1065.34 661.563C1065.34 652.886 1060.75 644.855 1053.28 640.452L801.048 491.909C796.077 488.982 790.232 487.902 784.543 488.861L464.66 542.779C457.912 543.916 451.947 547.823 448.21 553.555L311.93 762.537Z" fill="#1C1C1E" stroke="url(#paint34_linear_125_2172)"/>
<path opacity="0.507246" d="M296.234 742.701C290.56 750.523 290.014 760.95 294.839 769.322L418.294 983.513C421.718 989.454 427.475 993.688 434.167 995.186L746.517 1065.13C752.176 1066.4 758.1 1065.62 763.237 1062.93L1019.47 928.746C1027.14 924.731 1032.12 916.968 1032.57 908.324L1044.46 681.575C1044.91 672.931 1040.77 664.69 1033.56 659.895L792.756 499.667C787.928 496.455 782.118 495.059 776.358 495.728L458.408 532.638C451.596 533.429 445.428 537.038 441.401 542.588L296.234 742.701Z" fill="#1C1C1E" stroke="url(#paint35_linear_125_2172)"/>
<path opacity="0.521739" d="M281.564 723.473C275.538 730.966 274.453 741.292 278.789 749.874L389.251 968.51C392.35 974.643 397.882 979.193 404.499 981.05L708.526 1066.38C714.138 1067.95 720.127 1067.48 725.418 1065.03L984.856 945.228C992.693 941.608 998.048 934.131 998.95 925.546L1022.51 701.37C1023.41 692.784 1019.73 684.358 1012.82 679.188L783.959 508.06C779.291 504.57 773.532 502.858 767.716 503.232L452.591 523.485C445.733 523.926 439.376 527.226 435.069 532.581L281.564 723.473Z" fill="#1C1C1E" stroke="url(#paint36_linear_125_2172)"/>
<path opacity="0.536232" d="M267.871 704.902C261.512 712.051 259.898 722.247 263.735 731.011L361.085 953.324C363.848 959.632 369.137 964.486 375.659 966.698L670.62 1066.73C676.168 1068.62 682.208 1068.45 687.642 1066.26L949.49 960.793C957.476 957.577 963.188 950.404 964.535 941.9L999.539 720.893C1000.89 712.389 997.67 703.802 991.069 698.275L774.627 517.056C770.135 513.295 764.444 511.268 758.585 511.343L447.148 515.336C440.262 515.424 433.731 518.406 429.154 523.552L267.871 704.902Z" fill="#1C1C1E" stroke="url(#paint37_linear_125_2172)"/>
<path opacity="0.550725" d="M255.106 687.036C248.436 693.826 246.302 703.864 249.634 712.781L333.795 938.003C336.21 944.468 341.241 949.614 347.649 952.177L632.847 1066.21C638.317 1068.39 644.391 1068.54 649.957 1066.61L913.435 975.409C921.549 972.601 927.6 965.75 929.386 957.351L975.566 740.089C977.351 731.69 974.609 722.97 968.339 717.104L764.735 526.622C760.434 522.598 754.826 520.258 748.941 520.031L442.019 508.203C435.122 507.937 428.434 510.592 423.597 515.515L255.106 687.036Z" fill="#1C1C1E" stroke="url(#paint38_linear_125_2172)"/>
<path opacity="0.565217" d="M243.219 669.92C236.258 676.337 233.617 686.192 236.437 695.23L307.376 922.598C309.436 929.2 314.191 934.625 320.467 937.532L595.256 1064.81C600.63 1067.3 606.724 1067.76 612.409 1066.1L876.752 989.046C884.972 986.65 891.345 980.137 893.561 971.866L950.623 758.907C952.839 750.637 950.577 741.81 944.656 735.625L754.256 536.722C750.161 532.444 744.654 529.794 738.756 529.262L437.142 502.095C430.253 501.474 423.423 503.794 418.338 508.483L243.219 669.92Z" fill="#1C1C1E" stroke="url(#paint39_linear_125_2172)"/>
<path opacity="0.57971" d="M232.156 653.595C224.925 659.627 221.791 669.271 224.096 678.402L281.823 907.154C283.519 913.876 287.983 919.564 294.109 922.809L557.894 1062.56C563.156 1065.35 569.254 1066.13 575.047 1064.74L839.506 1001.68C847.81 999.698 854.485 993.537 857.123 985.417L924.745 777.299C927.383 769.179 925.604 760.272 920.05 753.788L743.168 547.321C739.293 542.798 733.904 539.842 728.008 539.004L432.456 497.018C425.593 496.043 418.639 498.021 413.316 502.462L232.156 653.595Z" fill="#1C1C1E" stroke="url(#paint40_linear_125_2172)"/>
<path opacity="0.594203" d="M221.861 638.098C214.382 643.735 210.771 653.143 212.557 662.337L257.127 891.72C258.452 898.54 262.611 904.477 268.567 908.053L520.805 1059.48C525.94 1062.56 532.026 1063.66 537.914 1062.56L801.759 1013.28C810.127 1011.72 817.083 1005.93 820.134 997.979L897.967 795.216C901.018 787.269 899.725 778.309 894.552 771.548L731.449 558.381C727.81 553.625 722.554 550.366 716.676 549.221L427.901 492.974C421.082 491.646 414.019 493.275 408.471 497.457L221.861 638.098Z" fill="#1C1C1E" stroke="url(#paint41_linear_125_2172)"/>
<path opacity="0.608696" d="M212.278 623.465C204.573 628.696 200.5 637.844 201.768 647.07L233.278 876.342C234.226 883.24 238.064 889.409 243.834 893.307L484.036 1055.59C489.027 1058.96 495.086 1060.38 501.054 1059.56L763.578 1023.84C771.986 1022.7 779.204 1017.28 782.656 1009.53L870.328 812.616C873.78 804.863 872.974 795.876 868.197 788.861L719.081 569.866C715.691 564.887 710.585 561.332 704.74 559.879L423.415 489.961C416.658 488.282 409.505 489.557 403.744 493.469L212.278 623.465Z" fill="#1C1C1E" stroke="url(#paint42_linear_125_2172)"/>
<path opacity="0.623188" d="M203.347 609.724C195.439 614.542 190.923 623.406 191.674 632.635L210.26 861.063C210.826 868.019 214.332 874.404 219.898 878.615L447.628 1050.91C452.46 1054.56 458.475 1056.3 464.512 1055.78L725.026 1033.34C733.455 1032.62 740.913 1027.59 744.754 1020.05L841.869 829.456C845.709 821.918 845.389 812.932 841.022 805.686L706.048 581.737C702.92 576.548 697.98 572.702 692.182 570.941L418.939 487.975C412.261 485.947 405.035 486.864 399.075 490.494L203.347 609.724Z" fill="#1C1C1E" stroke="url(#paint43_linear_125_2172)"/>
<path opacity="0.637681" d="M195.01 596.903C186.922 601.299 181.981 609.858 182.218 619.06L188.06 845.928C188.24 852.921 191.4 859.503 196.745 864.016L411.622 1045.46C416.28 1049.4 422.236 1051.45 428.327 1051.23L686.172 1041.77C694.599 1041.46 702.275 1036.84 706.491 1029.54L812.631 845.698C816.848 838.395 817.012 829.437 813.066 821.984L692.334 593.956C689.482 588.568 684.724 584.438 678.99 582.371L414.412 487.006C407.831 484.634 400.551 485.188 394.405 488.528L195.01 596.903Z" fill="#1C1C1E" stroke="url(#paint44_linear_125_2172)"/>
<path opacity="0.652174" d="M187.206 585.025C178.961 588.993 173.615 597.225 173.343 606.371L166.657 830.979C166.448 837.987 169.252 844.749 174.359 849.553L376.059 1039.29C380.527 1043.49 386.407 1045.86 392.54 1045.94L647.079 1049.13C655.483 1049.23 663.355 1045.02 667.933 1037.97L782.66 861.307C787.238 854.258 787.882 845.354 784.368 837.719L677.929 606.481C675.364 600.91 670.804 596.504 665.148 594.132L409.777 487.042C403.311 484.331 395.993 484.519 389.676 487.561L187.206 585.025Z" fill="#1C1C1E" stroke="url(#paint45_linear_125_2172)"/>
<path opacity="0.666667" d="M179.872 574.107C171.495 577.644 165.765 585.53 164.991 594.59L146.032 816.256C145.433 823.258 147.87 830.181 152.724 835.264L340.976 1032.41C345.238 1036.87 351.028 1039.56 357.187 1039.94L607.814 1055.4C616.174 1055.92 624.219 1052.13 629.143 1045.35L752.001 876.25C756.925 869.473 758.045 860.651 754.971 852.858L662.821 619.276C660.556 613.535 656.208 608.86 650.646 606.186L404.976 488.069C398.642 485.024 391.305 484.845 384.831 487.578L179.872 574.107Z" fill="#1C1C1E" stroke="url(#paint46_linear_125_2172)"/>
<path opacity="0.681159" d="M172.949 564.166C164.462 567.268 158.371 574.79 157.102 583.736L126.163 801.799C125.173 808.774 127.234 815.837 131.819 821.185L306.409 1024.86C310.451 1029.58 316.133 1032.58 322.306 1033.27L568.441 1060.6C576.737 1061.52 584.932 1058.16 590.185 1051.67L720.702 890.497C725.955 884.01 727.544 875.294 724.917 867.371L647.003 632.298C645.049 626.403 640.929 621.47 635.476 618.496L399.953 490.068C393.768 486.695 386.43 486.148 379.814 488.566L172.949 564.166Z" fill="#1C1C1E" stroke="url(#paint47_linear_125_2172)"/>
<path opacity="0.695652" d="M166.373 555.213C157.8 557.878 151.371 565.018 149.617 573.823L107.025 787.644C105.645 794.569 107.321 801.753 111.622 807.354L272.391 1016.67C276.199 1021.63 281.757 1024.95 287.929 1025.94L529.025 1064.73C537.237 1066.05 545.558 1063.12 551.124 1056.94L688.81 904.022C694.375 897.841 696.425 889.258 694.252 881.229L630.47 645.509C628.837 639.475 624.959 634.293 619.631 631.025L394.653 493.016C388.633 489.324 381.314 488.408 374.57 490.504L166.373 555.213Z" fill="#1C1C1E" stroke="url(#paint48_linear_125_2172)"/>
<path opacity="0.710145" d="M160.083 547.255C151.447 549.482 144.703 556.226 142.476 564.862L88.5915 773.827C86.824 780.682 88.1076 787.966 92.1115 793.803L238.954 1007.89C242.513 1013.07 247.933 1016.7 254.09 1018L489.63 1067.8C497.738 1069.52 506.162 1067.01 512.022 1061.15L656.376 916.801C662.235 910.942 664.736 902.517 663.022 894.409L613.218 658.869C611.917 652.712 608.296 647.293 603.106 643.733L389.024 496.891C383.186 492.887 375.902 491.603 369.048 493.371L160.083 547.255Z" fill="#1C1C1E" stroke="url(#paint49_linear_125_2172)"/>
<path opacity="0.724638" d="M154.016 540.297C145.34 542.086 138.307 548.419 135.62 556.86L70.8353 760.382C68.6829 767.144 69.5679 774.507 73.2613 780.566L206.127 998.534C209.424 1003.94 214.689 1007.87 220.816 1009.48L450.317 1069.82C458.301 1071.92 466.806 1069.86 472.941 1064.33L623.449 928.815C629.584 923.291 632.524 915.048 631.271 906.889L595.247 672.337C594.285 666.075 590.935 660.429 585.9 656.584L383.014 501.663C377.374 497.356 370.144 495.707 363.195 497.141L154.016 540.297Z" fill="#1C1C1E" stroke="url(#paint50_linear_125_2172)"/>
<path opacity="0.73913" d="M148.111 534.337C139.419 535.692 132.121 541.602 128.989 549.821L53.7268 747.341C51.1939 753.988 51.6752 761.408 55.0455 767.672L173.937 988.656C176.959 994.274 182.054 998.492 188.138 1000.41L411.148 1070.81C418.99 1073.28 427.551 1071.66 433.942 1066.48L590.08 940.046C596.471 934.871 599.839 926.835 599.048 918.65L576.557 685.876C575.944 679.526 572.877 673.666 568.011 669.541L376.575 507.303C371.148 502.704 363.99 500.69 356.962 501.786L148.111 534.337Z" fill="#1C1C1E" stroke="url(#paint51_linear_125_2172)"/>
<path opacity="0.753623" d="M142.307 529.373C133.622 530.296 126.086 535.772 122.524 543.746L37.2352 734.732C34.3274 741.243 34.4009 748.699 37.4365 755.151L142.409 978.293C145.144 984.107 150.053 988.613 156.078 990.842L372.183 1070.78C379.865 1073.62 388.458 1072.44 395.084 1067.63L556.321 950.481C562.947 945.667 566.729 937.86 566.4 929.676L557.152 699.445C556.894 693.026 554.125 686.964 549.441 682.567L369.659 513.778C364.46 508.897 357.393 506.523 350.301 507.276L142.307 529.373Z" fill="#1C1C1E" stroke="url(#paint52_linear_125_2172)"/>
<path opacity="0.768116" d="M136.544 525.398C127.889 525.893 120.14 530.925 116.167 538.631L21.3284 722.584C18.0524 728.938 17.7152 736.406 20.4053 743.03L111.565 967.485C114 973.481 118.708 978.269 124.662 980.806L333.479 1069.77C340.983 1072.97 349.585 1072.22 356.426 1067.78L522.222 960.108C529.063 955.666 533.244 948.111 533.376 939.956L537.036 713.006C537.141 706.536 534.681 700.287 530.194 695.624L362.222 521.051C357.265 515.9 350.306 513.17 343.168 513.579L136.544 525.398Z" fill="#1C1C1E" stroke="url(#paint53_linear_125_2172)"/>
<path opacity="0.782609" d="M130.764 522.399C122.16 522.472 114.225 527.054 109.86 534.468L5.97289 710.921C2.33666 717.097 1.58717 724.556 3.92187 731.332L81.4249 956.275C83.5485 962.438 88.041 967.501 93.908 970.343L295.092 1067.79C302.401 1071.34 310.99 1071.02 318.023 1066.96L487.836 968.921C494.869 964.861 499.433 957.579 500.022 949.479L516.218 726.522C516.69 720.02 514.552 713.598 510.276 708.677L354.222 529.086C349.521 523.676 342.687 520.596 335.52 520.657L130.764 522.399Z" fill="#1C1C1E" stroke="url(#paint54_linear_125_2172)"/>
<path opacity="0.797101" d="M124.908 520.364C116.377 520.023 108.283 524.147 103.546 531.249L-8.86527 699.767C-12.8526 705.745 -14.0149 713.171 -12.0446 720.081L52.0064 944.704C53.8076 951.021 58.0697 956.349 63.8363 959.495L257.077 1064.89C264.175 1068.76 272.726 1068.88 279.93 1065.21L453.214 976.916C460.418 973.245 465.347 966.257 466.387 958.239L494.706 739.955C495.551 733.441 493.746 726.861 489.694 721.691L345.619 537.843C341.187 532.187 334.495 528.762 327.316 528.475L124.908 520.364Z" fill="#1C1C1E" stroke="url(#paint55_linear_125_2172)"/>
<path opacity="0.811594" d="M118.92 519.275C110.483 518.527 102.258 522.189 97.1692 528.96L-23.2217 689.143C-27.5498 694.902 -29.1242 702.273 -27.5262 709.298L23.3238 932.817C24.7921 939.271 28.8096 944.857 34.4617 948.302L219.483 1061.08C226.356 1065.27 234.847 1065.82 242.2 1062.54L418.405 984.091C425.758 980.818 431.034 974.142 432.519 966.231L472.512 753.27C473.734 746.764 472.271 740.041 468.457 734.631L336.375 547.278C332.224 541.391 325.693 537.628 318.517 536.991L118.92 519.275Z" fill="#1C1C1E" stroke="url(#paint56_linear_125_2172)"/>
<path opacity="0.826087" d="M112.747 519.111C104.424 517.965 96.0944 521.162 90.6769 527.583L-37.132 679.067C-41.7894 684.587 -43.7739 691.881 -42.5553 699L-4.61039 920.658C-3.48466 927.234 0.274229 933.066 5.798 936.808L182.362 1056.41C188.994 1060.9 197.404 1061.87 204.882 1059L383.462 990.448C390.94 987.578 396.543 981.232 398.466 973.456L449.649 766.43C451.25 759.953 450.141 753.103 446.577 747.463L326.458 557.349C322.6 551.243 316.244 547.151 309.09 546.165L112.747 519.111Z" fill="#1C1C1E" stroke="url(#paint57_linear_125_2172)"/>
<path opacity="0.84058" d="M106.334 519.849C98.1454 518.314 89.7385 521.046 84.016 527.1L-50.633 669.555C-55.6071 674.818 -57.9985 682.011 -57.1652 689.204L-31.7866 908.271C-31.0126 914.952 -27.526 921.021 -22.1443 925.055L145.759 1050.91C152.137 1055.7 160.443 1057.07 168.024 1054.61L348.432 995.993C356.014 993.529 361.923 987.532 364.273 979.914L426.131 779.401C428.114 772.974 427.367 766.015 424.066 760.155L315.834 568.009C312.28 561.7 306.117 557.286 299 555.953L106.334 519.849Z" fill="#1C1C1E" stroke="url(#paint58_linear_125_2172)"/>
<path opacity="0.855072" d="M99.6309 521.46C91.596 519.55 83.139 521.816 77.136 527.488L-63.7617 660.622C-69.0387 665.608 -71.8325 672.678 -71.3895 679.925L-58.1977 895.7C-57.7839 902.469 -54.5828 908.764 -49.3567 913.086L109.717 1044.63C115.83 1049.69 124.011 1051.47 131.672 1049.42L313.366 1000.73C321.027 998.679 327.221 993.045 329.987 985.611L401.976 792.151C404.341 785.796 403.965 778.744 400.939 772.675L304.476 579.212C301.237 572.715 295.282 567.989 288.219 566.309L99.6309 521.46Z" fill="#1C1C1E" stroke="url(#paint59_linear_125_2172)"/>
<path opacity="0.869565" d="M92.5897 523.917C84.7263 521.642 76.2463 523.445 69.988 528.721L-76.5553 652.279C-82.1205 656.971 -85.311 663.895 -85.2621 671.174L-83.8391 882.991C-83.7932 889.83 -80.8906 896.339 -75.8333 900.943L74.2793 1037.61C80.1136 1042.92 88.149 1045.1 95.8667 1043.46L278.31 1004.68C286.028 1003.04 292.483 997.78 295.653 990.554L377.2 804.648C379.948 798.385 379.952 791.258 377.212 784.992L292.359 590.909C289.443 584.239 283.712 579.211 276.719 577.188L92.5897 523.917Z" fill="#1C1C1E" stroke="url(#paint60_linear_125_2172)"/>
<path opacity="0.884058" d="M85.1639 527.186C77.4895 524.56 69.0129 525.903 62.5255 530.772L-89.0516 644.535C-94.8889 648.916 -98.4691 655.672 -98.8171 662.962L-108.709 870.189C-109.038 877.08 -106.446 883.79 -101.571 888.671L39.4823 1029.89C45.0281 1035.44 52.8981 1038 60.6491 1036.77L243.311 1007.84C251.062 1006.61 257.756 1001.75 261.315 994.753L351.826 816.86C354.954 810.711 355.345 803.529 352.903 797.077L279.459 603.049C276.875 596.223 271.383 590.905 264.477 588.542L85.1639 527.186Z" fill="#1C1C1E" stroke="url(#paint61_linear_125_2172)"/>
<path opacity="0.898551" d="M77.3094 531.234C69.8405 528.271 61.3935 529.159 54.7038 533.609L-101.288 637.398C-107.381 641.452 -111.342 648.017 -112.089 655.297L-132.808 857.338C-133.518 864.262 -131.249 871.161 -126.569 876.312L5.36131 1021.52C10.6091 1027.29 18.2944 1030.22 26.0554 1029.41L208.414 1010.24C216.175 1009.43 223.083 1004.96 227.016 998.221L325.873 828.759C329.38 822.747 330.164 815.527 328.03 808.902L265.757 615.583C263.514 608.618 258.274 603.02 251.472 600.322L77.3094 531.234Z" fill="#1C1C1E" stroke="url(#paint62_linear_125_2172)"/>
<path opacity="0.913043" d="M68.9852 536.021C61.7374 532.737 53.3458 533.176 46.4811 537.201L-113.302 630.872C-119.632 634.583 -123.966 640.935 -125.111 648.183L-156.138 844.481C-157.235 851.419 -155.301 858.494 -150.828 863.909L-28.0518 1012.55C-23.1107 1018.53 -15.6283 1021.82 -7.88033 1021.41L173.662 1011.89C181.41 1011.49 188.508 1007.44 192.797 1000.97L299.364 840.316C303.246 834.462 304.43 827.224 302.614 820.439L251.238 628.459C249.342 621.371 244.368 615.507 237.685 612.478L68.9852 536.021Z" fill="#1C1C1E" stroke="url(#paint63_linear_125_2172)"/>
<path opacity="0.927536" d="M60.1527 541.511C53.1407 537.92 44.8295 537.92 37.8174 541.511L-125.132 624.96C-131.68 628.314 -136.375 634.432 -137.919 641.625L-178.707 831.664C-180.194 838.596 -178.607 845.833 -174.353 851.505L-60.7283 1003.02C-56.1014 1009.19 -48.8395 1012.82 -41.1275 1012.82L139.098 1012.82C146.81 1012.82 154.072 1009.19 158.699 1003.02L272.323 851.505C276.577 845.833 278.165 838.596 276.677 831.664L235.889 641.625C234.345 634.432 229.65 628.314 223.102 624.96L60.1527 541.511Z" fill="#1C1C1E" stroke="url(#paint64_linear_125_2172)"/>
<path opacity="0.942029" d="M50.7762 547.661C44.0134 543.78 35.8072 543.35 28.6759 546.502L-136.813 619.662C-143.56 622.645 -148.604 628.509 -150.544 635.626L-200.521 818.93C-202.404 825.836 -201.172 833.219 -197.15 839.14L-92.6433 993C-88.3371 999.34 -81.3122 1003.3 -73.6587 1003.7L104.76 1013.05C112.414 1013.45 119.814 1010.25 124.759 1004.39L244.776 862.301C249.395 856.833 251.391 849.618 250.241 842.553L219.699 655.029C218.513 647.748 214.109 641.389 207.711 637.718L50.7762 547.661Z" fill="#1C1C1E" stroke="url(#paint65_linear_125_2172)"/>
<path opacity="0.956522" d="M40.8229 554.428C34.322 550.274 26.2444 549.425 19.0219 552.137L-148.383 614.976C-155.308 617.576 -160.687 623.164 -163.021 630.183L-221.591 806.32C-223.872 813.179 -223.007 820.695 -219.229 826.858L-123.775 982.53C-119.795 989.021 -113.022 993.293 -105.45 994.089L70.6873 1012.6C78.26 1013.4 85.7724 1010.63 91.0154 1005.11L216.749 872.681C221.726 867.439 224.135 860.267 223.33 853.083L202.661 668.618C201.838 661.267 197.738 654.682 191.505 650.7L40.8229 554.428Z" fill="#1C1C1E" stroke="url(#paint66_linear_125_2172)"/>
<path opacity="0.971014" d="M30.263 561.768C24.0353 557.359 16.1092 556.104 8.82399 558.372L-159.878 610.899C-166.959 613.104 -172.66 618.397 -175.383 625.296L-241.93 793.877C-244.611 800.668 -244.123 808.302 -240.599 814.697L-154.104 971.667C-150.454 978.291 -143.949 982.858 -136.479 984.041L36.9154 1011.5C44.3856 1012.69 51.9836 1010.35 57.502 1005.18L188.27 882.623C193.597 877.63 196.42 870.521 195.969 863.233L184.774 682.339C184.316 674.937 180.529 668.14 174.476 663.855L30.263 561.768Z" fill="#1C1C1E" stroke="url(#paint67_linear_125_2172)"/>
<path opacity="0.985507" d="M19.07 569.635C13.1259 564.99 5.37314 563.342 -1.94651 565.168L-171.331 607.424C-178.546 609.224 -184.554 614.203 -187.66 620.959L-261.552 781.641C-264.634 788.344 -264.532 796.078 -261.274 802.697L-183.617 960.465C-180.3 967.203 -174.076 972.048 -166.729 973.609L3.47842 1009.79C10.8248 1011.35 18.4816 1009.46 24.2524 1004.65L159.366 892.107C165.034 887.385 168.273 880.361 168.184 872.984L166.036 696.14C165.945 688.704 162.483 681.712 156.624 677.133L19.07 569.635Z" fill="#1C1C1E" stroke="url(#paint68_linear_125_2172)"/>
<path d="M7.22011 577.982C1.56872 573.118 -5.98978 571.093 -13.3157 572.479L-182.78 604.543C-190.106 605.929 -196.402 610.576 -199.886 617.168L-280.476 769.652C-283.96 776.244 -284.252 784.064 -281.271 790.897L-212.301 948.978C-209.319 955.811 -203.388 960.916 -196.186 962.845L-29.5925 1007.48C-22.3906 1009.41 -14.7019 1007.96 -8.70284 1003.53L130.067 901.115C136.066 896.687 139.722 889.769 140.001 882.318L146.45 709.968C146.729 702.518 143.599 695.345 137.948 690.482L7.22011 577.982Z" fill="#1C1C1E" stroke="url(#paint69_linear_125_2172)"/>
</g>
</g>
<g filter="url(#filter1_f_125_2172)">
<ellipse cx="128.222" cy="436.39" rx="152.222" ry="113.016" fill="#41E88D" fill-opacity="0.6"/>
</g>
<defs>
<filter id="filter0_f_125_2172" x="-290" y="571" width="1728" height="1201" filterUnits="userSpaceOnUse" color-interpolation-filters="sRGB">
<feFlood flood-opacity="0" result="BackgroundImageFix"/>
<feBlend mode="normal" in="SourceGraphic" in2="BackgroundImageFix" result="shape"/>
<feGaussianBlur stdDeviation="50" result="effect1_foregroundBlur_125_2172"/>
</filter>
<filter id="filter1_f_125_2172" x="-524" y="-176.626" width="1304.44" height="1226.03" filterUnits="userSpaceOnUse" color-interpolation-filters="sRGB">
<feFlood flood-opacity="0" result="BackgroundImageFix"/>
<feBlend mode="normal" in="SourceGraphic" in2="BackgroundImageFix" result="shape"/>
<feGaussianBlur stdDeviation="250" result="effect1_foregroundBlur_125_2172"/>
</filter>
<linearGradient id="paint0_linear_125_2172" x1="800.444" y1="1.6105e-07" x2="804.126" y2="912.593" gradientUnits="userSpaceOnUse">
<stop stop-opacity="0.03"/>
<stop offset="0.530833" stop-opacity="0"/>
<stop offset="1" stop-opacity="0"/>
</linearGradient>
<linearGradient id="paint1_linear_125_2172" x1="1513.36" y1="1323.55" x2="1329.47" y2="162.538" gradientUnits="userSpaceOnUse">
<stop stop-color="#31E085"/>
<stop offset="1" stop-color="#22E1ED"/>
</linearGradient>
<linearGradient id="paint2_linear_125_2172" x1="1461.59" y1="1322.81" x2="1339.81" y2="164.082" gradientUnits="userSpaceOnUse">
<stop stop-color="#31E085"/>
<stop offset="1" stop-color="#22E1ED"/>
</linearGradient>
<linearGradient id="paint3_linear_125_2172" x1="1410.19" y1="1320.49" x2="1349.75" y2="167.331" gradientUnits="userSpaceOnUse">
<stop stop-color="#31E085"/>
<stop offset="1" stop-color="#22E1ED"/>
</linearGradient>
<linearGradient id="paint4_linear_125_2172" x1="1359.23" y1="1316.61" x2="1359.23" y2="172.246" gradientUnits="userSpaceOnUse">
<stop stop-color="#31E085"/>
<stop offset="1" stop-color="#22E1ED"/>
</linearGradient>
<linearGradient id="paint5_linear_125_2172" x1="1308.79" y1="1311.22" x2="1368.14" y2="178.787" gradientUnits="userSpaceOnUse">
<stop stop-color="#31E085"/>
<stop offset="1" stop-color="#22E1ED"/>
</linearGradient>
<linearGradient id="paint6_linear_125_2172" x1="1258.95" y1="1304.36" x2="1376.4" y2="186.906" gradientUnits="userSpaceOnUse">
<stop stop-color="#31E085"/>
<stop offset="1" stop-color="#22E1ED"/>
</linearGradient>
<linearGradient id="paint7_linear_125_2172" x1="1209.79" y1="1296.08" x2="1383.94" y2="196.553" gradientUnits="userSpaceOnUse">
<stop stop-color="#31E085"/>
<stop offset="1" stop-color="#22E1ED"/>
</linearGradient>
<linearGradient id="paint8_linear_125_2172" x1="1161.33" y1="1286.54" x2="1390.63" y2="207.782" gradientUnits="userSpaceOnUse">
<stop stop-color="#31E085"/>
<stop offset="1" stop-color="#22E1ED"/>
</linearGradient>
<linearGradient id="paint9_linear_125_2172" x1="1113.77" y1="1275.47" x2="1396.53" y2="220.209" gradientUnits="userSpaceOnUse">
<stop stop-color="#31E085"/>
<stop offset="1" stop-color="#22E1ED"/>
</linearGradient>
<linearGradient id="paint10_linear_125_2172" x1="1067.05" y1="1263.25" x2="1401.44" y2="234.097" gradientUnits="userSpaceOnUse">
<stop stop-color="#31E085"/>
<stop offset="1" stop-color="#22E1ED"/>
</linearGradient>
<linearGradient id="paint11_linear_125_2172" x1="1021.27" y1="1249.83" x2="1405.34" y2="249.273" gradientUnits="userSpaceOnUse">
<stop stop-color="#31E085"/>
<stop offset="1" stop-color="#22E1ED"/>
</linearGradient>
<linearGradient id="paint12_linear_125_2172" x1="976.482" y1="1235.27" x2="1408.18" y2="265.667" gradientUnits="userSpaceOnUse">
<stop stop-color="#31E085"/>
<stop offset="1" stop-color="#22E1ED"/>
</linearGradient>
<linearGradient id="paint13_linear_125_2172" x1="932.744" y1="1219.65" x2="1409.88" y2="283.21" gradientUnits="userSpaceOnUse">
<stop stop-color="#31E085"/>
<stop offset="1" stop-color="#22E1ED"/>
</linearGradient>
<linearGradient id="paint14_linear_125_2172" x1="890.103" y1="1203.02" x2="1410.41" y2="301.827" gradientUnits="userSpaceOnUse">
<stop stop-color="#31E085"/>
<stop offset="1" stop-color="#22E1ED"/>
</linearGradient>
<linearGradient id="paint15_linear_125_2172" x1="848.602" y1="1185.47" x2="1409.71" y2="321.443" gradientUnits="userSpaceOnUse">
<stop stop-color="#31E085"/>
<stop offset="1" stop-color="#22E1ED"/>
</linearGradient>
<linearGradient id="paint16_linear_125_2172" x1="808.282" y1="1167.06" x2="1407.74" y2="341.979" gradientUnits="userSpaceOnUse">
<stop stop-color="#31E085"/>
<stop offset="1" stop-color="#22E1ED"/>
</linearGradient>
<linearGradient id="paint17_linear_125_2172" x1="769.176" y1="1147.87" x2="1404.47" y2="363.356" gradientUnits="userSpaceOnUse">
<stop stop-color="#31E085"/>
<stop offset="1" stop-color="#22E1ED"/>
</linearGradient>
<linearGradient id="paint18_linear_125_2172" x1="731.317" y1="1127.98" x2="1399.85" y2="385.493" gradientUnits="userSpaceOnUse">
<stop stop-color="#31E085"/>
<stop offset="1" stop-color="#22E1ED"/>
</linearGradient>
<linearGradient id="paint19_linear_125_2172" x1="694.73" y1="1107.45" x2="1393.87" y2="408.307" gradientUnits="userSpaceOnUse">
<stop stop-color="#31E085"/>
<stop offset="1" stop-color="#22E1ED"/>
</linearGradient>
<linearGradient id="paint20_linear_125_2172" x1="659.436" y1="1086.37" x2="1386.5" y2="431.717" gradientUnits="userSpaceOnUse">
<stop stop-color="#31E085"/>
<stop offset="1" stop-color="#22E1ED"/>
</linearGradient>
<linearGradient id="paint21_linear_125_2172" x1="625.453" y1="1064.81" x2="1377.72" y2="455.638" gradientUnits="userSpaceOnUse">
<stop stop-color="#31E085"/>
<stop offset="1" stop-color="#22E1ED"/>
</linearGradient>
<linearGradient id="paint22_linear_125_2172" x1="592.793" y1="1042.86" x2="1367.52" y2="479.987" gradientUnits="userSpaceOnUse">
<stop stop-color="#31E085"/>
<stop offset="1" stop-color="#22E1ED"/>
</linearGradient>
<linearGradient id="paint23_linear_125_2172" x1="561.464" y1="1020.58" x2="1355.88" y2="504.681" gradientUnits="userSpaceOnUse">
<stop stop-color="#31E085"/>
<stop offset="1" stop-color="#22E1ED"/>
</linearGradient>
<linearGradient id="paint24_linear_125_2172" x1="531.469" y1="998.066" x2="1342.82" y2="529.635" gradientUnits="userSpaceOnUse">
<stop stop-color="#31E085"/>
<stop offset="1" stop-color="#22E1ED"/>
</linearGradient>
<linearGradient id="paint25_linear_125_2172" x1="502.808" y1="975.383" x2="1328.31" y2="554.766" gradientUnits="userSpaceOnUse">
<stop stop-color="#31E085"/>
<stop offset="1" stop-color="#22E1ED"/>
</linearGradient>
<linearGradient id="paint26_linear_125_2172" x1="475.474" y1="952.611" x2="1312.38" y2="579.994" gradientUnits="userSpaceOnUse">
<stop stop-color="#31E085"/>
<stop offset="1" stop-color="#22E1ED"/>
</linearGradient>
<linearGradient id="paint27_linear_125_2172" x1="449.459" y1="929.824" x2="1295.04" y2="605.237" gradientUnits="userSpaceOnUse">
<stop stop-color="#31E085"/>
<stop offset="1" stop-color="#22E1ED"/>
</linearGradient>
<linearGradient id="paint28_linear_125_2172" x1="424.749" y1="907.098" x2="1276.29" y2="630.416" gradientUnits="userSpaceOnUse">
<stop stop-color="#31E085"/>
<stop offset="1" stop-color="#22E1ED"/>
</linearGradient>
<linearGradient id="paint29_linear_125_2172" x1="401.325" y1="884.504" x2="1256.16" y2="655.452" gradientUnits="userSpaceOnUse">
<stop stop-color="#31E085"/>
<stop offset="1" stop-color="#22E1ED"/>
</linearGradient>
<linearGradient id="paint30_linear_125_2172" x1="379.166" y1="862.113" x2="1234.67" y2="680.271" gradientUnits="userSpaceOnUse">
<stop stop-color="#31E085"/>
<stop offset="1" stop-color="#22E1ED"/>
</linearGradient>
<linearGradient id="paint31_linear_125_2172" x1="358.246" y1="839.993" x2="1211.84" y2="704.797" gradientUnits="userSpaceOnUse">
<stop stop-color="#31E085"/>
<stop offset="1" stop-color="#22E1ED"/>
</linearGradient>
<linearGradient id="paint32_linear_125_2172" x1="338.535" y1="818.212" x2="1187.72" y2="728.959" gradientUnits="userSpaceOnUse">
<stop stop-color="#31E085"/>
<stop offset="1" stop-color="#22E1ED"/>
</linearGradient>
<linearGradient id="paint33_linear_125_2172" x1="320" y1="796.833" x2="1162.33" y2="752.689" gradientUnits="userSpaceOnUse">
<stop stop-color="#31E085"/>
<stop offset="1" stop-color="#22E1ED"/>
</linearGradient>
<linearGradient id="paint34_linear_125_2172" x1="302.606" y1="775.919" x2="1135.72" y2="775.919" gradientUnits="userSpaceOnUse">
<stop stop-color="#31E085"/>
<stop offset="1" stop-color="#22E1ED"/>
</linearGradient>
<linearGradient id="paint35_linear_125_2172" x1="286.312" y1="755.528" x2="1107.92" y2="798.587" gradientUnits="userSpaceOnUse">
<stop stop-color="#31E085"/>
<stop offset="1" stop-color="#22E1ED"/>
</linearGradient>
<linearGradient id="paint36_linear_125_2172" x1="271.076" y1="735.717" x2="1078.99" y2="820.632" gradientUnits="userSpaceOnUse">
<stop stop-color="#31E085"/>
<stop offset="1" stop-color="#22E1ED"/>
</linearGradient>
<linearGradient id="paint37_linear_125_2172" x1="256.852" y1="716.538" x2="1048.97" y2="841.997" gradientUnits="userSpaceOnUse">
<stop stop-color="#31E085"/>
<stop offset="1" stop-color="#22E1ED"/>
</linearGradient>
<linearGradient id="paint38_linear_125_2172" x1="243.593" y1="698.042" x2="1017.91" y2="862.628" gradientUnits="userSpaceOnUse">
<stop stop-color="#31E085"/>
<stop offset="1" stop-color="#22E1ED"/>
</linearGradient>
<linearGradient id="paint39_linear_125_2172" x1="231.248" y1="680.276" x2="985.865" y2="882.475" gradientUnits="userSpaceOnUse">
<stop stop-color="#31E085"/>
<stop offset="1" stop-color="#22E1ED"/>
</linearGradient>
<linearGradient id="paint40_linear_125_2172" x1="219.764" y1="663.282" x2="952.898" y2="901.491" gradientUnits="userSpaceOnUse">
<stop stop-color="#31E085"/>
<stop offset="1" stop-color="#22E1ED"/>
</linearGradient>
<linearGradient id="paint41_linear_125_2172" x1="209.087" y1="647.1" x2="919.063" y2="919.634" gradientUnits="userSpaceOnUse">
<stop stop-color="#31E085"/>
<stop offset="1" stop-color="#22E1ED"/>
</linearGradient>
<linearGradient id="paint42_linear_125_2172" x1="199.16" y1="631.767" x2="884.422" y2="936.865" gradientUnits="userSpaceOnUse">
<stop stop-color="#31E085"/>
<stop offset="1" stop-color="#22E1ED"/>
</linearGradient>
<linearGradient id="paint43_linear_125_2172" x1="189.926" y1="617.315" x2="849.037" y2="953.149" gradientUnits="userSpaceOnUse">
<stop stop-color="#31E085"/>
<stop offset="1" stop-color="#22E1ED"/>
</linearGradient>
<linearGradient id="paint44_linear_125_2172" x1="181.324" y1="603.773" x2="812.971" y2="968.454" gradientUnits="userSpaceOnUse">
<stop stop-color="#31E085"/>
<stop offset="1" stop-color="#22E1ED"/>
</linearGradient>
<linearGradient id="paint45_linear_125_2172" x1="173.295" y1="591.166" x2="776.289" y2="982.754" gradientUnits="userSpaceOnUse">
<stop stop-color="#31E085"/>
<stop offset="1" stop-color="#22E1ED"/>
</linearGradient>
<linearGradient id="paint46_linear_125_2172" x1="165.778" y1="579.515" x2="739.058" y2="996.027" gradientUnits="userSpaceOnUse">
<stop stop-color="#31E085"/>
<stop offset="1" stop-color="#22E1ED"/>
</linearGradient>
<linearGradient id="paint47_linear_125_2172" x1="158.71" y1="568.838" x2="701.343" y2="1008.25" gradientUnits="userSpaceOnUse">
<stop stop-color="#31E085"/>
<stop offset="1" stop-color="#22E1ED"/>
</linearGradient>
<linearGradient id="paint48_linear_125_2172" x1="152.03" y1="559.148" x2="663.212" y2="1019.42" gradientUnits="userSpaceOnUse">
<stop stop-color="#31E085"/>
<stop offset="1" stop-color="#22E1ED"/>
</linearGradient>
<linearGradient id="paint49_linear_125_2172" x1="145.675" y1="550.454" x2="624.731" y2="1029.51" gradientUnits="userSpaceOnUse">
<stop stop-color="#31E085"/>
<stop offset="1" stop-color="#22E1ED"/>
</linearGradient>
<linearGradient id="paint50_linear_125_2172" x1="139.583" y1="542.764" x2="585.968" y2="1038.53" gradientUnits="userSpaceOnUse">
<stop stop-color="#31E085"/>
<stop offset="1" stop-color="#22E1ED"/>
</linearGradient>
<linearGradient id="paint51_linear_125_2172" x1="133.691" y1="536.079" x2="546.989" y2="1046.46" gradientUnits="userSpaceOnUse">
<stop stop-color="#31E085"/>
<stop offset="1" stop-color="#22E1ED"/>
</linearGradient>
<linearGradient id="paint52_linear_125_2172" x1="127.938" y1="530.397" x2="507.861" y2="1053.32" gradientUnits="userSpaceOnUse">
<stop stop-color="#31E085"/>
<stop offset="1" stop-color="#22E1ED"/>
</linearGradient>
<linearGradient id="paint53_linear_125_2172" x1="122.264" y1="525.714" x2="468.648" y2="1059.1" gradientUnits="userSpaceOnUse">
<stop stop-color="#31E085"/>
<stop offset="1" stop-color="#22E1ED"/>
</linearGradient>
<linearGradient id="paint54_linear_125_2172" x1="116.609" y1="522.02" x2="429.415" y2="1063.82" gradientUnits="userSpaceOnUse">
<stop stop-color="#31E085"/>
<stop offset="1" stop-color="#22E1ED"/>
</linearGradient>
<linearGradient id="paint55_linear_125_2172" x1="110.913" y1="519.303" x2="390.225" y2="1067.48" gradientUnits="userSpaceOnUse">
<stop stop-color="#31E085"/>
<stop offset="1" stop-color="#22E1ED"/>
</linearGradient>
<linearGradient id="paint56_linear_125_2172" x1="105.12" y1="517.549" x2="351.14" y2="1070.12" gradientUnits="userSpaceOnUse">
<stop stop-color="#31E085"/>
<stop offset="1" stop-color="#22E1ED"/>
</linearGradient>
<linearGradient id="paint57_linear_125_2172" x1="99.1741" y1="516.737" x2="312.219" y2="1071.74" gradientUnits="userSpaceOnUse">
<stop stop-color="#31E085"/>
<stop offset="1" stop-color="#22E1ED"/>
</linearGradient>
<linearGradient id="paint58_linear_125_2172" x1="93.0209" y1="516.845" x2="273.522" y2="1072.37" gradientUnits="userSpaceOnUse">
<stop stop-color="#31E085"/>
<stop offset="1" stop-color="#22E1ED"/>
</linearGradient>
<linearGradient id="paint59_linear_125_2172" x1="86.6084" y1="517.85" x2="235.103" y2="1072.04" gradientUnits="userSpaceOnUse">
<stop stop-color="#31E085"/>
<stop offset="1" stop-color="#22E1ED"/>
</linearGradient>
<linearGradient id="paint60_linear_125_2172" x1="79.8865" y1="519.721" x2="197.016" y2="1070.77" gradientUnits="userSpaceOnUse">
<stop stop-color="#31E085"/>
<stop offset="1" stop-color="#22E1ED"/>
</linearGradient>
<linearGradient id="paint61_linear_125_2172" x1="72.8074" y1="522.43" x2="159.314" y2="1068.61" gradientUnits="userSpaceOnUse">
<stop stop-color="#31E085"/>
<stop offset="1" stop-color="#22E1ED"/>
</linearGradient>
<linearGradient id="paint62_linear_125_2172" x1="65.3256" y1="525.942" x2="122.044" y2="1065.58" gradientUnits="userSpaceOnUse">
<stop stop-color="#31E085"/>
<stop offset="1" stop-color="#22E1ED"/>
</linearGradient>
<linearGradient id="paint63_linear_125_2172" x1="57.3982" y1="530.221" x2="85.2534" y2="1061.73" gradientUnits="userSpaceOnUse">
<stop stop-color="#31E085"/>
<stop offset="1" stop-color="#22E1ED"/>
</linearGradient>
<linearGradient id="paint64_linear_125_2172" x1="48.9851" y1="535.23" x2="48.9851" y2="1057.09" gradientUnits="userSpaceOnUse">
<stop stop-color="#31E085"/>
<stop offset="1" stop-color="#22E1ED"/>
</linearGradient>
<linearGradient id="paint65_linear_125_2172" x1="40.0485" y1="540.928" x2="13.2793" y2="1051.71" gradientUnits="userSpaceOnUse">
<stop stop-color="#31E085"/>
<stop offset="1" stop-color="#22E1ED"/>
</linearGradient>
<linearGradient id="paint66_linear_125_2172" x1="30.554" y1="547.274" x2="-21.8266" y2="1045.64" gradientUnits="userSpaceOnUse">
<stop stop-color="#31E085"/>
<stop offset="1" stop-color="#22E1ED"/>
</linearGradient>
<linearGradient id="paint67_linear_125_2172" x1="20.4696" y1="554.223" x2="-56.2987" y2="1038.92" gradientUnits="userSpaceOnUse">
<stop stop-color="#31E085"/>
<stop offset="1" stop-color="#22E1ED"/>
</linearGradient>
<linearGradient id="paint68_linear_125_2172" x1="9.76719" y1="561.73" x2="-90.1058" y2="1031.6" gradientUnits="userSpaceOnUse">
<stop stop-color="#31E085"/>
<stop offset="1" stop-color="#22E1ED"/>
</linearGradient>
<linearGradient id="paint69_linear_125_2172" x1="-1.57923" y1="569.749" x2="-123.221" y2="1023.72" gradientUnits="userSpaceOnUse">
<stop stop-color="#31E085"/>
<stop offset="1" stop-color="#22E1ED"/>
</linearGradient>
<clipPath id="clip0_125_2172">
<rect width="2156" height="940" fill="white" transform="translate(-89.5556 1)"/>
</clipPath>
</defs>
</svg>
