<svg width="32" height="32" viewBox="0 0 32 32" fill="none" xmlns="http://www.w3.org/2000/svg">
<path d="M9.33333 18.6664C8.75131 18.6673 8.17649 18.7952 7.64899 19.0411C7.12149 19.2871 6.65401 19.6452 6.27919 20.0904C5.90437 20.5357 5.63123 21.0574 5.47884 21.6191C5.32645 22.1808 5.29847 22.769 5.39687 23.3427C5.49526 23.9163 5.71766 24.4616 6.04853 24.9404C6.3794 25.4192 6.81078 25.8201 7.31256 26.115C7.81434 26.4099 8.37443 26.5917 8.95374 26.6478C9.53305 26.7039 10.1176 26.6329 10.6667 26.4398M5.68533 20.8064C4.88742 20.4223 4.19771 19.8455 3.67847 19.1282C3.15922 18.4108 2.82678 17.5754 2.71114 16.6974C2.59551 15.8194 2.70032 14.9265 3.01611 14.0991C3.33191 13.2718 3.84875 12.5361 4.52 11.9584M4.56 11.8504C4.12272 11.1961 3.93107 10.4082 4.01896 9.62609C4.10685 8.84402 4.46862 8.11826 5.04023 7.57731C5.61184 7.03636 6.35641 6.7151 7.14214 6.67041C7.92787 6.62571 8.70407 6.86047 9.33333 7.33311M9.65066 7.41978C9.43796 6.96784 9.32955 6.47388 9.33343 5.9744C9.33732 5.47492 9.4534 4.9827 9.67311 4.53413C9.89282 4.08555 10.2105 3.69208 10.6028 3.38281C10.995 3.07354 11.4517 2.85637 11.9392 2.74735C12.4266 2.63834 12.9323 2.64026 13.4189 2.75299C13.9055 2.86571 14.3606 3.08635 14.7504 3.3986C15.1403 3.71085 15.455 4.10673 15.6713 4.55696C15.8876 5.0072 15.9999 5.50029 16 5.99978M16 5.99978V26.6664M16 5.99978C16.0001 5.50029 16.1124 5.0072 16.3287 4.55696C16.545 4.10673 16.8597 3.71085 17.2495 3.3986C17.6394 3.08635 18.0945 2.86571 18.5811 2.75299C19.0677 2.64026 19.5734 2.63834 20.0608 2.74735C20.5483 2.85637 21.005 3.07354 21.3972 3.38281C21.7895 3.69208 22.1072 4.08555 22.3269 4.53413C22.5466 4.9827 22.6627 5.47492 22.6666 5.9744C22.6704 6.47388 22.562 6.96784 22.3493 7.41978M16 26.6664C16 27.3737 15.719 28.052 15.2189 28.5521C14.7189 29.0522 14.0406 29.3331 13.3333 29.3331C12.6261 29.3331 11.9478 29.0522 11.4477 28.5521C10.9476 28.052 10.6667 27.3737 10.6667 26.6664M16 26.6664C16 27.3737 16.2809 28.052 16.781 28.5521C17.2811 29.0522 17.9594 29.3331 18.6667 29.3331M16 9.33311C16 10.394 16.4214 11.4114 17.1716 12.1615C17.9217 12.9117 18.9391 13.3331 20 13.3331M27.48 11.9584C28.0621 12.4585 28.5292 13.0786 28.8491 13.7762C29.169 14.4738 29.3342 15.2323 29.3333 15.9998C29.3333 16.9371 29.092 17.8184 28.6667 18.5838M27.44 11.8504C27.8773 11.1961 28.0689 10.4082 27.981 9.62609C27.8931 8.84402 27.5314 8.11826 26.9598 7.57731C26.3882 7.03636 25.6436 6.7151 24.8579 6.67041C24.0721 6.62571 23.2959 6.86047 22.6667 7.33311M27.3333 27.3331L29.3333 29.3331M21.3333 24.6664C21.3333 25.5505 21.6845 26.3983 22.3096 27.0235C22.9348 27.6486 23.7826 27.9998 24.6667 27.9998C25.5507 27.9998 26.3986 27.6486 27.0237 27.0235C27.6488 26.3983 28 25.5505 28 24.6664C28 23.7824 27.6488 22.9345 27.0237 22.3094C26.3986 21.6843 25.5507 21.3331 24.6667 21.3331C23.7826 21.3331 22.9348 21.6843 22.3096 22.3094C21.6845 22.9345 21.3333 23.7824 21.3333 24.6664Z" stroke="#218753" stroke-width="1.33333" stroke-linecap="round" stroke-linejoin="round"/>
</svg>
