<svg width="40" height="40" viewBox="0 0 40 40" fill="none" xmlns="http://www.w3.org/2000/svg">
<g id="icon">
<path id="Union" fill-rule="evenodd" clip-rule="evenodd" d="M4.49384 8.62945L14.0772 1.66675H25.9228L35.5062 8.62945L39.1667 19.8953L35.5062 31.1612L25.9228 38.1239H14.0772L4.49384 31.1612L0.833332 19.8953L4.49384 8.62945ZM20 3.59119L15.5519 2.14591L24.4481 2.14591L20 3.59119ZM19.2247 3.8431L14.2602 2.23004L11.192 6.45308L19.2247 3.8431ZM11.41 6.88607L19.4794 4.26415L16.3683 8.56054L11.41 6.88607ZM10.5636 7.31791L5.38704 14.4429L10.5421 12.7913L10.5636 7.31791ZM10.5401 13.2951L5.2956 14.9754L8.50932 19.4133L10.5271 16.627L10.5401 13.2951ZM11.0088 15.9616L11.0199 13.1413L13.6647 12.294L11.0088 15.9616ZM10.5238 17.4484L8.80513 19.8218L10.5053 22.1697L10.5238 17.4484ZM10.9818 22.8278L11.0056 16.7831L14.4351 12.0472L19.9566 10.2781L25.8079 12.2542L29.2295 16.9794L29.2767 22.9497L23.6731 30.4795L14.3627 27.4965L10.9818 22.8278ZM10.5021 22.9822L8.50932 20.2303L5.34072 24.606L10.4892 26.2555L10.5021 22.9822ZM10.9678 26.4089L10.9787 23.6404L13.5923 27.2497L10.9678 26.4089ZM10.4872 26.7581L5.17515 25.0561L10.4653 32.3374L10.4872 26.7581ZM10.9428 32.7528L10.9658 26.9114L14.0668 27.9049L19.6186 35.5717L10.9428 32.7528ZM26.591 12.5187L29.223 16.1534L29.2012 13.4002L26.591 12.5187ZM29.1972 12.8931L26.1062 11.8492L24.0247 8.97475L29.1532 7.33161L29.1972 12.8931ZM29.6817 13.5624L29.7075 16.8224L31.7438 19.6345L34.9408 15.3385L29.6817 13.5624ZM34.8817 14.8128L29.6777 13.0553L29.6345 7.59063L34.8817 14.8128ZM25.3231 11.5847L20.7251 10.0319L23.5445 9.12859L25.3231 11.5847ZM19.9605 9.7737L23.2487 8.72019L20.0465 4.29803L16.8436 8.72107L19.9605 9.7737ZM16.074 8.96691L14.1392 11.6388L11.0219 12.6375L11.043 7.26788L16.074 8.96691ZM16.5493 9.12745L19.192 10.0199L14.9095 11.392L16.5493 9.12745ZM24.1554 30.634L29.283 23.7439L29.3507 32.2985L24.1554 30.634ZM29.7572 23.1067L29.827 31.9351L34.9696 24.8569L34.9462 24.8738L31.7386 20.4442L29.7572 23.1067ZM29.714 17.6484L29.7509 22.3126L31.444 20.0374L29.714 17.6484ZM20.6422 4.30368L28.7803 6.94792L23.7289 8.56634L20.6422 4.30368ZM4.97299 15.3468V24.2969L8.21352 19.8218L4.97299 15.3468ZM20.5126 35.5291L29.1271 32.7301L23.8531 31.0403L20.5126 35.5291ZM23.3708 30.8858L20.0491 35.3493L14.8371 28.1517L23.3708 30.8858ZM32.0384 20.0413L35.027 24.1684V16.0254L32.0384 20.0413ZM10.4167 6.705L13.1657 2.92122L5.96857 8.15027L10.4167 6.705ZM5.96858 31.6404L13.1657 36.8694L10.4167 33.0857L5.96858 31.6404ZM9.9375 32.4262L4.97299 25.5931V30.8131L9.9375 32.4262ZM4.49382 24.9336V29.6105L1.74476 21.1498L4.49382 24.9336ZM4.49382 15.6723L1.42561 19.8953L4.49382 24.1184V15.6723ZM4.49382 14.8571L1.74476 18.6409L4.49382 10.1801V14.8571ZM4.97299 14.1976V8.97758L9.9375 7.36451L4.97299 14.1976ZM11.192 33.3376L14.2602 37.5606L19.2247 35.9476L11.192 33.3376ZM20 36.1995L15.5519 37.6448H24.4481L20 36.1995ZM26.8342 36.8695L34.0314 31.6404L29.5833 33.0857L26.8342 36.8695ZM28.808 33.3376L20.7753 35.9476L25.7398 37.5606L28.808 33.3376ZM30.0625 32.4262L35.027 30.8131V25.5931L30.0625 32.4262ZM35.5062 24.9336V29.6106L38.2552 21.1498L35.5062 24.9336ZM38.2552 18.6409L35.5062 10.1801V14.8571L38.2552 18.6409ZM35.5062 24.1184L38.5744 19.8953L35.5062 15.6723V24.1184ZM35.027 14.1976V8.97758L30.0625 7.36451L35.027 14.1976ZM29.5833 6.705L34.0314 8.15028L26.8342 2.92119L29.5833 6.705ZM28.808 6.45309L20.7753 3.8431L25.7398 2.23004L28.808 6.45309Z" fill="url(#paint0_radial_125_2105)"/>
</g>
<defs>
<radialGradient id="paint0_radial_125_2105" cx="0" cy="0" r="1" gradientUnits="userSpaceOnUse" gradientTransform="translate(20.5257 19.7021) rotate(57.1886) scale(21.6647 22.7797)">
<stop stop-color="#2FC177"/>
<stop offset="1" stop-color="#218753" stop-opacity="0.5"/>
</radialGradient>
</defs>
</svg>
