<svg width="32" height="32" viewBox="0 0 32 32" fill="none" xmlns="http://www.w3.org/2000/svg">
<path d="M28 4.8V27.2C28 27.4122 27.9157 27.6157 27.7657 27.7657C27.6157 27.9157 27.4122 28 27.2 28H4.8C4.58783 28 4.38434 27.9157 4.23431 27.7657C4.08429 27.6157 4 27.4122 4 27.2V4.8C4 4.58783 4.08429 4.38434 4.23431 4.23431C4.38434 4.08429 4.58783 4 4.8 4H27.2C27.4122 4 27.6157 4.08429 27.7657 4.23431C27.9157 4.38434 28 4.58783 28 4.8Z" stroke="#218753" stroke-width="1.33333" stroke-linecap="round" stroke-linejoin="round"/>
<path d="M20.6667 10L16 16M16 24C18.1217 24 20.1566 23.1571 21.6569 21.6569C23.1571 20.1566 24 18.1217 24 16C24 13.8783 23.1571 11.8434 21.6569 10.3431C20.1566 8.84286 18.1217 8 16 8C13.8783 8 11.8434 8.84286 10.3431 10.3431C8.84286 11.8434 8 13.8783 8 16C8 18.1217 8.84286 20.1566 10.3431 21.6569C11.8434 23.1571 13.8783 24 16 24Z" stroke="#218753" stroke-width="1.33333" stroke-linecap="round" stroke-linejoin="round"/>
</svg>
