<svg width="40" height="40" viewBox="0 0 40 40" fill="none" xmlns="http://www.w3.org/2000/svg">
<g id="icon">
<g id="Group 193">
<path id="1" d="M3.19168 10.2887L20.0122 0.57735L36.8327 10.2887V29.7113L20.0122 39.4226L3.19168 29.7113V10.2887Z" stroke="url(#paint0_linear_125_2114)"/>
<path id="2" d="M5.35675 11.5387L20.0122 3.07735L34.6676 11.5387V28.4613L20.0122 36.9226L5.35675 28.4613V11.5387Z" stroke="url(#paint1_linear_125_2114)"/>
<path id="3" d="M7.52182 12.7887L20.0122 5.57735L32.5026 12.7887V27.2113L20.0122 34.4227L7.52182 27.2113V12.7887Z" stroke="url(#paint2_linear_125_2114)"/>
<path id="4" d="M9.68689 14.0387L20.0122 8.07735L30.3375 14.0387V25.9613L20.0122 31.9227L9.68689 25.9613V14.0387Z" stroke="url(#paint3_linear_125_2114)"/>
<path id="5" d="M11.852 15.2887L20.0122 10.5774L28.1725 15.2887V24.7113L20.0122 29.4227L11.852 24.7113V15.2887Z" stroke="url(#paint4_linear_125_2114)"/>
<path id="Center" d="M20.0122 12.5L26.5074 16.25V23.75L20.0122 27.5L13.517 23.75V16.25L20.0122 12.5Z" fill="url(#paint5_radial_125_2114)"/>
</g>
</g>
<defs>
<linearGradient id="paint0_linear_125_2114" x1="13.4497" y1="-5.96046e-07" x2="28.4497" y2="40" gradientUnits="userSpaceOnUse">
<stop stop-color="#2FC177"/>
<stop offset="1" stop-color="#218753" stop-opacity="0.5"/>
</linearGradient>
<linearGradient id="paint1_linear_125_2114" x1="14.27" y1="2.5" x2="27.395" y2="37.5" gradientUnits="userSpaceOnUse">
<stop stop-color="#2FC177"/>
<stop offset="1" stop-color="#218753" stop-opacity="0.5"/>
</linearGradient>
<linearGradient id="paint2_linear_125_2114" x1="15.0903" y1="5" x2="26.3403" y2="35" gradientUnits="userSpaceOnUse">
<stop stop-color="#2FC177"/>
<stop offset="1" stop-color="#218753" stop-opacity="0.5"/>
</linearGradient>
<linearGradient id="paint3_linear_125_2114" x1="15.9106" y1="7.5" x2="25.2856" y2="32.5" gradientUnits="userSpaceOnUse">
<stop stop-color="#2FC177"/>
<stop offset="1" stop-color="#218753" stop-opacity="0.5"/>
</linearGradient>
<linearGradient id="paint4_linear_125_2114" x1="16.731" y1="10" x2="24.231" y2="30" gradientUnits="userSpaceOnUse">
<stop stop-color="#2FC177"/>
<stop offset="1" stop-color="#218753" stop-opacity="0.5"/>
</linearGradient>
<radialGradient id="paint5_radial_125_2114" cx="0" cy="0" r="1" gradientUnits="userSpaceOnUse" gradientTransform="translate(20.0122 20) rotate(90) scale(7.5)">
<stop stop-color="#218753"/>
<stop offset="1" stop-color="#218753" stop-opacity="0.2"/>
</radialGradient>
</defs>
</svg>
