<svg width="32" height="32" viewBox="0 0 32 32" fill="none" xmlns="http://www.w3.org/2000/svg">
<path d="M5.33333 8V16C5.33333 16 5.33333 20 14.6667 20C24 20 24 16 24 16V8" stroke="#218753" stroke-width="1.33333" stroke-linecap="round" stroke-linejoin="round"/>
<path d="M14.6667 28C5.33333 28 5.33333 24 5.33333 24V16M14.6667 4C24 4 24 8 24 8C24 8 24 12 14.6667 12C5.33333 12 5.33333 8 5.33333 8C5.33333 8 5.33333 4 14.6667 4ZM25.3333 28C26.0406 28 26.7189 27.719 27.219 27.219C27.719 26.7189 28 26.0406 28 25.3333C28 24.6261 27.719 23.9478 27.219 23.4477C26.7189 22.9476 26.0406 22.6667 25.3333 22.6667C24.6261 22.6667 23.9478 22.9476 23.4477 23.4477C22.9476 23.9478 22.6667 24.6261 22.6667 25.3333C22.6667 26.0406 22.9476 26.7189 23.4477 27.219C23.9478 27.719 24.6261 28 25.3333 28Z" stroke="#218753" stroke-width="1.33333" stroke-linecap="round" stroke-linejoin="round"/>
<path d="M25.3333 29.3333C26.3942 29.3333 27.4116 28.9118 28.1618 28.1617C28.9119 27.4115 29.3333 26.3941 29.3333 25.3333C29.3333 24.2724 28.9119 23.255 28.1618 22.5048C27.4116 21.7547 26.3942 21.3333 25.3333 21.3333C24.2725 21.3333 23.2551 21.7547 22.5049 22.5048C21.7548 23.255 21.3333 24.2724 21.3333 25.3333C21.3333 26.3941 21.7548 27.4115 22.5049 28.1617C23.2551 28.9118 24.2725 29.3333 25.3333 29.3333Z" stroke="#218753" stroke-width="1.33333" stroke-linecap="round" stroke-linejoin="round" stroke-dasharray="0.4 2.67"/>
</svg>
