<svg width="32" height="32" viewBox="0 0 32 32" fill="none" xmlns="http://www.w3.org/2000/svg">
<path d="M24 22.6667C24.7072 22.6667 25.3855 22.9476 25.8856 23.4477C26.3857 23.9478 26.6667 24.6261 26.6667 25.3333C26.6667 26.0406 26.3857 26.7189 25.8856 27.219C25.3855 27.719 24.7072 28 24 28C23.2928 28 22.6145 27.719 22.1144 27.219C21.6143 26.7189 21.3333 26.0406 21.3333 25.3333C21.3333 24.6261 21.6143 23.9478 22.1144 23.4477C22.6145 22.9476 23.2928 22.6667 24 22.6667ZM24 22.6667V9.33333C24 9.33333 24 6.66667 21.3333 6.66667H17.3333M8 9.33333C8.70724 9.33333 9.38552 9.05238 9.88562 8.55229C10.3857 8.05219 10.6667 7.37391 10.6667 6.66667C10.6667 5.95942 10.3857 5.28115 9.88562 4.78105C9.38552 4.28095 8.70724 4 8 4C7.29275 4 6.61448 4.28095 6.11438 4.78105C5.61428 5.28115 5.33333 5.95942 5.33333 6.66667C5.33333 7.37391 5.61428 8.05219 6.11438 8.55229C6.61448 9.05238 7.29275 9.33333 8 9.33333ZM8 9.33333V22.6667C8 22.6667 8 25.3333 10.6667 25.3333H14.6667" stroke="#218753" stroke-width="1.33333" stroke-linecap="round" stroke-linejoin="round"/>
<path d="M20 9.99992L16.6667 6.66659L20 3.33325M11.3333 21.9999L14.6667 25.3333L11.3333 28.6666" stroke="#218753" stroke-width="1.33333" stroke-linecap="round" stroke-linejoin="round"/>
</svg>
