<svg width="40" height="40" viewBox="0 0 40 40" fill="none" xmlns="http://www.w3.org/2000/svg">
<g id="icon">
<g id="Top">
<path d="M20 0C17.3736 0 14.7728 0.517316 12.3463 1.52241C9.91982 2.5275 7.71504 4.00069 5.85786 5.85787C4.00069 7.71504 2.5275 9.91982 1.52241 12.3463C0.517315 14.7728 0 17.3736 0 20H0.615385C0.615385 17.4544 1.11678 14.9337 2.09095 12.5818C3.06512 10.23 4.49298 8.09304 6.29301 6.29301C8.09303 4.49298 10.23 3.06512 12.5818 2.09095C14.9337 1.11678 17.4544 0.615385 20 0.615385C22.5456 0.615385 25.0663 1.11678 27.4182 2.09095C29.77 3.06512 31.907 4.49298 33.707 6.29301C35.507 8.09303 36.9349 10.23 37.909 12.5818C38.8832 14.9337 39.3846 17.4544 39.3846 20H40C40 17.3736 39.4827 14.7728 38.4776 12.3463C37.4725 9.91982 35.9993 7.71504 34.1421 5.85786C32.285 4.00069 30.0802 2.5275 27.6537 1.52241C25.2272 0.517315 22.6264 0 20 0Z" fill="url(#paint0_linear_125_2129)"/>
<path d="M20 2.46154C15.3485 2.46154 10.8875 4.30933 7.59844 7.59843C4.30934 10.8875 2.46154 15.3485 2.46154 20H3.07692C3.07692 15.5117 4.85989 11.2073 8.03358 8.03358C11.2073 4.85988 15.5117 3.07692 20 3.07692C24.4883 3.07692 28.7927 4.85989 31.9664 8.03358C35.1401 11.2073 36.9231 15.5117 36.9231 20H37.5385C37.5385 15.3485 35.6907 10.8875 32.4016 7.59844C29.1125 4.30934 24.6515 2.46154 20 2.46154Z" fill="url(#paint1_linear_125_2129)"/>
<path d="M9.33901 9.339C12.1665 6.51153 16.0014 4.92308 20 4.92308C23.9986 4.92308 27.8335 6.51153 30.661 9.33901C33.4885 12.1665 35.0769 16.0014 35.0769 20H34.4615C34.4615 16.1646 32.9379 12.4862 30.2259 9.77415C27.5138 7.06208 23.8354 5.53846 20 5.53846C16.1646 5.53846 12.4862 7.06208 9.77415 9.77415C7.06208 12.4862 5.53846 16.1646 5.53846 20H4.92308C4.92308 16.0013 6.51153 12.1665 9.33901 9.339Z" fill="url(#paint2_linear_125_2129)"/>
<path d="M20 7.38462C16.6542 7.38462 13.4454 8.71373 11.0796 11.0796C8.71373 13.4454 7.38462 16.6542 7.38462 20H8C8 16.8174 9.26428 13.7652 11.5147 11.5147C13.7652 9.26428 16.8174 8 20 8C23.1826 8 26.2348 9.26428 28.4853 11.5147C30.7357 13.7652 32 16.8174 32 20H32.6154C32.6154 16.6542 31.2863 13.4454 28.9204 11.0796C26.5546 8.71373 23.3458 7.38462 20 7.38462Z" fill="url(#paint3_linear_125_2129)"/>
<path d="M12.8201 12.8201C14.7244 10.9159 17.307 9.84615 20 9.84615C22.693 9.84615 25.2756 10.9159 27.1799 12.8201C29.0841 14.7244 30.1538 17.307 30.1538 20H29.5385C29.5385 17.4702 28.5335 15.0441 26.7447 13.2553C24.9559 11.4665 22.5298 10.4615 20 10.4615C17.4702 10.4615 15.0441 11.4665 13.2553 13.2553C11.4665 15.0441 10.4615 17.4702 10.4615 20H9.84615C9.84615 17.307 10.9159 14.7244 12.8201 12.8201Z" fill="url(#paint4_linear_125_2129)"/>
<path d="M20 12.3077C17.9599 12.3077 16.0033 13.1181 14.5607 14.5607C13.1181 16.0033 12.3077 17.9599 12.3077 20H12.9231C12.9231 18.1231 13.6687 16.323 14.9959 14.9959C16.323 13.6687 18.1231 12.9231 20 12.9231C21.8769 12.9231 23.677 13.6687 25.0041 14.9959C26.3313 16.323 27.0769 18.1231 27.0769 20H27.6923C27.6923 17.9599 26.8819 16.0033 25.4393 14.5607C23.9967 13.1181 22.0401 12.3077 20 12.3077Z" fill="url(#paint5_linear_125_2129)"/>
</g>
<g id="Bottom">
<path d="M20 40C17.3736 40 14.7728 39.4827 12.3463 38.4776C9.91982 37.4725 7.71504 35.9993 5.85786 34.1421C4.00069 32.285 2.5275 30.0802 1.52241 27.6537C0.517315 25.2272 0 22.6264 0 20H0.615385C0.615385 22.5456 1.11678 25.0663 2.09095 27.4182C3.06512 29.77 4.49298 31.907 6.29301 33.707C8.09303 35.507 10.23 36.9349 12.5818 37.9091C14.9337 38.8832 17.4544 39.3846 20 39.3846C22.5456 39.3846 25.0663 38.8832 27.4182 37.9091C29.77 36.9349 31.907 35.507 33.707 33.707C35.507 31.907 36.9349 29.77 37.909 27.4182C38.8832 25.0663 39.3846 22.5456 39.3846 20H40C40 22.6264 39.4827 25.2272 38.4776 27.6537C37.4725 30.0802 35.9993 32.285 34.1421 34.1421C32.285 35.9993 30.0802 37.4725 27.6537 38.4776C25.2272 39.4827 22.6264 40 20 40Z" fill="url(#paint6_linear_125_2129)"/>
<path d="M20 37.5385C15.3485 37.5385 10.8875 35.6907 7.59844 32.4016C4.30934 29.1125 2.46154 24.6515 2.46154 20H3.07692C3.07692 24.4883 4.85989 28.7927 8.03358 31.9664C11.2073 35.1401 15.5117 36.9231 20 36.9231C24.4883 36.9231 28.7927 35.1401 31.9664 31.9664C35.1401 28.7927 36.9231 24.4883 36.9231 20H37.5385C37.5385 24.6515 35.6907 29.1125 32.4016 32.4016C29.1125 35.6907 24.6515 37.5385 20 37.5385Z" fill="url(#paint7_linear_125_2129)"/>
<path d="M9.33901 30.661C12.1665 33.4885 16.0014 35.0769 20 35.0769C23.9986 35.0769 27.8335 33.4885 30.661 30.661C33.4885 27.8335 35.0769 23.9987 35.0769 20H34.4615C34.4615 23.8354 32.9379 27.5138 30.2259 30.2259C27.5138 32.9379 23.8354 34.4615 20 34.4615C16.1646 34.4615 12.4862 32.9379 9.77415 30.2259C7.06208 27.5138 5.53846 23.8354 5.53846 20H4.92308C4.92308 23.9987 6.51153 27.8335 9.33901 30.661Z" fill="url(#paint8_linear_125_2129)"/>
<path d="M20 32.6154C16.6542 32.6154 13.4454 31.2863 11.0796 28.9204C8.71373 26.5546 7.38462 23.3458 7.38462 20H8C8 23.1826 9.26428 26.2348 11.5147 28.4853C13.7652 30.7357 16.8174 32 20 32C23.1826 32 26.2348 30.7357 28.4853 28.4853C30.7357 26.2348 32 23.1826 32 20H32.6154C32.6154 23.3458 31.2863 26.5546 28.9204 28.9204C26.5546 31.2863 23.3458 32.6154 20 32.6154Z" fill="url(#paint9_linear_125_2129)"/>
<path d="M12.8201 27.1799C14.7244 29.0841 17.307 30.1538 20 30.1538C22.693 30.1538 25.2756 29.0841 27.1799 27.1799C29.0841 25.2756 30.1538 22.693 30.1538 20H29.5385C29.5385 22.5298 28.5335 24.9559 26.7447 26.7447C24.9559 28.5335 22.5298 29.5385 20 29.5385C17.4702 29.5385 15.0441 28.5335 13.2553 26.7447C11.4665 24.9559 10.4615 22.5298 10.4615 20H9.84615C9.84615 22.693 10.9159 25.2756 12.8201 27.1799Z" fill="url(#paint10_linear_125_2129)"/>
<path d="M20 27.6923C17.9599 27.6923 16.0033 26.8819 14.5607 25.4393C13.1181 23.9967 12.3077 22.0401 12.3077 20H12.9231C12.9231 21.8769 13.6687 23.677 14.9959 25.0041C16.323 26.3313 18.1231 27.0769 20 27.0769C21.8769 27.0769 23.677 26.3313 25.0041 25.0041C26.3313 23.677 27.0769 21.8769 27.0769 20H27.6923C27.6923 22.0401 26.8819 23.9967 25.4393 25.4393C23.9967 26.8819 22.0401 27.6923 20 27.6923Z" fill="url(#paint11_linear_125_2129)"/>
</g>
</g>
<defs>
<linearGradient id="paint0_linear_125_2129" x1="20" y1="0" x2="20" y2="20.9231" gradientUnits="userSpaceOnUse">
<stop stop-color="#2FC177"/>
<stop offset="1" stop-color="#218753" stop-opacity="0.3"/>
</linearGradient>
<linearGradient id="paint1_linear_125_2129" x1="20" y1="0" x2="20" y2="20.9231" gradientUnits="userSpaceOnUse">
<stop stop-color="#2FC177"/>
<stop offset="1" stop-color="#218753" stop-opacity="0.3"/>
</linearGradient>
<linearGradient id="paint2_linear_125_2129" x1="20" y1="0" x2="20" y2="20.9231" gradientUnits="userSpaceOnUse">
<stop stop-color="#2FC177"/>
<stop offset="1" stop-color="#218753" stop-opacity="0.3"/>
</linearGradient>
<linearGradient id="paint3_linear_125_2129" x1="20" y1="0" x2="20" y2="20.9231" gradientUnits="userSpaceOnUse">
<stop stop-color="#2FC177"/>
<stop offset="1" stop-color="#218753" stop-opacity="0.3"/>
</linearGradient>
<linearGradient id="paint4_linear_125_2129" x1="20" y1="0" x2="20" y2="20.9231" gradientUnits="userSpaceOnUse">
<stop stop-color="#2FC177"/>
<stop offset="1" stop-color="#218753" stop-opacity="0.3"/>
</linearGradient>
<linearGradient id="paint5_linear_125_2129" x1="20" y1="0" x2="20" y2="20.9231" gradientUnits="userSpaceOnUse">
<stop stop-color="#2FC177"/>
<stop offset="1" stop-color="#218753" stop-opacity="0.3"/>
</linearGradient>
<linearGradient id="paint6_linear_125_2129" x1="20" y1="40" x2="20" y2="19.0769" gradientUnits="userSpaceOnUse">
<stop stop-color="#218753"/>
<stop offset="1" stop-color="#218753" stop-opacity="0.3"/>
</linearGradient>
<linearGradient id="paint7_linear_125_2129" x1="20" y1="40" x2="20" y2="19.0769" gradientUnits="userSpaceOnUse">
<stop stop-color="#218753"/>
<stop offset="1" stop-color="#218753" stop-opacity="0.3"/>
</linearGradient>
<linearGradient id="paint8_linear_125_2129" x1="20" y1="40" x2="20" y2="19.0769" gradientUnits="userSpaceOnUse">
<stop stop-color="#218753"/>
<stop offset="1" stop-color="#218753" stop-opacity="0.3"/>
</linearGradient>
<linearGradient id="paint9_linear_125_2129" x1="20" y1="40" x2="20" y2="19.0769" gradientUnits="userSpaceOnUse">
<stop stop-color="#218753"/>
<stop offset="1" stop-color="#218753" stop-opacity="0.3"/>
</linearGradient>
<linearGradient id="paint10_linear_125_2129" x1="20" y1="40" x2="20" y2="19.0769" gradientUnits="userSpaceOnUse">
<stop stop-color="#218753"/>
<stop offset="1" stop-color="#218753" stop-opacity="0.3"/>
</linearGradient>
<linearGradient id="paint11_linear_125_2129" x1="20" y1="40" x2="20" y2="19.0769" gradientUnits="userSpaceOnUse">
<stop stop-color="#218753"/>
<stop offset="1" stop-color="#218753" stop-opacity="0.3"/>
</linearGradient>
</defs>
</svg>
