<svg width="32" height="32" viewBox="0 0 32 32" fill="none" xmlns="http://www.w3.org/2000/svg">
<path d="M16 9.34683L16.0133 9.33216M21.3333 12.0135L21.3466 11.9988M10.6666 12.0135L10.68 11.9988M24 17.3468L24.0133 17.3322M7.99998 17.3468L8.01331 17.3322M22.6666 22.6802L22.68 22.6655M9.33331 22.6802L9.34664 22.6655M16 22.6668L17.3333 14.6668M11.3333 26.6682H5.33331C3.59826 24.3618 2.6621 21.5529 2.66664 18.6668C2.66664 11.3028 8.63598 5.3335 16 5.3335C23.364 5.3335 29.3333 11.3028 29.3333 18.6668C29.3333 21.6695 28.3413 24.4402 26.6666 26.6682L20.6666 26.6668" stroke="#218753" stroke-width="1.33333" stroke-linecap="round" stroke-linejoin="round"/>
<path d="M16 30.6665C17.0609 30.6665 18.0783 30.2451 18.8284 29.4949C19.5786 28.7448 20 27.7274 20 26.6665C20 25.6056 19.5786 24.5882 18.8284 23.8381C18.0783 23.0879 17.0609 22.6665 16 22.6665C14.9391 22.6665 13.9217 23.0879 13.1716 23.8381C12.4214 24.5882 12 25.6056 12 26.6665C12 27.7274 12.4214 28.7448 13.1716 29.4949C13.9217 30.2451 14.9391 30.6665 16 30.6665Z" stroke="#218753" stroke-width="1.33333" stroke-linecap="round" stroke-linejoin="round"/>
</svg>
