<svg width="32" height="32" viewBox="0 0 32 32" fill="none" xmlns="http://www.w3.org/2000/svg">
<path d="M16 2.6665C8.63602 2.6665 2.66669 8.63584 2.66669 15.9998C2.66669 23.3638 8.63602 29.3332 16 29.3332C23.364 29.3332 29.3334 23.3638 29.3334 15.9998C29.3334 8.63584 23.364 2.6665 16 2.6665Z" stroke="#218753" stroke-width="1.33333" stroke-linecap="round" stroke-linejoin="round"/>
<path d="M10.6667 28.2242V18.6668L16 9.3335L21.3334 18.6668V28.2242" stroke="#218753" stroke-width="1.33333" stroke-linecap="round" stroke-linejoin="round"/>
<path d="M10.6667 18.6665C10.6667 18.6665 12.1694 19.9998 13.3334 19.9998C14.4974 19.9998 16 18.6665 16 18.6665C16 18.6665 17.5027 19.9998 18.6667 19.9998C19.8307 19.9998 21.3334 18.6665 21.3334 18.6665" stroke="#218753" stroke-width="1.33333" stroke-linecap="round" stroke-linejoin="round"/>
</svg>
