<svg width="32" height="32" viewBox="0 0 32 32" fill="none" xmlns="http://www.w3.org/2000/svg">
<path d="M16 29.3332C23.3638 29.3332 29.3334 23.3636 29.3334 15.9998C29.3334 8.63604 23.3638 2.6665 16 2.6665C8.63622 2.6665 2.66669 8.63604 2.66669 15.9998C2.66669 23.3636 8.63622 29.3332 16 29.3332Z" stroke="#218753" stroke-width="1.33333"/>
<path d="M22.1106 12.8895C21.08 10.7962 18.724 9.3335 15.984 9.3335C12.5173 9.3335 9.66665 11.6722 9.33331 14.6668" stroke="#218753" stroke-width="1.33333" stroke-linecap="round" stroke-linejoin="round"/>
<path d="M19.3253 12.9627H21.8667C21.9717 12.9627 22.0758 12.942 22.1728 12.9018C22.2699 12.8616 22.3581 12.8026 22.4324 12.7284C22.5067 12.6541 22.5656 12.5659 22.6058 12.4688C22.646 12.3718 22.6667 12.2677 22.6667 12.1627V10M9.88934 18.2227C10.9213 20.8387 13.276 22.6667 16.016 22.6667C19.4827 22.6667 22.3307 19.7427 22.6667 16" stroke="#218753" stroke-width="1.33333" stroke-linecap="round" stroke-linejoin="round"/>
<path d="M12.6746 18.1626H10.1333C9.92114 18.1626 9.71766 18.2469 9.56763 18.3969C9.4176 18.5469 9.33331 18.7504 9.33331 18.9626V21.8666" stroke="#218753" stroke-width="1.33333" stroke-linecap="round" stroke-linejoin="round"/>
</svg>
