<svg width="111" height="42" viewBox="0 0 111 42" fill="none" xmlns="http://www.w3.org/2000/svg">
<path d="M20.6554 0.649414C31.8951 0.660084 40.9974 9.78014 40.9867 21.0199C40.9761 32.2596 31.856 41.3619 20.6163 41.3512C9.39076 41.3406 0.29322 32.2418 0.284921 21.0151C0.274252 9.77777 9.37416 0.660084 20.6115 0.649414C20.6258 0.649414 20.64 0.649414 20.6554 0.649414ZM13.8139 31.4499C18.2263 29.8815 23.0454 29.8803 27.459 31.4476L28.0932 29.0611C28.386 29.0611 28.654 29.054 28.9243 29.0635C29.2029 29.041 29.4826 29.0564 29.7565 29.1121C29.5656 30.102 29.325 31.0824 29.0333 32.0474C29.7849 32.4623 30.5318 32.8381 31.2419 33.2744C31.952 33.7095 32.6242 34.2003 33.3106 34.6662C41.5617 27.1051 41.0472 14.2447 33.2786 7.31667C31.9674 8.34806 30.5389 9.22177 29.0227 9.91766C29.3107 10.9384 29.5858 11.9164 29.7672 12.9253H28.0778C27.9747 12.5187 27.881 12.1298 27.7779 11.7445C27.689 11.3415 27.5716 10.9467 27.4246 10.5614C23.0217 12.1215 18.2156 12.1191 13.8139 10.5543L13.1772 12.9478C12.8844 12.9478 12.6141 12.949 12.345 12.9478C12.07 12.9454 11.795 12.9407 11.4678 12.9359L12.2348 9.90936C10.7221 9.21585 9.29829 8.3445 7.99305 7.31075C-0.205876 14.7877 0.139105 27.6468 7.99305 34.6828C9.30777 33.6502 10.7387 32.7753 12.2561 32.0771C11.9514 31.0895 11.6989 30.0854 11.5009 29.0718H13.1855L13.8139 31.4499ZM26.8745 8.97282C26.865 8.90643 26.8508 8.84123 26.833 8.77603C26.3162 7.38306 25.6072 6.06953 24.7288 4.87217C24.1633 4.08618 23.4496 3.41756 22.6281 2.90424C21.4817 2.16093 20.0176 2.12062 18.8321 2.79991C18.0698 3.22788 17.3976 3.79929 16.8535 4.48333C15.9786 5.5645 15.2661 6.76779 14.7362 8.05406C14.6117 8.34213 14.4979 8.63495 14.3651 8.95978C18.4089 10.4108 22.8296 10.4156 26.8745 8.97282ZM14.3853 33.0278C14.4137 33.125 14.4256 33.1819 14.4457 33.2341C14.9282 34.5263 15.5731 35.7509 16.3651 36.8807C16.8831 37.6264 17.5174 38.2855 18.2441 38.8309C19.7698 39.944 21.4248 39.9583 22.9659 38.8735C23.4935 38.4965 23.9701 38.052 24.3838 37.5529C25.4365 36.25 26.2664 34.7812 26.839 33.2068C26.8556 33.1464 26.8662 33.0847 26.8722 33.0231C22.8332 31.5863 18.4231 31.5886 14.3853 33.0278ZM25.3962 39.0146C27.7874 38.4124 30.0292 37.3229 31.9781 35.8126C30.9076 34.9803 29.7458 34.2726 28.5164 33.7024C28.0494 34.6543 27.6202 35.5826 27.1436 36.4859C26.6517 37.3869 26.066 38.2346 25.3962 39.0146ZM15.8944 39.0217C15.2187 38.2511 14.6295 37.4071 14.1387 36.5061C13.6526 35.5956 13.2247 34.6555 12.7576 33.7012C11.527 34.2726 10.3641 34.9803 9.29355 35.8126C11.2496 37.3241 13.4961 38.4171 15.8944 39.0217ZM28.4548 8.29116C29.3546 7.98767 31.6118 6.58878 31.926 6.14303C29.9853 4.6493 27.7577 3.57167 25.382 2.97655C26.7536 4.54734 27.6937 6.35523 28.4548 8.29116ZM15.8612 2.98959C13.4831 3.58709 11.2532 4.67063 9.31251 6.17029C10.0096 6.81876 12.1672 8.11333 12.8263 8.27693C13.5329 6.35642 14.5584 4.56868 15.8612 2.98959Z" fill="white"/>
<path d="M36.4214 21.0182C36.432 21.9654 36.221 22.9031 35.8073 23.7543C35.2762 24.794 34.3835 25.6037 33.2964 26.0305C32.5068 26.3435 31.6699 26.5177 30.8211 26.5486C29.8323 26.6268 28.8377 26.5189 27.8893 26.232C25.8372 25.5741 24.6078 24.1906 24.2949 22.0354C24.1396 21.0538 24.2024 20.0508 24.4786 19.0965C24.8947 17.6407 25.9771 16.4706 27.3961 15.9407C28.6125 15.4783 29.9236 15.3171 31.2158 15.4724C31.958 15.5222 32.6858 15.6988 33.3687 15.9929C34.9869 16.6603 36.1167 18.154 36.3182 19.8931C36.3728 20.2654 36.3882 20.6436 36.4214 21.0182ZM32.3907 21.0182C32.3575 20.5144 32.3409 20.007 32.2851 19.5055C32.2437 18.94 32.0907 18.3899 31.8347 17.8837C31.5513 17.3206 30.9657 16.9733 30.3362 16.9958C29.6948 16.9638 29.0926 17.3088 28.7962 17.879C28.5876 18.2761 28.4524 18.7065 28.3955 19.151C28.2296 20.2464 28.2094 21.3584 28.3362 22.4586C28.3754 22.9636 28.4963 23.4603 28.6943 23.9262C29.076 24.8189 30.1109 25.2338 31.0036 24.8521C31.396 24.6838 31.7137 24.3791 31.8987 23.995C32.0077 23.7603 32.0931 23.516 32.1512 23.2635C32.3112 22.525 32.3907 21.7734 32.3907 21.0182Z" fill="white"/>
<path d="M21.0276 19.3081C20.9577 19.1148 20.9043 18.9595 20.8474 18.8054C20.461 17.7669 19.6833 17.2382 18.6092 17.1232C18.2002 17.0604 17.7817 17.0829 17.3822 17.1896C17.1202 17.2655 16.8843 17.4101 16.6982 17.6104C16.3153 18.0337 16.3568 18.5102 16.8428 18.8066C17.1262 18.9738 17.432 19.1006 17.7497 19.1836C18.4184 19.3673 19.1024 19.5001 19.7734 19.6803C20.5534 19.8688 21.2979 20.1794 21.9808 20.6015C22.7146 21.0579 23.1853 21.8391 23.2445 22.701C23.369 23.5759 23.1236 24.4626 22.5664 25.149C22.1432 25.6458 21.5931 26.018 20.9743 26.2255C20.1468 26.5041 19.2707 26.6155 18.3994 26.5527C17.3739 26.497 16.3698 26.2373 15.4451 25.7892C15.4048 25.7702 15.3598 25.7584 15.291 25.7347L14.8974 26.2883H13.508V22.4461C13.7475 22.4093 13.9917 22.3999 14.2335 22.4165C14.4683 22.4105 14.703 22.4153 14.9674 22.4153C15.016 22.5421 15.0586 22.6607 15.1072 22.7768C15.5909 23.9292 16.403 24.7009 17.6561 24.9416C18.0722 25.0376 18.5049 25.0281 18.9163 24.9143C19.1415 24.8479 19.3513 24.7412 19.5375 24.5978C19.8967 24.3417 19.9808 23.8426 19.726 23.4834C19.6738 23.4099 19.6098 23.3459 19.5363 23.2937C19.234 23.0709 18.8985 22.8954 18.5428 22.7745C17.8541 22.535 17.1439 22.3595 16.4492 22.1379C15.9644 21.992 15.4878 21.8201 15.0219 21.6234C14.1363 21.2298 13.4879 20.5896 13.2911 19.6163C12.9769 18.0621 13.6301 16.7106 15.0551 15.959C15.6656 15.6472 16.3378 15.473 17.0218 15.4457C18.32 15.3497 19.6228 15.5856 20.8048 16.1309C20.8474 16.1511 20.8925 16.1653 20.9696 16.1949L21.2576 15.7136H22.7205V19.2998C22.4491 19.3021 22.1716 19.3069 21.8954 19.3081C21.6109 19.3093 21.3288 19.3081 21.0276 19.3081Z" fill="white"/>
<path d="M12.2655 24.7821V26.2272H6.08551V24.7821C6.27638 24.7821 6.4625 24.7856 6.64625 24.7809C6.77547 24.7809 6.90469 24.7702 7.03272 24.7489C7.22833 24.7299 7.38482 24.5758 7.40734 24.3802C7.4358 24.2296 7.45476 24.0779 7.46188 23.9261C7.46543 21.97 7.46543 20.0128 7.46188 18.0567C7.46069 17.3644 7.29591 17.2067 6.60357 17.1948C6.43997 17.1925 6.27519 17.1948 6.08551 17.1948V15.7568H12.2228C12.3035 16.2239 12.3106 16.7017 12.243 17.1711C12.1576 17.1794 12.0675 17.1901 11.9763 17.196C11.885 17.202 11.7878 17.196 11.6929 17.1984C11.0622 17.2209 10.9129 17.3561 10.9129 17.9785C10.9069 19.982 10.9069 21.9855 10.9129 23.989C10.9152 24.6315 11.0658 24.7702 11.7119 24.7821C11.8874 24.7844 12.0616 24.7821 12.2655 24.7821Z" fill="white"/>
<path d="M99.4527 21.0608C99.4591 22.1802 99.2202 23.2866 98.7533 24.3048C97.8731 26.2701 95.9578 27.5659 93.808 27.652C93.0397 27.723 92.265 27.6606 91.5204 27.4647C89.6094 26.989 88.088 25.5446 87.5091 23.6611C86.9281 21.9671 86.9195 20.1288 87.4833 18.4304C88.1827 16.1272 90.2421 14.5041 92.6438 14.3642C93.9285 14.2243 95.2261 14.4826 96.3602 15.1025C97.8752 15.9571 98.9276 17.4445 99.2288 19.158C99.3537 19.7801 99.3816 20.4258 99.4527 21.0608ZM91.4429 20.9898L91.5505 20.9984C91.5505 21.4892 91.5183 21.9821 91.557 22.4708C91.5635 23.3275 91.7464 24.1713 92.0928 24.9548C92.2908 25.3961 92.7255 25.6846 93.2076 25.6975C93.7154 25.7319 94.191 25.4413 94.3933 24.9742C94.5655 24.6319 94.6903 24.2682 94.7635 23.8915C95.054 22.1845 95.0863 20.4431 94.8582 18.7275C94.7828 18.1807 94.6387 17.6426 94.4321 17.1303C94.2728 16.6459 93.8166 16.3209 93.3066 16.3295C92.7772 16.3101 92.293 16.618 92.0842 17.1023C91.9401 17.3649 91.8411 17.649 91.7916 17.9439C91.6538 18.9578 91.5548 19.9738 91.4429 20.9898Z" fill="white"/>
<path d="M85.8973 21.0564C85.9683 22.193 85.7445 23.3274 85.2495 24.352C84.3328 26.3517 82.3422 27.639 80.145 27.6605C79.1616 27.7337 78.1738 27.5765 77.2592 27.2041C75.7098 26.567 74.5262 25.2733 74.0291 23.6739C73.4566 22.0014 73.4394 20.1889 73.9774 18.5035C74.6704 16.0991 76.8417 14.4222 79.3423 14.3577C81.2985 14.2608 83.0158 14.7968 84.35 16.3079C85.2646 17.3691 85.8047 18.6994 85.8887 20.0985C85.9188 20.4128 85.8973 20.7357 85.8973 21.0564ZM81.5589 21.1727C81.5008 20.2686 81.4986 19.5798 81.4018 18.9082C81.32 18.3184 81.178 17.7372 80.9778 17.1775C80.825 16.6652 80.3495 16.3165 79.8158 16.3208C79.2605 16.2971 78.7548 16.6437 78.5762 17.1711C78.3804 17.5973 78.2534 18.0536 78.2018 18.5186C78.1221 19.9005 78.0748 21.2889 78.0942 22.673C78.0791 23.4673 78.2599 24.2551 78.6171 24.9655C78.8969 25.5983 79.6371 25.8846 80.272 25.6048C80.5367 25.4864 80.754 25.2819 80.8853 25.0214C81.0897 24.6706 81.2253 24.2853 81.2834 23.8827C81.4147 22.9098 81.4836 21.9325 81.5546 21.1727H81.5589Z" fill="white"/>
<path d="M49.5094 17.3569C49.5804 17.3871 49.6557 17.4086 49.731 17.4258C50.4756 17.415 51.0889 18.0113 51.0997 18.7561C51.0997 18.8013 51.0997 18.8465 51.0954 18.8895C51.1578 19.7613 50.5638 20.5427 49.7095 20.7171C49.4147 20.7666 49.1134 20.7816 48.8143 20.7623C47.8717 20.7407 47.0991 20.0089 47.0238 19.0682C46.8495 17.8563 47.2971 16.6401 48.2139 15.8286C49.1823 14.9676 50.4132 14.4596 51.7066 14.3864C53.2667 14.1711 54.8549 14.4854 56.2171 15.2775C57.7214 16.1386 58.4573 17.9058 58.0076 19.5805C57.7881 20.4437 57.2221 21.1777 56.4431 21.6082C55.5543 22.1248 54.6031 22.5231 53.6132 22.7986C52.8988 23.0182 52.1735 23.2119 51.4741 23.4745C50.8178 23.6596 50.254 24.0858 49.8946 24.667C50.0345 24.6326 50.1722 24.5917 50.3078 24.5422C51.4591 23.9997 52.7653 23.8813 53.9963 24.2085C54.3879 24.3162 54.7861 24.4023 55.1863 24.469C56.0536 24.5981 56.4 24.3118 56.5033 23.4207C56.5184 23.2937 56.5249 23.1667 56.5442 22.9579C57.2092 22.9127 57.8763 22.9148 58.5413 22.9665C58.6188 24.131 58.6187 25.2482 58.0485 26.2857C57.5169 27.2566 56.6002 27.5687 55.5823 27.6569C54.5988 27.7215 53.6111 27.6031 52.6706 27.3061C52.0552 27.1296 51.4419 26.9315 50.8156 26.8024C50.198 26.6754 49.5589 26.5957 49.1737 27.2759H47.0497C46.9571 26.3073 47.1379 25.33 47.5769 24.4604C48.1278 23.4616 48.924 22.6199 49.8903 22.0151C50.6112 21.5178 51.3687 21.0722 52.1047 20.5987C52.378 20.4308 52.6427 20.2478 52.8945 20.0498C53.4454 19.6214 53.7531 18.952 53.7208 18.2545C53.7337 17.6152 53.355 17.0319 52.7653 16.7822C51.67 16.272 50.368 16.5002 49.5094 17.3569Z" fill="white"/>
<path d="M63.2865 14.7104C63.3123 15.1216 63.3317 15.4488 63.3553 15.8577C63.4393 15.791 63.5211 15.7157 63.5942 15.636C64.3862 14.5533 65.4923 14.2993 66.7275 14.5145C67.3516 14.6523 67.9671 14.831 68.5696 15.0462C68.9355 15.1582 69.2991 15.2852 69.6607 15.4122C69.9598 15.5327 70.2998 15.4617 70.5279 15.2357L70.7431 14.7363H72.3614C72.4755 15.0893 72.4583 15.4703 72.3119 15.8104C71.9353 16.6693 71.563 17.5324 71.124 18.359C70.5624 19.4138 69.9168 20.4255 69.3422 21.4738C68.5244 23.0581 68.0919 24.8102 68.0747 26.5926C68.0661 26.8014 68.0531 27.0102 68.0402 27.2556H63.902C63.8008 26.7755 63.7858 26.2805 63.8568 25.794C63.9794 23.96 64.7735 22.2358 66.0905 20.9529C66.9599 20.0983 67.8638 19.2803 68.7482 18.443C68.9462 18.2535 69.1291 18.0491 69.4283 17.7391C69.1743 17.7972 69.0667 17.8101 68.9656 17.8446C68.0811 18.1093 67.145 18.1481 66.2412 17.9608C65.7591 17.8682 65.2728 17.8015 64.7843 17.7649C64.1129 17.6831 63.5038 18.161 63.4221 18.8326C63.4221 18.839 63.4199 18.8455 63.4199 18.8498C63.3597 19.1641 63.3209 19.4805 63.3037 19.8012C63.2843 20.0079 63.2843 20.2188 63.2714 20.4599H61.0549V14.7363C61.4229 14.7277 61.7779 14.7147 62.133 14.7083C62.4903 14.7083 62.8561 14.7104 63.2865 14.7104Z" fill="white"/>
<path d="M102.78 16.3472C103.97 16.1578 105.153 15.9791 105.758 14.7393H108.969C108.98 14.976 108.995 15.2021 108.997 15.4302C108.999 18.3362 108.999 21.2443 108.997 24.1503C108.997 24.3009 108.993 24.4495 108.997 24.6002C109.018 25.2545 109.221 25.4719 109.888 25.5128C110.204 25.5322 110.523 25.5171 110.873 25.5171C110.942 26.0747 110.96 26.6365 110.927 27.1961C110.417 27.3231 103.843 27.3662 102.791 27.2543V25.5946C103.38 25.4052 104.065 25.6893 104.732 25.2524C104.818 25.0242 104.874 24.7874 104.9 24.5463C104.917 22.5165 104.91 20.4845 104.908 18.4546C104.895 18.3491 104.874 18.2458 104.841 18.1446H102.778L102.78 16.3472Z" fill="white"/>
</svg>
