<svg width="47" height="47" viewBox="0 0 47 47" fill="none" xmlns="http://www.w3.org/2000/svg">
<path fill-rule="evenodd" clip-rule="evenodd" d="M22.2232 4.36125C22.9262 4.28857 23.7263 4.31283 24.3808 4.38553L24.4293 4.43406L24.4537 4.38553C30.2479 4.84615 35.6061 8.02218 38.8547 12.968C38.6897 13.0505 38.5247 13.0319 38.3444 13.0117C38.2598 13.0021 38.1718 12.9922 38.0788 12.9922C37.0363 11.4649 35.7273 10.0829 34.2482 8.94341L34.0058 9.04048L32.3087 10.0344V10.1556C32.7209 10.5921 33.0604 11.0042 33.3755 11.4649C33.7633 11.9255 34.127 12.4588 34.418 12.9922C34.2632 13.0503 34.0619 13.0466 33.8514 13.0427C33.7982 13.0418 33.7444 13.0408 33.6906 13.0408C33.0604 12.1195 32.3572 11.1739 31.6058 10.3739L31.4336 10.4444C30.4264 10.8568 29.4364 11.2623 28.3811 11.5376L28.3328 11.5861L28.9389 12.9922C28.8104 13.0656 28.6125 13.0557 28.4293 13.0466C28.3704 13.0436 28.3129 13.0408 28.2598 13.0408L27.6055 11.78L27.4842 11.7558C26.1264 12.0952 24.6476 12.2407 23.2413 12.3134C23.1897 12.4297 23.1931 12.5597 23.1965 12.6924C23.1995 12.8089 23.2026 12.9275 23.1687 13.0408H22.514C22.4857 12.9556 22.4905 12.8483 22.4955 12.739C22.5032 12.5682 22.5111 12.3926 22.3928 12.2892C20.8897 12.2407 19.4108 12.071 18.0046 11.7558C17.8655 11.9921 17.7505 12.2444 17.6365 12.4943C17.5517 12.6802 17.4674 12.865 17.3743 13.0408L17.2958 13.0481C17.0721 13.0691 16.9107 13.0843 16.6711 13.0408L17.2772 11.6345L17.1803 11.5376C16.3193 11.3027 15.4898 10.9889 14.6537 10.6727C14.454 10.5971 14.2538 10.5214 14.0528 10.4466C13.2769 11.2466 12.6224 12.1437 12.0163 13.0408C11.7738 13.0892 11.4586 13.1135 11.289 13.0408C11.8015 12.1048 12.4984 11.2303 13.1914 10.3607L13.374 10.1315C13.086 9.94712 12.776 9.77373 12.4624 9.59829C12.1161 9.40453 11.7652 9.20826 11.4344 8.99194C10.8143 9.39049 10.2752 9.91054 9.70612 10.4595L9.54335 10.6164C8.81601 11.3921 8.16149 12.1922 7.57952 13.0165C7.4296 13.0765 7.26115 13.0623 7.09708 13.0485C6.99586 13.0399 6.89627 13.0315 6.80376 13.0408C10.1494 7.87668 15.5075 4.84615 21.3261 4.38553C21.6412 4.36125 21.9565 4.33699 22.2232 4.36125ZM26.8781 5.52503V5.47652C24.3325 4.82188 21.3018 4.87042 18.7319 5.47652C18.7483 5.59166 18.8652 5.65097 18.9765 5.70747C19.0293 5.73427 19.0808 5.76044 19.1198 5.79164C21.3503 7.22214 24.7688 7.07664 26.8781 5.52503ZM33.4968 8.53132L33.5453 8.43436C31.7996 7.17361 29.8843 6.25237 27.8479 5.71896C27.8117 5.74482 27.7722 5.77068 27.7319 5.79702C27.5835 5.89412 27.4253 5.99763 27.3872 6.13117C28.9145 7.0281 30.4177 8.16764 31.7026 9.47681H31.8238L33.4968 8.53132ZM13.9316 9.54949C15.2893 8.19191 16.7682 7.07665 18.2713 6.13117C18.2001 6.06005 18.1124 5.99724 18.0226 5.93299C17.9593 5.88772 17.895 5.84174 17.8349 5.79164C17.7387 5.70929 17.6504 5.74359 17.5566 5.77999C17.4848 5.80786 17.4099 5.83696 17.3258 5.81591V5.7675C17.2454 5.7675 17.1983 5.81745 17.1431 5.87593C17.1317 5.888 17.12 5.90043 17.1076 5.91286C15.3135 6.49482 13.6164 7.34337 12.089 8.48277V8.53132C12.6708 8.94341 13.2769 9.30704 13.9316 9.54949ZM30.9511 9.86473L30.9996 9.79195C29.7145 8.48277 28.1872 7.34338 26.6113 6.54324C26.4424 6.63334 26.2631 6.71294 26.0855 6.79179C25.8805 6.88275 25.6779 6.97271 25.4961 7.07664C26.4174 8.31313 27.2418 9.59804 27.9933 10.8829C29.0357 10.6648 30.0055 10.2768 30.9511 9.86473ZM20.0169 7.22214L20.0896 7.02811C19.8474 6.91515 19.6052 6.82365 19.363 6.73215C19.2415 6.68626 19.12 6.64036 18.9986 6.59177C17.447 7.41605 16.0409 8.48278 14.7074 9.76782L14.6589 9.91318C15.5801 10.3254 16.5499 10.6405 17.5439 10.9072L17.6409 10.8829L17.7588 10.6823C18.4474 9.51062 19.1453 8.32294 20.0169 7.22214ZM22.4734 10.3803C22.4833 9.39415 22.4934 8.39171 22.4413 7.48873L20.8897 7.27055C19.8957 8.4585 19.0714 9.74352 18.3682 11.077C18.88 11.2475 19.4955 11.3292 20.0525 11.4031C20.2079 11.4237 20.359 11.4437 20.5018 11.4649C20.6799 11.4776 20.853 11.4953 21.0237 11.5128C21.5036 11.5619 21.9648 11.6091 22.4656 11.5376C22.4656 11.1592 22.4695 10.771 22.4734 10.3803ZM27.2174 11.077C26.5871 9.74352 25.6659 8.50706 24.7203 7.29484C24.4778 7.33119 24.2232 7.36756 23.9687 7.40393C23.7141 7.4403 23.4595 7.47666 23.2171 7.51301C23.1929 8.84645 23.1687 10.2768 23.2171 11.5619C24.5749 11.5619 25.9083 11.3921 27.2174 11.077ZM13.9316 16.047C16.356 14.2771 20.0896 14.3983 22.7565 15.5378L23.8717 16.144C23.9447 15.9689 23.9386 15.7499 23.9327 15.5398C23.9288 15.4009 23.9251 15.2658 23.9444 15.1499C25.0354 15.1015 26.3688 15.1015 27.4598 15.1257C27.4671 15.7263 27.4787 16.3031 27.4901 16.8697C27.5168 18.2015 27.5424 19.4769 27.5084 20.8716C26.6285 20.9083 25.7069 20.9034 24.8486 20.8988C24.5718 20.8973 24.3016 20.8959 24.0415 20.8959C23.0474 19.32 21.3018 18.7382 19.6047 18.4957C19.4718 18.4917 19.3315 18.4816 19.1879 18.4713C18.467 18.4196 17.6614 18.3619 17.2772 19.029C17.2288 19.2957 17.35 19.5139 17.5439 19.6837L17.9804 19.9018L23.8476 21.6232C25.8113 22.1323 27.7508 23.9992 28.0174 26.06C28.2843 28.1691 27.3145 30.133 25.4961 31.1513C22.9989 32.4603 19.7502 32.2179 17.2288 31.1513C17.0918 31.0787 16.9548 31.0035 16.8178 30.9283C16.5426 30.7772 16.2675 30.6261 15.9923 30.4966L15.9438 31.6603L12.3072 31.6845C12.2345 29.7449 12.2587 27.4903 12.3072 25.5265L15.5801 25.5022C15.6772 25.6235 15.756 25.7569 15.8349 25.8903C15.9136 26.0236 15.9924 26.1569 16.0893 26.278C17.738 28.0237 20.2108 28.5086 22.4897 27.8783L22.4977 27.8737C22.6663 27.7774 22.8777 27.6566 22.8777 27.4417C22.9262 27.1751 22.6352 26.9568 22.4171 26.86C21.4 26.5096 20.3671 26.2014 19.3356 25.8936C18.1542 25.5411 16.9746 25.1891 15.8226 24.7748C14.2467 24.1687 12.5981 22.8838 12.283 21.1383C11.8708 19.2957 12.3557 17.2107 13.9316 16.047ZM32.1148 15.9742C35.3636 14.1317 40.1639 14.2771 43.3157 16.3137C44.4067 17.0652 45.3038 18.1078 45.7401 19.2715C46.8311 22.2777 46.7099 26.278 44.9157 28.9449C44.1399 29.9632 43.0974 30.7147 42.0064 31.1754L41.9034 31.2209C41.5398 31.4179 41.0094 31.5543 40.8427 31.5876C37.3273 32.5816 33.3755 32.0481 30.6601 29.6237C28.3328 27.3205 28.163 23.6597 28.8177 20.5806C29.1813 18.7139 30.345 16.8956 32.1148 15.9742ZM0.621488 14.8832L2.12457 14.859L11.2647 14.8832C11.3374 16.144 11.3132 17.6229 11.289 19.0048L8.88881 19.029L8.84028 19.1018L8.81601 27.6115C9.26905 27.6682 9.76337 27.667 10.2556 27.6658C10.6064 27.6649 10.956 27.6641 11.289 27.6842V31.6845H0.597204C0.548694 30.3511 0.548694 29.042 0.597204 27.6842L2.99737 27.6359L3.02165 27.2963V19.0533C2.4865 19.0047 1.96217 18.9994 1.42694 18.994C1.16201 18.9913 0.894394 18.9886 0.621488 18.9806C0.597207 17.6713 0.597207 16.1682 0.621488 14.8832ZM17.2818 33.4706C17.3531 33.4746 17.4253 33.4786 17.4955 33.4786L18.15 34.7635C19.5563 34.4728 21.0109 34.3028 22.514 34.2304C22.6021 34.0834 22.5924 33.9455 22.5818 33.795C22.5749 33.6969 22.5677 33.5934 22.5868 33.4786H23.2171C23.2688 33.582 23.2654 33.7198 23.262 33.859C23.2589 33.981 23.2559 34.104 23.2899 34.206C24.7444 34.3028 26.3203 34.4728 27.7508 34.7877L28.4055 33.4786H29.0601C29.0024 33.7666 28.8679 34.046 28.7325 34.327C28.64 34.5191 28.5471 34.712 28.4782 34.9089L28.5994 35.006C29.6904 35.297 30.6601 35.685 31.727 36.1211C32.5021 35.3463 33.1178 34.4345 33.7066 33.5626L33.7633 33.4786H34.5151C33.9331 34.5211 33.1816 35.4667 32.4058 36.4123C32.715 36.6185 33.0448 36.8041 33.3769 36.991C33.6696 37.1558 33.9643 37.3216 34.2482 37.5033C34.2968 37.5758 34.4421 37.6002 34.4907 37.5275C35.8968 36.4123 37.1819 34.9819 38.2 33.5028C38.4425 33.4786 38.7578 33.4786 38.9759 33.5028C34.8543 39.8549 27.7508 43.0795 20.3078 42.0854C18.15 41.7944 16.1135 41.1156 14.1983 40.1702C14.2467 40.1458 14.1983 40.0973 14.174 40.0973C14.1497 40.0973 14.1497 40.1214 14.1497 40.1214C11.3132 38.6912 8.59783 36.2667 6.85219 33.5028L6.93127 33.4961C7.18021 33.4748 7.36424 33.459 7.62806 33.5028C8.64637 35.0301 10.0039 36.4848 11.4586 37.6002C11.9586 37.3681 12.4454 37.0701 12.9288 36.7742C13.1017 36.6684 13.2742 36.5628 13.4467 36.4606L13.3022 36.2802C12.5752 35.3729 11.8589 34.479 11.3132 33.4786C11.3938 33.4933 11.4944 33.4814 11.5989 33.469C11.8398 33.4404 12.1014 33.4094 12.1859 33.6969C12.7193 34.5211 13.374 35.3455 14.0528 36.097L14.1497 36.1455C15.1923 35.7092 16.259 35.3213 17.35 35.006L17.4227 34.9333L16.8166 33.5028C16.9372 33.4512 17.1068 33.4607 17.2818 33.4706ZM21.8105 39.175C22.0714 39.1451 22.335 39.1148 22.5868 39.0548L22.5626 34.9577C21.2048 34.9577 19.8957 35.1513 18.6349 35.3938L18.5137 35.4909C19.2168 36.8243 20.0412 38.1094 21.0351 39.2973C21.2802 39.236 21.5439 39.2057 21.8105 39.175ZM27.3872 35.515L27.363 35.4426C26.0779 35.1272 24.6961 34.9818 23.3142 34.9577C23.2413 36.3879 23.2656 37.6487 23.3142 39.0792L23.7264 39.1275C23.8922 39.1372 24.0542 39.1706 24.2154 39.2038C24.4547 39.2531 24.6923 39.302 24.9386 39.2729C25.8598 38.0851 26.7083 36.8243 27.3872 35.515ZM20.2351 39.5153C19.3623 38.2548 18.4895 36.9941 17.7864 35.6606L17.6894 35.6362C16.6711 35.9031 15.6772 36.2424 14.7316 36.7031V36.776C16.0166 38.1094 17.5439 39.2246 19.1441 40.0246C19.3136 39.9277 19.5013 39.849 19.689 39.7703C19.8771 39.6914 20.0652 39.6125 20.2351 39.5153ZM28.4296 39.0063C29.3508 38.3519 30.345 37.5758 31.1209 36.6789C30.1994 36.2182 29.2055 35.8787 28.163 35.6362L28.0903 35.685C27.4113 36.9697 26.6357 38.1819 25.7627 39.37L25.6901 39.5397L26.7325 40.0002C27.189 39.7722 27.6304 39.4993 28.0687 39.2283L28.07 39.2275C28.1901 39.1533 28.3098 39.0792 28.4296 39.0063ZM29.1813 40.4851C30.7813 39.879 32.3572 39.1517 33.7148 38.0607C33.1331 37.6487 32.5026 37.285 31.8482 37.0185C30.5148 38.3519 29.1084 39.467 27.5569 40.3883L27.5084 40.461L27.5101 40.4624C27.6793 40.6072 27.8486 40.7523 28.0418 40.8488L29.1813 40.4851ZM17.8592 40.8488C18.0288 40.7519 18.2229 40.6063 18.3441 40.461C16.7923 39.467 15.362 38.4243 13.9801 37.0426C13.4365 37.2725 12.9291 37.5925 12.4265 37.9094C12.3462 37.9601 12.2661 38.0106 12.1859 38.0607V38.1336C13.9316 39.3941 15.8226 40.3156 17.8592 40.8488ZM26.9366 41.137C27.0027 41.1263 27.0717 41.1151 27.0235 41.0188C24.8173 39.4185 21.3018 39.4185 19.0471 40.8975C19.0239 40.9206 18.9909 40.9388 18.9583 40.9568C18.8884 40.9953 18.8201 41.033 18.8531 41.1156C21.423 41.7461 24.2839 41.7217 26.8537 41.1641C26.8701 41.1478 26.903 41.1424 26.9366 41.137ZM40.1257 21.3391C40.0832 20.8022 40.0395 20.2505 39.7499 19.8064C39.1679 19.0306 38.2467 18.8851 37.3013 18.8851C36.4042 18.9579 35.4101 19.2003 35.0464 20.1458C34.619 21.5635 34.6927 23.1901 34.7636 24.7542C34.7691 24.8752 34.7746 24.9958 34.7798 25.1159L34.7822 25.1369C34.8785 25.9792 34.9799 26.8659 35.7254 27.395C36.6223 27.904 37.9316 28.0252 38.9014 27.5889C39.5075 27.3706 39.8953 26.7645 40.0165 26.1827C40.1903 25.1746 40.1772 24.042 40.1648 22.9724C40.16 22.5499 40.1552 22.1372 40.1621 21.746C40.1473 21.6127 40.1365 21.4764 40.1257 21.3391Z" fill="white"/>
</svg>
