<svg width="192" height="32" viewBox="0 0 192 32" fill="none" xmlns="http://www.w3.org/2000/svg">
<path d="M54.2403 15.932C55.8603 16.688 57.0843 17.84 57.6243 19.172V24.14C56.6163 26.948 53.1963 29 49.2003 29H37.2483V3.58397H48.5883C52.5843 3.58397 56.0043 5.63597 56.9763 8.44397V13.016C56.5443 14.168 55.5363 15.176 54.2403 15.932ZM48.6243 8.04797H42.2883V14.06H48.6243C50.1363 14.06 51.4323 13.304 51.9363 12.044V10.064C51.4323 8.83997 50.1363 8.04797 48.6243 8.04797ZM52.4763 22.52V20.252C52.0443 18.956 50.7123 18.2 49.1643 18.2H42.2883V24.536H49.1643C50.7123 24.536 52.0443 23.744 52.4763 22.52Z" fill="white"/>
<path d="M60.97 29V2.71997H65.722V29H60.97Z" fill="white"/>
<path d="M78.5856 29.576C73.7976 29.576 70.0896 26.912 68.8656 23.456V15.572C70.0896 12.152 73.7976 9.45197 78.5856 9.45197C83.3736 9.45197 87.0456 12.152 88.2696 15.572V23.456C87.0456 26.912 83.3736 29.576 78.5856 29.576ZM78.5856 25.256C81.2136 25.256 83.0496 23.708 83.5176 22.304V16.76C83.0496 15.32 81.2136 13.772 78.5856 13.772C75.9576 13.772 74.1216 15.32 73.6176 16.76V22.304C74.1216 23.708 75.9576 25.256 78.5856 25.256Z" fill="white"/>
<path d="M100.238 29.576C95.4502 29.576 91.9222 26.912 90.7342 23.456V15.572C91.9222 12.152 95.4502 9.45197 100.238 9.45197C104.522 9.45197 107.834 11.54 109.274 14.852L104.954 16.76C104.378 15.392 102.83 13.772 100.238 13.772C97.6102 13.772 95.9542 15.32 95.4862 16.76V22.304C95.9542 23.708 97.6102 25.256 100.238 25.256C102.83 25.256 104.342 23.708 104.954 22.304L109.274 24.176C107.834 27.524 104.522 29.576 100.238 29.576Z" fill="white"/>
<path d="M122.301 17.588L129.789 28.1V29H124.893L118.917 20.684L115.965 23.384V29H111.213V2.71997H115.965V17.948L124.173 10.064H129.321V10.964L122.301 17.588Z" fill="white"/>
<path d="M142.115 9.45197C146.435 9.45197 149.711 12.152 150.827 15.572V23.42C149.711 26.84 146.435 29.576 142.115 29.576C139.595 29.576 137.579 28.64 136.139 27.092V29H131.675V2.71997H136.427V11.612C137.831 10.28 139.739 9.45197 142.115 9.45197ZM146.075 22.268V16.76C145.535 15.356 143.807 13.808 141.179 13.808C138.839 13.808 137.183 14.96 136.427 16.184V22.844C137.183 24.104 138.839 25.256 141.179 25.256C143.807 25.256 145.535 23.708 146.075 22.268Z" fill="white"/>
<path d="M161.885 9.45197C166.061 9.45197 169.445 11.576 170.525 14.6V29H166.169V27.092C164.909 28.64 162.893 29.54 160.481 29.54C156.953 29.54 154.325 27.92 153.425 26.048V21.62C154.541 19.316 157.457 18.236 160.769 17.804C164.009 17.408 165.521 17.12 165.917 16.58V15.716C165.341 14.672 164.009 13.7 161.849 13.7C159.617 13.7 157.889 15.032 157.097 16.616L152.957 14.708C154.217 11.792 157.673 9.45197 161.885 9.45197ZM165.917 23.744V19.928C165.233 20.468 163.685 20.9 161.561 21.296C159.365 21.692 158.429 22.088 158.033 22.844V24.392C158.573 25.076 159.617 25.652 161.525 25.652C163.433 25.652 165.089 24.86 165.917 23.744Z" fill="white"/>
<path d="M191.03 10.064V10.964L184.91 19.496L191.03 28.064V29H186.062L181.778 22.88L177.458 29H172.526V28.064L178.682 19.496L172.526 10.964V10.064H177.458L181.778 16.148L186.062 10.064H191.03Z" fill="white"/>
<path d="M25.9563 29.5H1.42017C0.73979 29.5 0.188232 28.9484 0.188232 28.2681V3.73194C0.188232 3.05156 0.73979 2.5 1.42017 2.5H4.91067V23.0323C4.91067 23.9395 5.64608 24.6749 6.55325 24.6749H20.7206C21.6277 24.6749 22.3631 23.9395 22.3631 23.0323V8.91635C22.3631 8.00917 21.6277 7.27376 20.7206 7.27376H8.91447V2.5H25.9563C26.6367 2.5 27.1882 3.05156 27.1882 3.73194V28.2681C27.1882 28.9484 26.6367 29.5 25.9563 29.5Z" fill="white"/>
</svg>
