<svg width="176" height="40" viewBox="0 0 176 40" fill="none" xmlns="http://www.w3.org/2000/svg">
<g clip-path="url(#clip0_125_1820)">
<path d="M33.4423 12.3193C28.9584 12.3193 25.9377 14.4905 24.7577 16.9448H24.6161C23.3889 14.3961 20.6986 12.3193 16.6866 12.3193C13.4299 12.3193 10.8812 13.5465 9.08758 16.3785H8.94599L8.52122 12.8857H2.29092V39.3172H10.126V26.1487C10.126 22.0896 11.5892 19.2576 14.8931 19.2576C17.3474 19.2576 18.7634 20.5792 18.7634 24.7327V39.3172H26.5513V26.1487C26.5513 22.0424 28.0144 19.2576 31.3184 19.2576C33.7727 19.2576 35.1887 20.5792 35.1887 24.7327V39.3172H43.0238V21.7592C43.0238 18.9744 41.5605 12.3193 33.4423 12.3193Z" fill="white"/>
<path d="M59.1609 12.3193C51.892 12.3193 46.3226 17.7 46.3226 26.2431C46.3226 34.9277 51.9393 39.8835 59.6798 39.8835C64.4941 39.8835 68.0812 38.279 69.6861 37.0045L67.1845 30.491H66.8071C65.2023 31.7182 62.9365 33.0398 59.5383 33.0398C56.2343 33.0398 54.1104 31.2934 53.9689 28.7446H71.4798C71.4798 28.7446 71.5268 27.1871 71.5268 26.3847C71.5268 17.9832 66.6183 12.3193 59.1609 12.3193ZM59.3024 18.9744C62.276 18.9744 64.1167 21.004 64.3525 23.0807H54.252C54.5824 20.9568 56.3758 18.9744 59.3024 18.9744Z" fill="white"/>
<path d="M90.1226 12.3193C86.5355 12.3193 83.6092 14.0185 82.0986 16.3785H81.957L81.5323 12.8857H75.3021V39.3172H83.1372V26.1487C83.1372 21.5232 85.9219 19.2576 88.6593 19.2576C91.0193 19.2576 92.813 20.8152 92.813 23.9303V39.3172H100.648V21.6176C100.648 16.5672 97.2495 12.3193 90.1226 12.3193Z" fill="white"/>
<path d="M130.559 39.3167V4.29492H123.007V15.6227H122.913C121.45 13.5459 118.854 12.3188 115.739 12.3188C108.659 12.3188 103.939 18.549 103.939 26.4785C103.939 34.172 108.422 39.8829 115.55 39.8829C119.75 39.8829 122.063 38.2311 123.573 35.8238H123.715L124.376 39.3167H130.559ZM117.579 19.257C120.978 19.257 123.29 22.089 123.29 26.1009C123.29 30.396 120.93 32.6616 117.485 32.6616C114.039 32.6616 111.726 30.16 111.726 26.1481C111.726 22.1362 114.181 19.257 117.579 19.257Z" fill="white"/>
<path d="M139.694 0C136.532 0 134.786 1.93517 134.786 4.81433C134.786 7.64626 136.532 9.72303 139.694 9.72303C142.857 9.72303 144.603 7.64626 144.603 4.81433C144.603 1.93517 142.857 0 139.694 0ZM143.518 39.3169V12.8854H135.73V39.3169H143.518Z" fill="white"/>
<path d="M165.059 25.9599L172.847 12.8857H163.737L159.867 20.9568L155.997 12.8857H146.887L154.675 25.9599L146.132 39.3173H155.336L159.867 30.963L164.398 39.3173H173.602L165.059 25.9599Z" fill="white"/>
</g>
<defs>
<clipPath id="clip0_125_1820">
<rect width="174.51" height="40" fill="white" transform="translate(0.775238)"/>
</clipPath>
</defs>
</svg>
