<svg width="1600" height="344" viewBox="0 0 1600 344" fill="none" xmlns="http://www.w3.org/2000/svg">
<g clip-path="url(#clip0_0_1601)">
<rect width="1600" height="344" fill="url(#paint0_linear_0_1601)"/>
<mask id="mask0_0_1601" style="mask-type:luminance" maskUnits="userSpaceOnUse" x="-130" y="-280" width="1600" height="1000">
<rect x="-130" y="-280" width="1600" height="1000" fill="white"/>
</mask>
<g mask="url(#mask0_0_1601)">
<g opacity="0.1">
<path opacity="0.010101" d="M374.498 435.069C369.132 429.158 367.986 420.483 371.612 413.228L642.449 -128.655C646.405 -136.57 655.095 -140.939 663.678 -139.329L1230.32 -33.0379C1238.45 -31.5121 1244.64 -24.9531 1245.73 -16.7053L1326.15 592.029C1327.24 600.276 1322.99 608.396 1315.56 612.248L798.416 880.578C790.583 884.643 781.097 882.991 775.244 876.542L374.498 435.069Z" stroke="url(#paint1_linear_0_1601)"/>
<path opacity="0.020202" d="M368.459 427.644C363.194 421.638 362.191 412.949 365.934 405.766L645.085 -129.981C649.172 -137.824 657.938 -142.033 666.499 -140.263L1230.21 -23.6935C1238.32 -22.0168 1244.4 -15.3466 1245.36 -7.08328L1315.64 601.898C1316.6 610.162 1312.21 618.199 1304.73 621.912L784.266 880.099C776.363 884.02 766.899 882.192 761.151 875.634L368.459 427.644Z" stroke="url(#paint2_linear_0_1601)"/>
<path opacity="0.030303" d="M362.579 420.23C357.415 414.13 356.556 405.43 360.414 398.322L647.762 -131.148C651.977 -138.915 660.817 -142.962 669.351 -141.032L1229.98 -14.2605C1238.06 -12.4334 1244.03 -5.65383 1244.85 2.62302L1305.02 611.661C1305.84 619.937 1301.32 627.889 1293.78 631.464L770.175 879.466C762.204 883.242 752.766 881.238 747.125 874.573L362.579 420.23Z" stroke="url(#paint3_linear_0_1601)"/>
<path opacity="0.040404" d="M356.854 412.834C351.794 406.641 351.077 397.932 355.05 390.899L650.473 -132.151C654.816 -139.84 663.725 -143.724 672.231 -141.635L1229.61 -4.73972C1237.66 -2.76273 1243.52 4.12473 1244.2 12.413L1294.28 621.315C1294.96 629.603 1290.31 637.468 1282.71 640.902L756.141 878.683C748.106 882.312 738.698 880.133 733.166 873.363L356.854 412.834Z" stroke="url(#paint4_linear_0_1601)"/>
<path opacity="0.050505" d="M351.286 405.455C346.33 399.171 345.757 390.454 349.843 383.498L653.218 -132.993C657.687 -140.602 666.663 -144.32 675.135 -142.073L1229.11 4.86423C1237.12 6.9904 1242.87 13.9839 1243.41 22.2815L1283.42 630.857C1283.96 639.155 1279.19 646.931 1271.53 650.223L742.17 877.749C734.073 881.229 724.699 878.876 719.277 872.003L351.286 405.455Z" stroke="url(#paint5_linear_0_1601)"/>
<path opacity="0.0606061" d="M345.874 398.095C341.022 391.722 340.593 382.999 344.791 376.121L655.993 -133.675C660.587 -141.201 669.625 -144.753 678.062 -142.348L1228.47 14.5469C1236.45 16.8217 1242.08 23.9194 1242.49 32.2243L1272.44 640.284C1272.85 648.588 1267.95 656.273 1260.24 659.423L728.262 876.664C720.108 879.994 710.77 877.466 705.462 870.493L345.874 398.095Z" stroke="url(#paint6_linear_0_1601)"/>
<path opacity="0.0707071" d="M340.616 390.758C335.871 384.298 335.585 375.57 339.895 368.773L658.796 -134.196C663.513 -141.636 672.611 -145.019 681.009 -142.458L1227.69 24.3074C1235.63 26.7301 1241.15 33.9303 1241.42 42.2403L1261.36 649.594C1261.63 657.904 1256.6 665.496 1248.84 668.502L714.421 875.43C706.212 878.609 696.915 875.908 691.721 868.837L340.616 390.758Z" stroke="url(#paint7_linear_0_1601)"/>
<path opacity="0.0808081" d="M335.513 383.451C330.875 376.904 330.732 368.174 335.152 361.459L661.623 -134.551C666.462 -141.903 675.615 -145.118 683.971 -142.4L1226.78 34.1458C1234.68 36.7156 1240.07 44.0165 1240.21 52.3296L1250.16 658.79C1250.3 667.103 1245.15 674.6 1237.33 677.462L700.648 874.053C692.387 877.079 683.134 874.206 678.057 867.039L335.513 383.451Z" stroke="url(#paint8_linear_0_1601)"/>
<path opacity="0.0909091" d="M330.563 376.172C326.034 369.54 326.034 360.81 330.563 354.177L664.474 -134.746C669.432 -142.007 678.637 -145.051 686.947 -142.179L1225.73 44.0549C1233.58 46.7709 1238.86 54.1707 1238.86 62.4849V667.865C1238.86 676.179 1233.58 683.579 1225.73 686.295L686.947 872.529C678.637 875.401 669.432 872.357 664.474 865.096L330.563 376.172Z" stroke="url(#paint9_linear_0_1601)"/>
<path opacity="0.10101" d="M325.765 368.925C321.345 362.209 321.488 353.479 326.126 346.932L667.343 -134.78C672.42 -141.948 681.672 -144.821 689.934 -141.794L1224.53 54.0324C1232.34 56.894 1237.49 64.3907 1237.36 72.7038L1227.45 676.817C1227.31 685.13 1221.92 692.431 1214.02 695.001L673.318 870.86C664.963 873.578 655.81 870.363 650.971 863.012L325.765 368.925Z" stroke="url(#paint10_linear_0_1601)"/>
<path opacity="0.111111" d="M321.12 361.715C316.811 354.918 317.097 346.19 321.842 339.73L670.229 -134.649C675.423 -141.721 684.72 -144.421 692.93 -141.242L1223.2 64.0798C1230.96 67.086 1235.99 74.6776 1235.72 82.9876L1215.93 685.649C1215.66 693.959 1210.15 701.159 1202.21 703.582L659.766 869.053C651.368 871.615 642.271 868.231 637.554 860.791L321.12 361.715Z" stroke="url(#paint11_linear_0_1601)"/>
<path opacity="0.121212" d="M316.625 354.54C312.426 347.663 312.856 338.94 317.707 332.567L673.129 -134.358C678.437 -141.331 687.775 -143.859 695.929 -140.529L1221.72 74.1881C1229.44 77.3379 1234.34 85.0227 1233.93 93.3275L1204.32 694.353C1203.91 702.658 1198.28 709.756 1190.3 712.031L646.29 867.103C637.853 869.508 628.815 865.956 624.221 858.43L316.625 354.54Z" stroke="url(#paint12_linear_0_1601)"/>
<path opacity="0.131313" d="M312.28 347.409C308.194 340.453 308.767 331.736 313.723 325.453L676.041 -133.901C681.462 -140.774 690.837 -143.128 698.933 -139.648L1220.11 84.3606C1227.77 87.6529 1232.54 95.4288 1231.99 103.726L1192.61 702.934C1192.06 711.232 1186.32 718.225 1178.3 720.351L632.895 865.017C624.422 867.264 615.447 863.545 610.977 855.937L312.28 347.409Z" stroke="url(#paint13_linear_0_1601)"/>
<path opacity="0.141414" d="M308.084 340.321C304.111 333.288 304.827 324.579 309.888 318.386L678.96 -133.284C684.493 -140.054 693.901 -142.233 701.936 -138.604L1218.35 94.5902C1225.95 98.0242 1230.59 105.889 1229.91 114.177L1180.8 711.386C1180.12 719.674 1174.26 726.561 1166.21 728.538L619.581 862.793C611.076 864.882 602.167 860.998 597.824 853.309L308.084 340.321Z" stroke="url(#paint14_linear_0_1601)"/>
<path opacity="0.151515" d="M304.035 333.279C300.177 326.17 301.036 317.47 306.199 311.37L681.886 -132.504C687.527 -139.17 696.965 -141.173 704.935 -137.398L1216.44 104.875C1223.99 108.45 1228.5 116.402 1227.68 124.678L1168.9 719.707C1168.08 727.984 1162.11 734.764 1154.03 736.591L606.352 860.434C597.817 862.363 588.977 858.316 584.762 850.549L304.035 333.279Z" stroke="url(#paint15_linear_0_1601)"/>
<path opacity="0.161616" d="M300.133 326.286C296.39 319.103 297.393 310.415 302.658 304.408L684.815 -131.563C690.563 -138.121 700.027 -139.949 707.93 -136.028L1214.39 115.213C1221.88 118.927 1226.26 126.964 1225.31 135.227L1156.9 727.898C1155.95 736.161 1149.87 742.831 1141.76 744.508L593.209 857.942C584.648 859.712 575.882 855.503 571.795 847.66L300.133 326.286Z" stroke="url(#paint16_linear_0_1601)"/>
<path opacity="0.171717" d="M296.376 319.346C292.75 312.091 293.896 303.416 299.262 297.505L687.744 -130.458C693.598 -136.907 703.083 -138.559 710.916 -134.494L1212.2 125.603C1219.62 129.455 1223.87 137.574 1222.78 145.822L1144.82 735.957C1143.73 744.205 1137.54 750.764 1129.41 752.29L580.154 855.32C571.571 856.93 562.881 852.56 558.925 844.645L296.376 319.346Z" stroke="url(#paint17_linear_0_1601)"/>
<path opacity="0.181818" d="M292.764 312.46C289.255 305.134 290.545 296.473 296.01 290.659L690.671 -129.193C696.627 -135.53 706.131 -137.006 713.891 -132.799L1209.86 136.038C1217.22 140.027 1221.33 148.228 1220.11 156.458L1132.65 743.882C1131.42 752.112 1125.13 758.558 1116.97 759.932L567.189 852.568C558.586 854.017 549.976 849.489 546.152 841.504L292.764 312.46Z" stroke="url(#paint18_linear_0_1601)"/>
<path opacity="0.191919" d="M289.295 305.631C285.905 298.236 287.337 289.592 292.901 283.876L693.593 -127.766C699.65 -133.989 709.169 -135.289 716.853 -130.942L1207.37 146.518C1214.66 150.642 1218.64 158.922 1217.28 167.132L1120.4 751.671C1119.04 759.882 1112.63 766.213 1104.46 767.436L554.316 849.688C545.698 850.977 537.171 846.292 533.48 838.24L289.295 305.631Z" stroke="url(#paint19_linear_0_1601)"/>
<path opacity="0.20202" d="M285.968 298.859C282.697 291.396 284.273 282.771 289.933 277.156L696.507 -126.181C702.664 -132.288 712.193 -133.412 719.799 -128.927L1204.74 157.038C1211.96 161.296 1215.8 169.652 1214.31 177.84L1108.06 759.322C1106.56 767.51 1100.06 773.726 1091.86 774.796L541.538 846.681C532.907 847.808 524.467 842.969 520.91 834.853L285.968 298.859Z" stroke="url(#paint20_linear_0_1601)"/>
<path opacity="0.212121" d="M282.781 292.154C279.63 284.626 281.349 276.021 287.106 270.507L699.411 -124.431C705.664 -130.421 715.201 -131.368 722.725 -126.747L1201.96 167.6C1209.11 171.991 1212.81 180.421 1211.18 188.585L1095.64 766.839C1094.01 775.004 1087.41 781.102 1079.2 782.02L528.856 843.555C520.215 844.521 511.865 839.529 508.443 831.352L282.781 292.154Z" stroke="url(#paint21_linear_0_1601)"/>
<path opacity="0.222222" d="M279.733 285.51C276.703 277.917 278.566 269.334 284.417 263.923L702.302 -122.526C708.65 -128.396 718.19 -129.167 725.63 -124.411L1199.03 178.193C1206.11 182.716 1209.67 191.218 1207.91 199.356L1083.15 774.212C1081.39 782.351 1074.68 788.33 1066.46 789.095L516.272 840.303C507.625 841.107 499.368 835.965 496.082 827.729L279.733 285.51Z" stroke="url(#paint22_linear_0_1601)"/>
<path opacity="0.232323" d="M276.822 278.935C273.915 271.281 275.921 262.722 281.866 257.415L705.178 -120.458C711.618 -126.207 721.158 -126.802 728.511 -121.914L1195.96 188.823C1202.96 193.476 1206.38 202.047 1204.48 210.157L1070.59 781.449C1068.69 789.559 1061.88 795.417 1053.65 796.03L503.788 836.934C495.138 837.577 486.977 832.287 483.828 823.995L276.822 278.935Z" stroke="url(#paint23_linear_0_1601)"/>
<path opacity="0.242424" d="M274.048 272.431C271.264 264.715 273.414 256.182 279.451 250.981L708.035 -118.232C714.565 -123.858 724.102 -124.277 731.365 -119.259L1192.73 199.482C1199.65 204.263 1202.94 212.902 1200.9 220.982L1057.95 788.544C1055.91 796.624 1049.01 802.36 1040.77 802.819L491.405 833.448C482.756 833.93 474.694 828.494 471.683 820.149L274.048 272.431Z" stroke="url(#paint24_linear_0_1601)"/>
<path opacity="0.252525" d="M271.409 265.997C268.749 258.222 271.042 249.717 277.17 244.623L710.871 -115.849C717.489 -121.35 727.018 -121.594 734.19 -116.448L1189.36 210.167C1196.2 215.075 1199.34 223.779 1197.17 231.826L1045.24 795.495C1043.07 803.542 1036.07 809.155 1027.83 809.461L479.126 829.845C470.48 830.166 462.521 824.587 459.648 816.192L271.409 265.997Z" stroke="url(#paint25_linear_0_1601)"/>
<path opacity="0.262626" d="M268.903 259.637C266.368 251.806 268.804 243.33 275.022 238.345L713.684 -113.31C720.387 -118.683 729.906 -118.753 736.983 -113.481L1185.84 220.876C1192.6 225.909 1195.59 234.675 1193.29 242.689L1032.47 802.302C1030.16 810.315 1023.07 815.802 1014.83 815.955L466.952 826.129C458.313 826.289 450.459 820.569 447.726 812.126L268.903 259.637Z" stroke="url(#paint26_linear_0_1601)"/>
<path opacity="0.272727" d="M266.528 253.356C264.12 245.469 266.699 237.025 273.005 232.151L716.471 -110.612C723.257 -115.857 732.761 -115.753 739.742 -110.357L1182.18 231.608C1188.85 236.765 1191.7 245.591 1189.26 253.568L1019.63 808.966C1017.19 816.943 1010.01 822.303 1001.76 822.303L454.885 822.303C446.256 822.303 438.509 816.444 435.917 807.958L266.528 253.356Z" stroke="url(#paint27_linear_0_1601)"/>
<path opacity="0.282828" d="M264.284 247.154C262.002 239.213 264.724 230.803 271.118 226.04L719.23 -107.759C726.096 -112.873 735.583 -112.596 742.465 -107.08L1178.36 242.358C1184.95 247.637 1187.65 256.521 1185.08 264.458L1006.73 815.485C1004.16 823.422 996.889 828.655 988.645 828.502L442.927 818.368C434.311 818.208 426.675 812.213 424.224 803.686L264.284 247.154Z" stroke="url(#paint28_linear_0_1601)"/>
<path opacity="0.292929" d="M262.169 241.035C260.014 233.043 262.88 224.668 269.359 220.019L721.957 -104.748C728.901 -109.732 738.367 -109.282 745.148 -103.646L1174.4 253.126C1180.89 258.525 1183.44 267.464 1180.74 275.361L993.767 821.859C991.065 829.756 983.71 834.859 975.471 834.553L431.079 814.329C422.48 814.01 414.957 807.882 412.648 799.315L262.169 241.035Z" stroke="url(#paint29_linear_0_1601)"/>
<path opacity="0.30303" d="M260.179 234.997C258.154 226.954 261.162 218.617 267.726 214.083L724.65 -101.588C731.671 -106.438 741.112 -105.816 747.789 -100.065L1170.28 263.903C1176.69 269.421 1179.09 278.412 1176.26 286.266L980.751 828.083C977.917 835.937 970.477 840.91 962.246 840.451L419.342 810.182C410.763 809.704 403.356 803.445 401.189 794.843L260.179 234.997Z" stroke="url(#paint30_linear_0_1601)"/>
<path opacity="0.313131" d="M258.316 229.048C256.419 220.958 259.571 212.66 266.217 208.242L727.308 -98.2698C734.401 -102.985 743.815 -102.193 750.386 -96.3276L1166.02 274.694C1172.33 280.328 1174.59 289.37 1171.62 297.178L967.681 834.163C964.716 841.972 957.192 846.812 948.973 846.201L407.72 805.937C399.163 805.3 391.874 798.914 389.85 790.279L258.316 229.048Z" stroke="url(#paint31_linear_0_1601)"/>
<path opacity="0.323232" d="M256.575 223.183C254.809 215.047 258.103 206.791 264.831 202.491L729.926 -94.8041C737.091 -99.3839 746.473 -98.4219 752.937 -92.4448L1161.61 285.488C1167.83 291.237 1169.93 300.326 1166.83 308.087L954.559 840.091C951.463 847.852 943.859 852.559 935.652 851.795L396.212 801.588C387.681 800.794 380.512 794.282 378.632 785.618L256.575 223.183Z" stroke="url(#paint32_linear_0_1601)"/>
<path opacity="0.333333" d="M254.956 217.412C253.321 209.232 256.758 201.021 263.566 196.839L732.503 -91.1835C739.737 -95.6262 749.085 -94.4955 755.438 -88.4095L1157.05 296.289C1163.18 302.152 1165.12 311.286 1161.89 318.997L941.389 845.873C938.162 853.584 930.479 858.157 922.288 857.241L384.821 797.145C376.318 796.194 369.273 789.56 367.536 780.869L254.956 217.412Z" stroke="url(#paint33_linear_0_1601)"/>
<path opacity="0.343434" d="M253.457 211.731C251.954 203.509 255.533 195.343 262.42 191.282L735.037 -87.4155C742.336 -91.7197 751.647 -90.4215 757.889 -84.2292L1152.35 307.09C1158.37 313.064 1160.16 322.24 1156.81 329.899L928.173 851.503C924.816 859.162 917.056 863.599 908.883 862.532L373.547 792.605C365.076 791.498 358.156 784.745 356.564 776.03L253.457 211.731Z" stroke="url(#paint34_linear_0_1601)"/>
<path opacity="0.353535" d="M252.075 206.148C250.706 197.885 254.427 189.768 261.391 185.829L737.525 -83.4952C744.887 -87.6598 754.158 -86.1953 760.286 -79.8993L1147.5 317.893C1153.42 323.976 1155.06 333.192 1151.57 340.797L914.913 856.986C911.427 864.591 903.591 868.891 895.44 867.672L362.393 787.975C353.956 786.714 347.164 779.844 345.716 771.108L252.075 206.148Z" stroke="url(#paint35_linear_0_1601)"/>
<path opacity="0.363636" d="M250.81 200.659C249.574 192.358 253.438 184.291 260.476 180.476L739.964 -79.4292C747.387 -83.4531 756.614 -81.8235 762.627 -75.4264L1142.5 328.689C1148.32 334.88 1149.8 344.132 1146.18 351.681L901.613 862.316C897.997 869.865 890.089 874.026 881.961 872.657L351.359 783.254C342.96 781.839 336.297 774.855 334.994 766.101L250.81 200.659Z" stroke="url(#paint36_linear_0_1601)"/>
<path opacity="0.373737" d="M249.659 195.27C248.558 186.934 252.563 178.92 259.676 175.229L742.352 -75.2143C749.834 -79.0964 759.014 -77.303 764.911 -70.8074L1137.35 339.481C1143.06 345.777 1144.39 355.064 1140.65 362.554L888.274 867.498C884.53 874.988 876.551 879.01 868.449 877.49L340.448 778.447C332.088 776.879 325.557 769.785 324.399 761.016L249.659 195.27Z" stroke="url(#paint37_linear_0_1601)"/>
<path opacity="0.383838" d="M248.621 189.979C247.654 181.608 251.801 173.65 258.986 170.085L744.687 -70.8574C752.225 -74.5966 761.356 -72.6409 767.133 -66.0495L1132.06 350.26C1137.66 356.659 1138.84 365.977 1134.96 373.407L874.899 872.524C871.028 879.954 862.98 883.835 854.906 882.166L329.659 773.551C321.343 771.831 314.945 764.631 313.932 755.849L248.621 189.979Z" stroke="url(#paint38_linear_0_1601)"/>
<path opacity="0.393939" d="M247.692 184.793C246.862 176.39 251.15 168.489 258.405 165.053L746.966 -66.3535C754.557 -69.9489 763.635 -67.8322 769.293 -61.1477L1126.62 361.03C1132.12 367.53 1133.13 376.876 1129.13 384.243L861.491 877.402C857.493 884.769 849.378 888.508 841.335 886.69L318.994 768.576C310.724 766.706 304.462 759.4 303.593 750.609L247.692 184.793Z" stroke="url(#paint39_linear_0_1601)"/>
<path opacity="0.40404" d="M246.872 179.707C246.179 171.275 250.608 163.434 257.932 160.126L749.188 -61.7098C756.83 -65.1605 765.853 -62.8844 771.389 -56.1095L1121.03 371.781C1126.42 378.381 1127.28 387.752 1123.15 395.054L848.053 882.124C843.929 889.426 835.749 893.023 827.74 891.056L308.456 763.517C300.234 761.498 294.109 754.091 293.386 745.294L246.872 179.707Z" stroke="url(#paint40_linear_0_1601)"/>
<path opacity="0.414141" d="M246.159 174.731C245.603 166.272 250.172 158.492 257.563 155.316L751.35 -56.9212C759.039 -60.2264 768.004 -57.7924 773.417 -50.9297L1115.3 382.518C1120.58 389.215 1121.28 398.609 1117.03 405.843L834.586 886.698C830.337 893.933 822.095 897.385 814.122 895.27L298.044 758.385C289.873 756.217 283.887 748.712 283.309 739.911L246.159 174.731Z" stroke="url(#paint41_linear_0_1601)"/>
<path opacity="0.424242" d="M245.55 169.862C245.132 161.378 249.841 153.663 257.297 150.618L753.449 -51.9932C761.184 -55.1521 770.088 -52.5617 775.377 -45.614L1109.43 393.234C1114.6 400.025 1115.13 409.44 1110.76 416.605L821.095 891.119C816.721 898.284 808.419 901.591 800.484 899.329L287.761 753.176C279.643 750.862 273.797 743.263 273.364 734.46L245.55 169.862Z" stroke="url(#paint42_linear_0_1601)"/>
<path opacity="0.434343" d="M245.043 165.102C244.764 156.594 249.613 148.947 257.132 146.035L755.483 -46.9276C763.261 -49.9394 772.102 -47.1944 777.265 -40.1644L1103.41 403.925C1108.46 410.81 1108.84 420.241 1104.34 427.334L807.581 895.386C803.084 902.479 794.723 905.64 786.829 903.232L277.606 747.895C269.545 745.436 263.84 737.744 263.551 728.943L245.043 165.102Z" stroke="url(#paint43_linear_0_1601)"/>
<path opacity="0.444444" d="M244.636 160.452C244.496 151.925 249.485 144.346 257.065 141.569L757.45 -41.7249C765.269 -44.5889 774.044 -41.6909 779.08 -34.5813L1097.25 414.591C1102.19 421.566 1102.4 431.011 1097.78 438.03L794.047 899.501C789.427 906.52 781.01 909.534 773.159 906.98L267.58 742.543C259.578 739.94 254.017 732.16 253.873 723.364L244.636 160.452Z" stroke="url(#paint44_linear_0_1601)"/>
<path opacity="0.454545" d="M244.328 155.918C244.328 147.372 249.455 139.865 257.095 137.224L759.349 -36.3846C767.205 -39.1003 775.912 -36.051 780.819 -28.8645L1090.94 425.23C1095.77 432.294 1095.82 441.75 1091.08 448.693L780.495 903.465C775.754 910.407 767.283 913.273 759.477 910.575L257.686 737.126C249.745 734.381 244.328 726.515 244.328 717.727L244.328 155.918Z" stroke="url(#paint45_linear_0_1601)"/>
<path opacity="0.464646" d="M244.116 151.496C244.257 142.934 249.521 135.502 257.219 132.998L761.176 -30.9115C769.068 -33.4782 777.703 -30.2794 782.482 -23.0187L1084.5 435.837C1089.2 442.987 1089.1 452.451 1084.24 459.315L766.929 907.275C762.066 914.139 753.544 916.856 745.786 914.014L247.924 731.644C240.046 728.758 234.775 720.809 234.919 712.032L244.116 151.496Z" stroke="url(#paint46_linear_0_1601)"/>
<path opacity="0.474747" d="M243.998 147.189C244.28 138.614 249.681 131.259 257.434 128.893L762.93 -25.307C770.854 -27.7244 779.416 -24.3778 784.065 -17.0457L1077.91 446.409C1082.5 453.643 1082.23 463.112 1077.25 469.895L753.35 910.931C748.368 917.715 739.796 920.281 732.089 917.297L238.294 726.099C230.482 723.074 225.358 715.045 225.646 706.281L243.998 147.189Z" stroke="url(#paint47_linear_0_1601)"/>
<path opacity="0.484848" d="M243.971 142.999C244.394 134.413 249.933 127.137 257.739 124.912L764.608 -19.5719C772.562 -21.8395 781.049 -18.3468 785.567 -10.9461L1071.19 456.944C1075.65 464.26 1075.22 473.731 1070.12 480.431L739.761 914.435C734.661 921.136 726.041 923.551 718.387 920.426L228.797 720.494C221.053 717.331 216.077 709.227 216.508 700.478L243.971 142.999Z" stroke="url(#paint48_linear_0_1601)"/>
<path opacity="0.494949" d="M244.034 138.928C244.599 130.334 250.273 123.14 258.131 121.056L766.208 -13.7077C774.191 -15.825 782.599 -12.1882 786.985 -4.72148L1064.32 467.441C1068.67 474.836 1068.07 484.306 1062.86 490.921L726.165 917.787C720.947 924.402 712.283 926.666 704.684 923.4L219.434 714.832C211.761 711.534 206.934 703.356 207.508 694.626L244.034 138.928Z" stroke="url(#paint49_linear_0_1601)"/>
<path opacity="0.50505" d="M244.185 134.98C244.892 126.379 250.701 119.271 258.608 117.329L767.73 -7.71403C775.737 -9.68062 784.065 -5.90152 788.318 1.62844L1057.32 477.898C1061.54 485.37 1060.79 494.836 1055.45 501.364L712.564 920.989C707.231 927.517 698.524 929.628 690.981 926.222L210.207 709.119C202.606 705.687 197.929 697.439 198.645 688.73L244.185 134.98Z" stroke="url(#paint50_linear_0_1601)"/>
<path opacity="0.515152" d="M244.42 131.151C245.27 122.548 251.213 115.526 259.167 113.728L769.169 -1.59591C777.199 -3.4116 785.445 0.507929 789.564 8.09843L1050.18 488.31C1054.28 495.857 1053.36 505.316 1047.91 511.754L698.961 924.039C693.512 930.476 684.765 932.434 677.283 928.89L201.114 703.354C193.588 699.789 189.062 691.474 189.92 682.789L244.42 131.151Z" stroke="url(#paint51_linear_0_1601)"/>
<path opacity="0.525253" d="M244.74 127.446C245.733 118.841 251.808 111.91 259.807 110.256L770.526 4.64566C778.575 2.98106 786.737 7.03913 790.722 14.6876L1042.9 498.676C1046.87 506.294 1045.8 515.743 1040.23 522.089L685.359 926.936C679.797 933.282 671.012 935.085 663.591 931.403L192.159 697.539C184.709 693.844 180.334 685.465 181.334 676.806L244.74 127.446Z" stroke="url(#paint52_linear_0_1601)"/>
<path opacity="0.535354" d="M245.139 123.864C246.275 115.262 252.483 108.423 260.525 106.915L771.796 11.0095C779.864 9.49628 787.939 13.6909 791.789 21.3946L1035.49 508.992C1039.34 516.681 1038.1 526.116 1032.42 532.368L671.76 929.683C666.085 935.934 657.264 937.582 649.907 933.765L183.34 691.679C175.968 687.855 171.746 679.416 172.886 670.786L245.139 123.864Z" stroke="url(#paint53_linear_0_1601)"/>
<path opacity="0.545455" d="M245.617 120.408C246.897 111.811 253.235 105.067 261.317 103.706L772.98 17.4936C781.062 16.1319 789.049 20.4612 792.764 28.2175L1027.95 519.257C1031.66 527.013 1030.26 536.432 1024.48 542.588L658.166 932.279C652.38 938.434 643.526 939.926 636.235 935.974L174.658 685.777C167.367 681.825 163.297 673.328 164.577 664.73L245.617 120.408Z" stroke="url(#paint54_linear_0_1601)"/>
<path opacity="0.555556" d="M246.171 117.078C247.595 108.487 254.064 101.842 262.183 100.628L774.074 24.0947C782.169 22.8845 790.066 27.3467 793.645 35.1528L1020.27 529.467C1023.86 537.289 1022.29 546.688 1016.4 552.745L644.58 934.724C638.684 940.78 629.8 942.116 622.577 938.03L166.114 679.833C158.906 675.755 154.99 667.204 156.409 658.64L246.171 117.078Z" stroke="url(#paint55_linear_0_1601)"/>
<path opacity="0.565657" d="M246.799 113.876C248.367 105.296 254.964 98.7516 263.119 97.6862L775.078 30.8133C783.182 29.7548 790.987 34.3477 794.429 42.2012L1012.46 539.622C1015.92 547.506 1014.19 556.883 1008.19 562.839L631.004 937.02C625 942.976 616.088 944.154 608.935 939.936L157.708 673.852C150.584 669.651 146.822 661.048 148.38 652.521L246.799 113.876Z" stroke="url(#paint56_linear_0_1601)"/>
<path opacity="0.575758" d="M247.5 110.803C249.212 102.235 255.935 95.7941 264.124 94.8785L775.989 37.6453C784.1 36.7384 791.811 41.4602 795.117 49.3584L1004.52 549.717C1007.85 557.662 1005.96 567.012 999.851 572.866L617.442 939.166C611.331 945.02 602.393 946.039 595.313 941.691L149.441 667.836C142.403 663.513 138.795 654.861 140.491 646.374L247.5 110.803Z" stroke="url(#paint57_linear_0_1601)"/>
<path opacity="0.585859" d="M248.269 107.86C250.125 99.3073 256.974 92.973 265.194 92.208L776.805 44.5909C784.921 43.8355 792.537 48.6841 795.705 56.6244L996.456 559.753C999.649 567.755 997.6 577.077 991.385 582.825L603.894 941.166C597.679 946.914 588.717 947.775 581.712 943.297L141.313 661.788C134.363 657.346 130.909 648.648 132.742 640.203L248.269 107.86Z" stroke="url(#paint58_linear_0_1601)"/>
<path opacity="0.59596" d="M249.105 105.046C251.105 96.512 258.079 90.2869 266.326 89.6733L777.524 51.6452C785.643 51.0412 793.161 56.0147 796.192 63.9947L988.26 569.724C991.32 577.782 989.111 587.071 982.792 592.711L590.364 943.015C584.045 948.656 575.062 949.358 568.135 944.753L133.324 655.71C126.463 651.149 123.164 642.409 125.133 634.008L249.105 105.046Z" stroke="url(#paint59_linear_0_1601)"/>
<path opacity="0.606061" d="M250.007 102.364C252.151 93.8511 259.247 87.7378 267.52 87.2765L778.147 58.8076C786.266 58.3549 793.685 63.4514 796.578 71.4685L979.938 579.629C982.865 587.739 980.495 596.993 974.074 602.525L576.855 944.718C570.434 950.249 561.433 950.792 554.584 946.06L125.474 649.606C118.705 644.928 115.561 636.149 117.665 627.794L250.007 102.364Z" stroke="url(#paint60_linear_0_1601)"/>
<path opacity="0.616162" d="M250.97 99.8149C253.258 91.3259 260.475 85.3271 268.771 85.0188L778.669 66.0762C786.786 65.7747 794.104 70.9922 796.859 79.0438L971.491 589.466C974.283 597.627 971.753 606.842 965.232 612.262L563.368 946.274C556.847 951.694 547.83 952.076 541.062 947.219L117.764 643.477C111.087 638.686 108.099 629.869 110.337 621.564L250.97 99.8149Z" stroke="url(#paint61_linear_0_1601)"/>
<path opacity="0.626263" d="M251.993 97.4006C254.425 88.9385 261.762 83.0569 270.079 82.9025L779.091 73.4505C787.203 73.2998 794.419 78.6363 797.036 86.72L962.92 599.234C965.577 607.444 962.888 616.617 956.269 621.924L549.906 947.686C543.287 952.992 534.256 953.214 527.571 948.234L110.194 637.329C103.611 632.425 100.778 623.574 103.15 615.32L251.993 97.4006Z" stroke="url(#paint62_linear_0_1601)"/>
<path opacity="0.636364" d="M253.075 95.1199C255.65 86.6875 263.105 80.9259 271.439 80.9259L779.41 80.9259C787.514 80.926 794.628 86.3794 797.106 94.4927L954.227 608.93C956.749 617.185 953.901 626.313 947.185 631.504L536.471 948.952C529.755 954.143 520.715 954.203 514.114 949.101L102.764 631.162C96.2763 626.147 93.599 617.265 96.1035 609.065L253.075 95.1199Z" stroke="url(#paint63_linear_0_1601)"/>
<path opacity="0.646465" d="M254.212 92.9735C256.93 84.5738 264.5 78.9349 272.85 79.0899L779.624 88.5003C787.719 88.6507 794.728 94.2192 797.067 102.36L945.414 618.551C947.798 626.848 944.792 635.929 937.982 641.002L523.066 950.074C516.256 955.147 507.207 955.046 500.693 949.824L95.473 624.978C89.0826 619.855 86.5609 610.945 89.1968 602.801L254.212 92.9735Z" stroke="url(#paint64_linear_0_1601)"/>
<path opacity="0.656566" d="M255.401 90.9632C258.263 82.5991 265.946 77.0857 274.308 77.3963L779.733 96.1727C787.816 96.473 794.718 102.155 796.919 110.32L936.481 628.095C938.728 636.433 935.565 645.462 928.662 650.416L509.693 951.053C502.789 956.006 493.735 955.743 487.31 950.403L88.3222 618.782C82.0302 613.553 79.6639 604.616 82.4302 596.531L255.401 90.9632Z" stroke="url(#paint65_linear_0_1601)"/>
<path opacity="0.666667" d="M256.642 89.0868C259.646 80.7613 267.441 75.3759 275.812 75.8426L779.735 103.938C787.804 104.388 794.598 110.18 796.661 118.368L927.43 637.558C929.54 645.934 926.221 654.909 919.227 659.741L496.354 951.887C489.36 956.719 480.303 956.293 473.968 950.836L81.3115 612.573C75.1193 607.239 72.9084 598.28 75.804 590.255L256.642 89.0868Z" stroke="url(#paint66_linear_0_1601)"/>
<path opacity="0.676768" d="M257.93 87.3497C261.076 79.0658 268.981 73.8111 277.359 74.4343L779.629 111.798C787.681 112.397 794.366 118.299 796.29 126.507L918.264 646.943C920.235 655.354 916.761 664.271 909.678 668.98L483.051 952.582C475.969 957.29 466.912 956.703 460.669 951.13L74.4402 606.36C68.349 600.922 66.2935 591.943 69.3173 583.981L257.93 87.3497Z" stroke="url(#paint67_linear_0_1601)"/>
<path opacity="0.686869" d="M259.265 85.7495C262.553 77.5101 270.564 72.3887 278.946 73.1688L779.413 119.749C787.446 120.496 794.021 126.505 795.806 134.731L908.983 656.244C910.815 664.688 907.187 673.545 900.018 678.127L469.788 953.136C462.618 957.719 453.564 956.969 447.416 951.283L67.7088 600.14C61.7199 594.602 59.8195 585.605 62.9704 577.708L259.265 85.7495Z" stroke="url(#paint68_linear_0_1601)"/>
<path opacity="0.69697" d="M260.643 84.2865C264.071 76.0946 272.188 71.1091 280.571 72.0464L779.085 127.787C787.097 128.683 793.561 134.797 795.207 143.038L899.589 665.459C901.282 673.934 897.501 682.727 890.247 687.182L456.565 953.551C449.311 958.006 440.262 957.093 434.21 951.296L61.1164 593.918C55.2311 588.281 53.4855 579.269 56.7623 571.439L260.643 84.2865Z" stroke="url(#paint69_linear_0_1601)"/>
<path opacity="0.707071" d="M262.062 82.9638C265.631 74.8224 273.85 69.9755 282.231 71.0703L778.645 135.913C786.634 136.956 792.985 143.174 794.493 151.428L890.084 674.589C891.637 683.092 887.704 691.818 880.368 696.144L443.385 953.829C436.049 958.154 427.008 957.079 421.054 951.172L54.6628 587.698C48.8822 581.964 47.2914 572.939 50.6929 565.179L262.062 82.9638Z" stroke="url(#paint70_linear_0_1601)"/>
<path opacity="0.717172" d="M263.521 81.7783C267.229 73.6905 275.548 68.9845 283.925 70.2369L778.092 144.121C786.055 145.311 792.292 151.63 793.662 159.895L880.47 683.629C881.883 692.157 877.799 700.813 870.383 705.008L430.251 953.968C422.836 958.163 413.806 956.924 407.95 950.909L48.3491 581.48C42.6743 575.65 41.2378 566.616 44.7629 558.927L263.521 81.7783Z" stroke="url(#paint71_linear_0_1601)"/>
<path opacity="0.727273" d="M265.015 80.7335C268.862 72.7021 277.278 68.1397 285.647 69.5498L777.424 152.411C785.359 153.748 791.481 160.167 792.713 168.44L870.748 692.58C872.02 701.13 867.787 709.714 860.293 713.776L417.165 953.973C409.671 958.034 400.655 956.633 394.901 950.512L42.1729 575.269C36.6051 569.346 35.3226 560.304 38.97 552.689L265.015 80.7335Z" stroke="url(#paint72_linear_0_1601)"/>
<path opacity="0.737374" d="M266.544 79.8272C270.528 71.8554 279.04 67.4389 287.398 69.0067L776.64 160.78C784.545 162.263 790.552 168.778 791.645 177.059L860.92 701.436C862.052 710.006 857.67 718.515 850.101 722.442L404.128 953.841C396.559 957.769 387.559 956.204 381.908 949.978L36.1356 569.066C30.6758 563.051 29.5469 554.004 33.3154 546.465L266.544 79.8272Z" stroke="url(#paint73_linear_0_1601)"/>
<path opacity="0.747475" d="M268.104 79.0631C272.225 71.1538 280.829 66.8857 289.173 68.6112L775.739 169.227C783.612 170.855 789.501 177.467 790.457 185.751L850.988 710.201C851.979 718.788 847.45 727.218 839.808 731.009L391.143 953.579C383.501 957.37 374.52 955.642 368.973 949.315L30.235 562.876C24.8841 556.772 23.9086 547.723 27.7969 540.26L268.104 79.0631Z" stroke="url(#paint74_linear_0_1601)"/>
<path opacity="0.757576" d="M269.693 78.4359C273.95 70.5922 282.643 66.4748 290.971 68.3579L774.72 177.745C782.558 179.518 788.329 186.223 789.148 194.51L840.953 718.866C841.803 727.469 837.129 735.816 829.416 739.469L378.212 953.181C370.5 956.834 361.541 954.944 356.1 948.516L24.4719 556.696C19.231 550.504 18.4084 541.455 22.4152 534.072L269.693 78.4359Z" stroke="url(#paint75_linear_0_1601)"/>
<path opacity="0.767677" d="M271.31 77.9505C275.701 70.1753 284.48 66.2108 292.788 68.2513L773.582 186.336C781.384 188.252 787.035 195.05 787.717 203.336L830.818 727.435C831.527 736.05 826.709 744.313 818.928 747.826L365.337 952.654C357.556 956.167 348.622 954.115 343.289 947.588L18.8452 550.535C13.7153 544.257 13.0451 535.21 17.1691 527.909L271.31 77.9505Z" stroke="url(#paint76_linear_0_1601)"/>
<path opacity="0.777778" d="M272.95 77.6075C277.475 69.9037 286.338 66.0945 294.623 68.2921L772.324 194.998C780.087 197.058 785.618 203.945 786.163 212.23L820.585 735.905C821.152 744.531 816.191 752.706 808.345 756.078L352.52 951.999C344.673 955.371 335.767 953.156 330.543 946.533L13.3547 544.394C8.33665 538.032 7.81855 528.99 12.0584 521.772L272.95 77.6075Z" stroke="url(#paint77_linear_0_1601)"/>
<path opacity="0.787879" d="M274.614 77.4051C279.271 69.7758 288.214 66.1239 296.473 68.4783L770.945 203.727C778.667 205.929 784.078 212.904 784.486 221.185L810.255 744.275C810.68 752.907 805.579 760.992 797.67 764.222L339.763 951.216C331.854 954.445 322.978 952.068 317.864 945.351L7.99973 538.275C3.09448 531.831 2.72789 522.796 7.08223 515.663L274.614 77.4051Z" stroke="url(#paint78_linear_0_1601)"/>
<path opacity="0.79798" d="M276.296 77.3408C281.084 69.789 290.104 66.2965 298.335 68.8073L769.444 212.518C777.123 214.861 782.412 221.922 782.683 230.197L799.83 752.539C800.113 761.176 794.873 769.167 786.904 772.253L327.067 950.303C319.098 953.389 310.256 950.85 305.254 944.04L2.77912 532.178C-2.01247 525.653 -2.22804 516.627 2.23943 509.581L276.296 77.3408Z" stroke="url(#paint79_linear_0_1601)"/>
<path opacity="0.808081" d="M277.997 77.4199C282.914 69.9485 292.008 66.6174 300.207 69.2841L767.82 221.373C775.455 223.856 780.621 231.002 780.756 239.269L789.312 760.701C789.453 769.34 784.077 777.235 776.05 780.176L314.436 949.268C306.409 952.208 297.603 949.508 292.715 942.607L-2.30724 526.11C-6.98436 519.507 -7.04945 510.492 -2.47026 503.535L277.997 77.4199Z" stroke="url(#paint80_linear_0_1601)"/>
<path opacity="0.818182" d="M279.712 77.6376C284.757 70.2494 293.922 67.0816 302.086 69.9036L766.073 230.285C773.661 232.908 778.703 240.137 778.703 248.393L778.703 768.755C778.703 777.393 773.191 785.19 765.109 787.984L301.871 948.106C293.788 950.9 285.022 948.039 280.248 941.05L-7.26064 520.069C-11.8224 513.389 -11.7376 504.388 -7.04807 497.522L279.712 77.6376Z" stroke="url(#paint81_linear_0_1601)"/>
<path opacity="0.828283" d="M281.44 77.998C286.612 70.696 295.844 67.6935 303.97 70.6702L764.202 239.256C771.741 242.018 776.658 249.327 776.523 257.572L768.005 776.703C767.864 785.339 762.218 793.034 754.084 795.679L289.374 946.824C281.239 949.47 272.514 946.449 267.857 939.374L-12.0812 514.062C-16.5269 507.307 -16.2926 498.322 -11.4942 491.548L281.44 77.998Z" stroke="url(#paint82_linear_0_1601)"/>
<path opacity="0.838384" d="M283.179 78.4974C288.476 71.2845 297.772 68.449 305.857 71.5796L762.207 248.28C769.695 251.179 774.487 258.568 774.217 266.798L757.221 784.54C756.938 793.171 751.162 800.762 742.978 803.258L276.946 945.42C268.762 947.917 260.082 944.736 255.543 937.576L-16.7696 508.087C-21.0984 501.259 -20.7154 492.292 -15.8095 485.612L283.179 78.4974Z" stroke="url(#paint83_linear_0_1601)"/>
<path opacity="0.848485" d="M284.925 79.1395C290.345 72.0186 299.701 69.3517 307.742 72.6354L760.085 257.357C767.52 260.393 772.186 267.859 771.781 276.074L746.352 792.27C745.927 800.892 740.021 808.376 731.79 810.722L264.59 943.899C256.359 946.245 247.727 942.905 243.306 935.664L-21.3285 502.151C-25.5397 495.253 -25.0084 486.305 -19.9966 479.721L284.925 79.1395Z" stroke="url(#paint84_linear_0_1601)"/>
<path opacity="0.858586" d="M286.677 79.9199C292.219 72.8936 301.631 70.3971 309.625 73.833L757.838 266.482C765.218 269.654 769.756 277.195 769.217 285.392L735.399 799.885C734.833 808.497 728.8 815.871 720.525 818.066L252.306 942.258C244.032 944.453 235.45 940.954 231.15 933.633L-25.7572 496.253C-29.85 489.285 -29.1711 480.359 -24.0548 473.873L286.677 79.9199Z" stroke="url(#paint85_linear_0_1601)"/>
<path opacity="0.868687" d="M288.433 80.8413C294.095 73.9126 303.56 71.5879 311.504 75.1751L755.464 275.654C762.788 278.961 767.198 286.576 766.525 294.753L724.366 807.388C723.659 815.987 717.501 823.25 709.185 825.292L240.099 940.502C231.783 942.544 223.255 938.889 219.076 931.49L-30.0568 490.397C-34.0306 483.361 -33.2046 474.46 -27.9853 468.073L288.433 80.8413Z" stroke="url(#paint86_linear_0_1601)"/>
<path opacity="0.878788" d="M290.19 81.9047C295.969 75.0762 305.484 72.9247 313.374 76.6621L752.964 284.872C760.228 288.313 764.509 296 763.704 304.155L713.255 814.779C712.407 823.362 706.126 830.51 697.772 832.399L227.968 938.634C219.614 940.523 211.143 936.71 207.087 929.236L-34.2285 484.587C-38.0825 477.485 -37.1102 468.61 -31.7894 462.324L290.19 81.9047Z" stroke="url(#paint87_linear_0_1601)"/>
<path opacity="0.888889" d="M291.945 83.1056C297.84 76.3801 307.4 74.4032 315.235 78.2896L750.335 294.13C757.538 297.704 761.69 305.461 760.752 313.593L702.066 822.052C701.078 830.617 694.676 837.649 686.287 839.383L215.915 936.651C207.526 938.385 199.114 934.417 195.182 926.87L-38.274 478.821C-42.0076 471.656 -40.8896 462.809 -35.4688 456.625L291.945 83.1056Z" stroke="url(#paint88_linear_0_1601)"/>
<path opacity="0.89899" d="M293.697 84.4465C299.706 77.8266 309.308 76.0254 317.083 80.0597L747.578 303.428C754.719 307.133 758.741 314.959 757.67 323.065L690.804 829.209C689.675 837.754 683.155 844.666 674.734 846.245L203.943 934.557C195.521 936.137 187.172 932.014 183.365 924.396L-42.1936 473.105C-45.8061 465.877 -44.543 457.061 -39.0238 450.98L293.697 84.4465Z" stroke="url(#paint89_linear_0_1601)"/>
<path opacity="0.909091" d="M295.443 85.9278C301.564 79.4161 311.204 77.7918 318.917 81.9726L744.693 312.764C751.77 316.6 755.66 324.492 754.457 332.571L679.469 836.25C678.2 844.771 671.564 851.562 663.114 852.986L192.052 932.357C183.602 933.781 175.318 929.504 171.636 921.817L-45.9884 467.442C-49.4793 460.153 -48.0716 451.369 -42.4556 445.394L295.443 85.9278Z" stroke="url(#paint90_linear_0_1601)"/>
<path opacity="0.919192" d="M297.181 87.5451C303.411 81.1442 313.086 79.6978 320.733 84.0237L741.68 322.131C748.69 326.097 752.449 334.054 751.115 342.104L668.064 843.169C666.656 851.665 659.906 858.331 651.43 859.599L180.246 930.046C171.769 931.313 163.553 926.884 159.999 919.131L-49.6598 461.829C-53.0283 454.482 -51.4769 445.731 -45.7655 439.864L297.181 87.5451Z" stroke="url(#paint91_linear_0_1601)"/>
<path opacity="0.929293" d="M298.908 89.3016C305.246 83.014 314.951 81.7465 322.53 86.2161L738.537 331.531C745.48 335.625 749.106 343.645 747.64 351.665L656.591 849.969C655.044 858.436 648.183 864.977 639.683 866.088L168.524 927.631C160.024 928.741 151.879 924.161 148.453 916.343L-53.2094 456.273C-56.4549 448.869 -54.7604 440.154 -48.9553 434.395L298.908 89.3016Z" stroke="url(#paint92_linear_0_1601)"/>
<path opacity="0.939394" d="M300.623 91.1961C307.066 85.0243 316.797 83.9363 324.305 88.5481L735.265 340.961C742.138 345.182 745.63 353.263 744.034 361.25L645.052 856.648C643.367 865.085 636.397 871.498 627.877 872.45L156.889 925.113C148.369 926.066 140.298 921.335 137 913.455L-56.638 450.775C-59.76 443.316 -57.9229 434.639 -52.0257 428.99L300.623 91.1961Z" stroke="url(#paint93_linear_0_1601)"/>
<path opacity="0.949495" d="M302.323 93.2303C308.869 87.1767 318.621 86.269 326.056 91.0214L731.864 350.419C738.664 354.766 742.023 362.907 740.297 370.859L633.449 863.208C631.626 871.612 624.549 877.894 616.013 878.689L145.342 922.496C136.805 923.29 128.811 918.41 125.643 910.471L-59.9474 445.34C-62.9451 437.827 -60.9663 429.19 -54.9786 423.653L302.323 93.2303Z" stroke="url(#paint94_linear_0_1601)"/>
<path opacity="0.959596" d="M304.006 95.3965C310.652 89.4634 320.423 88.7365 327.781 93.6278L728.333 359.897C735.06 364.369 738.284 372.567 736.429 380.483L621.786 869.64C619.825 878.009 612.645 884.159 604.094 884.795L133.885 919.774C125.334 920.41 117.419 915.383 114.382 907.386L-63.1377 439.963C-66.0107 432.398 -63.8908 423.803 -57.8142 418.378L304.006 95.3965Z" stroke="url(#paint95_linear_0_1601)"/>
<path opacity="0.969697" d="M305.669 97.7013C312.414 91.8911 322.199 91.3455 329.477 96.3739L724.673 369.398C731.325 373.994 734.413 382.248 732.429 390.127L610.063 875.951C607.965 884.282 600.683 890.298 592.122 890.775L122.519 916.957C113.957 917.434 106.125 912.261 103.22 904.209L-66.2113 434.653C-68.9591 427.038 -66.6987 418.486 -60.5349 413.176L305.669 97.7013Z" stroke="url(#paint96_linear_0_1601)"/>
<path opacity="0.979798" d="M307.311 100.138C314.151 94.4531 323.946 94.0892 331.143 99.2528L720.883 378.916C727.458 383.634 730.41 391.942 728.297 399.781L598.283 882.135C596.048 890.425 588.668 896.305 580.099 896.623L111.245 914.041C102.676 914.359 94.9287 909.041 92.1562 900.937L-69.1695 429.407C-71.7914 421.743 -69.3913 413.236 -63.1419 408.042L307.311 100.138Z" stroke="url(#paint97_linear_0_1601)"/>
<path opacity="0.989899" d="M308.929 102.713C315.862 97.1551 325.664 96.9731 332.775 102.27L716.963 388.453C723.459 393.292 726.274 401.652 724.033 409.45L586.448 888.196C584.078 896.443 576.602 902.185 568.028 902.344L100.066 911.034C91.4921 911.193 83.8325 905.732 81.1934 897.578L-72.0136 424.232C-74.509 416.522 -71.9699 408.062 -65.6366 402.985L308.929 102.713Z" stroke="url(#paint98_linear_0_1601)"/>
<path d="M310.522 105.42C317.545 99.9919 327.348 99.992 334.372 105.42L712.914 398.002C719.329 402.961 722.007 411.372 719.638 419.127L574.561 894.13C572.056 902.331 564.487 907.934 555.911 907.934H88.9822C80.4067 907.934 72.8376 902.331 70.3327 894.13L-74.7448 419.127C-77.1133 411.372 -74.4358 402.961 -68.0203 398.002L310.522 105.42Z" stroke="url(#paint99_linear_0_1601)"/>
</g>
</g>
</g>
<defs>
<linearGradient id="paint0_linear_0_1601" x1="800" y1="0" x2="800" y2="344" gradientUnits="userSpaceOnUse">
<stop stop-color="#218753"/>
<stop offset="1" stop-color="#187B49"/>
</linearGradient>
<linearGradient id="paint1_linear_0_1601" x1="364.997" y1="425.353" x2="1424.3" y2="285.41" gradientUnits="userSpaceOnUse">
<stop stop-color="#31E085"/>
<stop offset="1" stop-color="#22E1ED"/>
</linearGradient>
<linearGradient id="paint2_linear_0_1601" x1="359.125" y1="417.759" x2="1418.37" y2="295.504" gradientUnits="userSpaceOnUse">
<stop stop-color="#31E085"/>
<stop offset="1" stop-color="#22E1ED"/>
</linearGradient>
<linearGradient id="paint3_linear_0_1601" x1="353.413" y1="410.18" x2="1412.34" y2="305.56" gradientUnits="userSpaceOnUse">
<stop stop-color="#31E085"/>
<stop offset="1" stop-color="#22E1ED"/>
</linearGradient>
<linearGradient id="paint4_linear_0_1601" x1="347.859" y1="402.619" x2="1406.22" y2="315.581" gradientUnits="userSpaceOnUse">
<stop stop-color="#31E085"/>
<stop offset="1" stop-color="#22E1ED"/>
</linearGradient>
<linearGradient id="paint5_linear_0_1601" x1="342.463" y1="395.079" x2="1399.99" y2="325.566" gradientUnits="userSpaceOnUse">
<stop stop-color="#31E085"/>
<stop offset="1" stop-color="#22E1ED"/>
</linearGradient>
<linearGradient id="paint6_linear_0_1601" x1="337.224" y1="387.56" x2="1393.68" y2="335.516" gradientUnits="userSpaceOnUse">
<stop stop-color="#31E085"/>
<stop offset="1" stop-color="#22E1ED"/>
</linearGradient>
<linearGradient id="paint7_linear_0_1601" x1="332.143" y1="380.067" x2="1387.27" y2="345.432" gradientUnits="userSpaceOnUse">
<stop stop-color="#31E085"/>
<stop offset="1" stop-color="#22E1ED"/>
</linearGradient>
<linearGradient id="paint8_linear_0_1601" x1="327.217" y1="372.606" x2="1380.76" y2="355.319" gradientUnits="userSpaceOnUse">
<stop stop-color="#31E085"/>
<stop offset="1" stop-color="#22E1ED"/>
</linearGradient>
<linearGradient id="paint9_linear_0_1601" x1="322.447" y1="365.175" x2="1374.17" y2="365.175" gradientUnits="userSpaceOnUse">
<stop stop-color="#31E085"/>
<stop offset="1" stop-color="#22E1ED"/>
</linearGradient>
<linearGradient id="paint10_linear_0_1601" x1="317.83" y1="357.778" x2="1367.48" y2="375" gradientUnits="userSpaceOnUse">
<stop stop-color="#31E085"/>
<stop offset="1" stop-color="#22E1ED"/>
</linearGradient>
<linearGradient id="paint11_linear_0_1601" x1="313.369" y1="350.421" x2="1360.71" y2="384.8" gradientUnits="userSpaceOnUse">
<stop stop-color="#31E085"/>
<stop offset="1" stop-color="#22E1ED"/>
</linearGradient>
<linearGradient id="paint12_linear_0_1601" x1="309.058" y1="343.102" x2="1353.84" y2="394.571" gradientUnits="userSpaceOnUse">
<stop stop-color="#31E085"/>
<stop offset="1" stop-color="#22E1ED"/>
</linearGradient>
<linearGradient id="paint13_linear_0_1601" x1="304.9" y1="335.828" x2="1346.88" y2="404.319" gradientUnits="userSpaceOnUse">
<stop stop-color="#31E085"/>
<stop offset="1" stop-color="#22E1ED"/>
</linearGradient>
<linearGradient id="paint14_linear_0_1601" x1="300.892" y1="328.6" x2="1339.83" y2="414.042" gradientUnits="userSpaceOnUse">
<stop stop-color="#31E085"/>
<stop offset="1" stop-color="#22E1ED"/>
</linearGradient>
<linearGradient id="paint15_linear_0_1601" x1="297.034" y1="321.421" x2="1332.69" y2="423.741" gradientUnits="userSpaceOnUse">
<stop stop-color="#31E085"/>
<stop offset="1" stop-color="#22E1ED"/>
</linearGradient>
<linearGradient id="paint16_linear_0_1601" x1="293.324" y1="314.293" x2="1325.46" y2="433.419" gradientUnits="userSpaceOnUse">
<stop stop-color="#31E085"/>
<stop offset="1" stop-color="#22E1ED"/>
</linearGradient>
<linearGradient id="paint17_linear_0_1601" x1="289.762" y1="307.221" x2="1318.14" y2="443.078" gradientUnits="userSpaceOnUse">
<stop stop-color="#31E085"/>
<stop offset="1" stop-color="#22E1ED"/>
</linearGradient>
<linearGradient id="paint18_linear_0_1601" x1="286.345" y1="300.204" x2="1310.72" y2="452.715" gradientUnits="userSpaceOnUse">
<stop stop-color="#31E085"/>
<stop offset="1" stop-color="#22E1ED"/>
</linearGradient>
<linearGradient id="paint19_linear_0_1601" x1="283.073" y1="293.248" x2="1303.22" y2="462.335" gradientUnits="userSpaceOnUse">
<stop stop-color="#31E085"/>
<stop offset="1" stop-color="#22E1ED"/>
</linearGradient>
<linearGradient id="paint20_linear_0_1601" x1="279.945" y1="286.352" x2="1295.62" y2="471.933" gradientUnits="userSpaceOnUse">
<stop stop-color="#31E085"/>
<stop offset="1" stop-color="#22E1ED"/>
</linearGradient>
<linearGradient id="paint21_linear_0_1601" x1="276.96" y1="279.525" x2="1287.93" y2="481.519" gradientUnits="userSpaceOnUse">
<stop stop-color="#31E085"/>
<stop offset="1" stop-color="#22E1ED"/>
</linearGradient>
<linearGradient id="paint22_linear_0_1601" x1="274.114" y1="272.761" x2="1280.14" y2="491.084" gradientUnits="userSpaceOnUse">
<stop stop-color="#31E085"/>
<stop offset="1" stop-color="#22E1ED"/>
</linearGradient>
<linearGradient id="paint23_linear_0_1601" x1="271.409" y1="266.07" x2="1272.25" y2="500.636" gradientUnits="userSpaceOnUse">
<stop stop-color="#31E085"/>
<stop offset="1" stop-color="#22E1ED"/>
</linearGradient>
<linearGradient id="paint24_linear_0_1601" x1="268.841" y1="259.452" x2="1264.27" y2="510.173" gradientUnits="userSpaceOnUse">
<stop stop-color="#31E085"/>
<stop offset="1" stop-color="#22E1ED"/>
</linearGradient>
<linearGradient id="paint25_linear_0_1601" x1="266.41" y1="252.907" x2="1256.19" y2="519.692" gradientUnits="userSpaceOnUse">
<stop stop-color="#31E085"/>
<stop offset="1" stop-color="#22E1ED"/>
</linearGradient>
<linearGradient id="paint26_linear_0_1601" x1="264.114" y1="246.438" x2="1248.01" y2="529.197" gradientUnits="userSpaceOnUse">
<stop stop-color="#31E085"/>
<stop offset="1" stop-color="#22E1ED"/>
</linearGradient>
<linearGradient id="paint27_linear_0_1601" x1="261.951" y1="240.052" x2="1239.73" y2="538.688" gradientUnits="userSpaceOnUse">
<stop stop-color="#31E085"/>
<stop offset="1" stop-color="#22E1ED"/>
</linearGradient>
<linearGradient id="paint28_linear_0_1601" x1="259.921" y1="233.747" x2="1231.34" y2="548.164" gradientUnits="userSpaceOnUse">
<stop stop-color="#31E085"/>
<stop offset="1" stop-color="#22E1ED"/>
</linearGradient>
<linearGradient id="paint29_linear_0_1601" x1="258.02" y1="227.529" x2="1222.85" y2="557.628" gradientUnits="userSpaceOnUse">
<stop stop-color="#31E085"/>
<stop offset="1" stop-color="#22E1ED"/>
</linearGradient>
<linearGradient id="paint30_linear_0_1601" x1="256.248" y1="221.393" x2="1214.25" y2="567.073" gradientUnits="userSpaceOnUse">
<stop stop-color="#31E085"/>
<stop offset="1" stop-color="#22E1ED"/>
</linearGradient>
<linearGradient id="paint31_linear_0_1601" x1="254.602" y1="215.351" x2="1205.55" y2="576.506" gradientUnits="userSpaceOnUse">
<stop stop-color="#31E085"/>
<stop offset="1" stop-color="#22E1ED"/>
</linearGradient>
<linearGradient id="paint32_linear_0_1601" x1="253.082" y1="209.396" x2="1196.73" y2="585.918" gradientUnits="userSpaceOnUse">
<stop stop-color="#31E085"/>
<stop offset="1" stop-color="#22E1ED"/>
</linearGradient>
<linearGradient id="paint33_linear_0_1601" x1="251.685" y1="203.537" x2="1187.81" y2="595.318" gradientUnits="userSpaceOnUse">
<stop stop-color="#31E085"/>
<stop offset="1" stop-color="#22E1ED"/>
</linearGradient>
<linearGradient id="paint34_linear_0_1601" x1="250.409" y1="197.772" x2="1178.77" y2="604.698" gradientUnits="userSpaceOnUse">
<stop stop-color="#31E085"/>
<stop offset="1" stop-color="#22E1ED"/>
</linearGradient>
<linearGradient id="paint35_linear_0_1601" x1="249.253" y1="192.108" x2="1169.61" y2="614.062" gradientUnits="userSpaceOnUse">
<stop stop-color="#31E085"/>
<stop offset="1" stop-color="#22E1ED"/>
</linearGradient>
<linearGradient id="paint36_linear_0_1601" x1="248.215" y1="186.541" x2="1160.33" y2="623.404" gradientUnits="userSpaceOnUse">
<stop stop-color="#31E085"/>
<stop offset="1" stop-color="#22E1ED"/>
</linearGradient>
<linearGradient id="paint37_linear_0_1601" x1="247.292" y1="181.078" x2="1150.94" y2="632.728" gradientUnits="userSpaceOnUse">
<stop stop-color="#31E085"/>
<stop offset="1" stop-color="#22E1ED"/>
</linearGradient>
<linearGradient id="paint38_linear_0_1601" x1="246.484" y1="175.716" x2="1141.43" y2="642.026" gradientUnits="userSpaceOnUse">
<stop stop-color="#31E085"/>
<stop offset="1" stop-color="#22E1ED"/>
</linearGradient>
<linearGradient id="paint39_linear_0_1601" x1="245.786" y1="170.462" x2="1131.79" y2="651.303" gradientUnits="userSpaceOnUse">
<stop stop-color="#31E085"/>
<stop offset="1" stop-color="#22E1ED"/>
</linearGradient>
<linearGradient id="paint40_linear_0_1601" x1="245.2" y1="165.313" x2="1122.02" y2="660.551" gradientUnits="userSpaceOnUse">
<stop stop-color="#31E085"/>
<stop offset="1" stop-color="#22E1ED"/>
</linearGradient>
<linearGradient id="paint41_linear_0_1601" x1="244.721" y1="160.277" x2="1112.13" y2="669.774" gradientUnits="userSpaceOnUse">
<stop stop-color="#31E085"/>
<stop offset="1" stop-color="#22E1ED"/>
</linearGradient>
<linearGradient id="paint42_linear_0_1601" x1="244.348" y1="155.352" x2="1102.11" y2="678.968" gradientUnits="userSpaceOnUse">
<stop stop-color="#31E085"/>
<stop offset="1" stop-color="#22E1ED"/>
</linearGradient>
<linearGradient id="paint43_linear_0_1601" x1="244.079" y1="150.539" x2="1091.96" y2="688.128" gradientUnits="userSpaceOnUse">
<stop stop-color="#31E085"/>
<stop offset="1" stop-color="#22E1ED"/>
</linearGradient>
<linearGradient id="paint44_linear_0_1601" x1="243.911" y1="145.841" x2="1081.67" y2="697.253" gradientUnits="userSpaceOnUse">
<stop stop-color="#31E085"/>
<stop offset="1" stop-color="#22E1ED"/>
</linearGradient>
<linearGradient id="paint45_linear_0_1601" x1="243.842" y1="141.261" x2="1071.25" y2="706.343" gradientUnits="userSpaceOnUse">
<stop stop-color="#31E085"/>
<stop offset="1" stop-color="#22E1ED"/>
</linearGradient>
<linearGradient id="paint46_linear_0_1601" x1="243.872" y1="136.799" x2="1060.7" y2="715.391" gradientUnits="userSpaceOnUse">
<stop stop-color="#31E085"/>
<stop offset="1" stop-color="#22E1ED"/>
</linearGradient>
<linearGradient id="paint47_linear_0_1601" x1="243.996" y1="132.456" x2="1050.01" y2="724.396" gradientUnits="userSpaceOnUse">
<stop stop-color="#31E085"/>
<stop offset="1" stop-color="#22E1ED"/>
</linearGradient>
<linearGradient id="paint48_linear_0_1601" x1="244.213" y1="128.233" x2="1039.17" y2="733.354" gradientUnits="userSpaceOnUse">
<stop stop-color="#31E085"/>
<stop offset="1" stop-color="#22E1ED"/>
</linearGradient>
<linearGradient id="paint49_linear_0_1601" x1="244.521" y1="124.134" x2="1028.2" y2="742.263" gradientUnits="userSpaceOnUse">
<stop stop-color="#31E085"/>
<stop offset="1" stop-color="#22E1ED"/>
</linearGradient>
<linearGradient id="paint50_linear_0_1601" x1="244.917" y1="120.162" x2="1017.08" y2="751.121" gradientUnits="userSpaceOnUse">
<stop stop-color="#31E085"/>
<stop offset="1" stop-color="#22E1ED"/>
</linearGradient>
<linearGradient id="paint51_linear_0_1601" x1="245.399" y1="116.314" x2="1005.82" y2="759.921" gradientUnits="userSpaceOnUse">
<stop stop-color="#31E085"/>
<stop offset="1" stop-color="#22E1ED"/>
</linearGradient>
<linearGradient id="paint52_linear_0_1601" x1="245.965" y1="112.593" x2="994.419" y2="768.66" gradientUnits="userSpaceOnUse">
<stop stop-color="#31E085"/>
<stop offset="1" stop-color="#22E1ED"/>
</linearGradient>
<linearGradient id="paint53_linear_0_1601" x1="246.613" y1="109.001" x2="982.87" y2="777.336" gradientUnits="userSpaceOnUse">
<stop stop-color="#31E085"/>
<stop offset="1" stop-color="#22E1ED"/>
</linearGradient>
<linearGradient id="paint54_linear_0_1601" x1="247.34" y1="105.539" x2="971.175" y2="785.943" gradientUnits="userSpaceOnUse">
<stop stop-color="#31E085"/>
<stop offset="1" stop-color="#22E1ED"/>
</linearGradient>
<linearGradient id="paint55_linear_0_1601" x1="248.145" y1="102.207" x2="959.333" y2="794.477" gradientUnits="userSpaceOnUse">
<stop stop-color="#31E085"/>
<stop offset="1" stop-color="#22E1ED"/>
</linearGradient>
<linearGradient id="paint56_linear_0_1601" x1="249.023" y1="99.0088" x2="947.344" y2="802.935" gradientUnits="userSpaceOnUse">
<stop stop-color="#31E085"/>
<stop offset="1" stop-color="#22E1ED"/>
</linearGradient>
<linearGradient id="paint57_linear_0_1601" x1="249.974" y1="95.9431" x2="935.209" y2="811.312" gradientUnits="userSpaceOnUse">
<stop stop-color="#31E085"/>
<stop offset="1" stop-color="#22E1ED"/>
</linearGradient>
<linearGradient id="paint58_linear_0_1601" x1="250.994" y1="93.0131" x2="922.925" y2="819.603" gradientUnits="userSpaceOnUse">
<stop stop-color="#31E085"/>
<stop offset="1" stop-color="#22E1ED"/>
</linearGradient>
<linearGradient id="paint59_linear_0_1601" x1="252.082" y1="90.2173" x2="910.495" y2="827.803" gradientUnits="userSpaceOnUse">
<stop stop-color="#31E085"/>
<stop offset="1" stop-color="#22E1ED"/>
</linearGradient>
<linearGradient id="paint60_linear_0_1601" x1="253.235" y1="87.558" x2="897.918" y2="835.907" gradientUnits="userSpaceOnUse">
<stop stop-color="#31E085"/>
<stop offset="1" stop-color="#22E1ED"/>
</linearGradient>
<linearGradient id="paint61_linear_0_1601" x1="254.45" y1="85.0365" x2="885.193" y2="843.912" gradientUnits="userSpaceOnUse">
<stop stop-color="#31E085"/>
<stop offset="1" stop-color="#22E1ED"/>
</linearGradient>
<linearGradient id="paint62_linear_0_1601" x1="255.726" y1="82.655" x2="872.324" y2="851.813" gradientUnits="userSpaceOnUse">
<stop stop-color="#31E085"/>
<stop offset="1" stop-color="#22E1ED"/>
</linearGradient>
<linearGradient id="paint63_linear_0_1601" x1="257.059" y1="80.4121" x2="859.31" y2="859.604" gradientUnits="userSpaceOnUse">
<stop stop-color="#31E085"/>
<stop offset="1" stop-color="#22E1ED"/>
</linearGradient>
<linearGradient id="paint64_linear_0_1601" x1="258.447" y1="78.3088" x2="846.153" y2="867.279" gradientUnits="userSpaceOnUse">
<stop stop-color="#31E085"/>
<stop offset="1" stop-color="#22E1ED"/>
</linearGradient>
<linearGradient id="paint65_linear_0_1601" x1="259.888" y1="76.3468" x2="832.853" y2="874.835" gradientUnits="userSpaceOnUse">
<stop stop-color="#31E085"/>
<stop offset="1" stop-color="#22E1ED"/>
</linearGradient>
<linearGradient id="paint66_linear_0_1601" x1="261.38" y1="74.5239" x2="819.413" y2="882.263" gradientUnits="userSpaceOnUse">
<stop stop-color="#31E085"/>
<stop offset="1" stop-color="#22E1ED"/>
</linearGradient>
<linearGradient id="paint67_linear_0_1601" x1="262.918" y1="72.8456" x2="805.835" y2="889.563" gradientUnits="userSpaceOnUse">
<stop stop-color="#31E085"/>
<stop offset="1" stop-color="#22E1ED"/>
</linearGradient>
<linearGradient id="paint68_linear_0_1601" x1="264.503" y1="71.3094" x2="792.121" y2="896.727" gradientUnits="userSpaceOnUse">
<stop stop-color="#31E085"/>
<stop offset="1" stop-color="#22E1ED"/>
</linearGradient>
<linearGradient id="paint69_linear_0_1601" x1="266.129" y1="69.9158" x2="778.272" y2="903.749" gradientUnits="userSpaceOnUse">
<stop stop-color="#31E085"/>
<stop offset="1" stop-color="#22E1ED"/>
</linearGradient>
<linearGradient id="paint70_linear_0_1601" x1="267.796" y1="68.668" x2="764.292" y2="910.628" gradientUnits="userSpaceOnUse">
<stop stop-color="#31E085"/>
<stop offset="1" stop-color="#22E1ED"/>
</linearGradient>
<linearGradient id="paint71_linear_0_1601" x1="269.502" y1="67.5627" x2="750.185" y2="917.355" gradientUnits="userSpaceOnUse">
<stop stop-color="#31E085"/>
<stop offset="1" stop-color="#22E1ED"/>
</linearGradient>
<linearGradient id="paint72_linear_0_1601" x1="271.242" y1="66.6035" x2="735.952" y2="923.927" gradientUnits="userSpaceOnUse">
<stop stop-color="#31E085"/>
<stop offset="1" stop-color="#22E1ED"/>
</linearGradient>
<linearGradient id="paint73_linear_0_1601" x1="273.015" y1="65.7883" x2="721.599" y2="930.337" gradientUnits="userSpaceOnUse">
<stop stop-color="#31E085"/>
<stop offset="1" stop-color="#22E1ED"/>
</linearGradient>
<linearGradient id="paint74_linear_0_1601" x1="274.818" y1="65.1207" x2="707.126" y2="936.584" gradientUnits="userSpaceOnUse">
<stop stop-color="#31E085"/>
<stop offset="1" stop-color="#22E1ED"/>
</linearGradient>
<linearGradient id="paint75_linear_0_1601" x1="276.649" y1="64.5954" x2="692.541" y2="942.658" gradientUnits="userSpaceOnUse">
<stop stop-color="#31E085"/>
<stop offset="1" stop-color="#22E1ED"/>
</linearGradient>
<linearGradient id="paint76_linear_0_1601" x1="278.504" y1="64.2173" x2="677.845" y2="948.557" gradientUnits="userSpaceOnUse">
<stop stop-color="#31E085"/>
<stop offset="1" stop-color="#22E1ED"/>
</linearGradient>
<linearGradient id="paint77_linear_0_1601" x1="280.383" y1="63.9871" x2="663.044" y2="954.279" gradientUnits="userSpaceOnUse">
<stop stop-color="#31E085"/>
<stop offset="1" stop-color="#22E1ED"/>
</linearGradient>
<linearGradient id="paint78_linear_0_1601" x1="282.282" y1="63.9029" x2="648.143" y2="959.817" gradientUnits="userSpaceOnUse">
<stop stop-color="#31E085"/>
<stop offset="1" stop-color="#22E1ED"/>
</linearGradient>
<linearGradient id="paint79_linear_0_1601" x1="284.198" y1="63.9622" x2="633.146" y2="965.164" gradientUnits="userSpaceOnUse">
<stop stop-color="#31E085"/>
<stop offset="1" stop-color="#22E1ED"/>
</linearGradient>
<linearGradient id="paint80_linear_0_1601" x1="286.13" y1="64.1702" x2="618.059" y2="970.321" gradientUnits="userSpaceOnUse">
<stop stop-color="#31E085"/>
<stop offset="1" stop-color="#22E1ED"/>
</linearGradient>
<linearGradient id="paint81_linear_0_1601" x1="288.074" y1="64.5221" x2="602.886" y2="975.28" gradientUnits="userSpaceOnUse">
<stop stop-color="#31E085"/>
<stop offset="1" stop-color="#22E1ED"/>
</linearGradient>
<linearGradient id="paint82_linear_0_1601" x1="290.029" y1="65.0222" x2="587.634" y2="980.041" gradientUnits="userSpaceOnUse">
<stop stop-color="#31E085"/>
<stop offset="1" stop-color="#22E1ED"/>
</linearGradient>
<linearGradient id="paint83_linear_0_1601" x1="291.992" y1="65.6664" x2="572.31" y2="984.596" gradientUnits="userSpaceOnUse">
<stop stop-color="#31E085"/>
<stop offset="1" stop-color="#22E1ED"/>
</linearGradient>
<linearGradient id="paint84_linear_0_1601" x1="293.959" y1="66.4587" x2="556.916" y2="988.947" gradientUnits="userSpaceOnUse">
<stop stop-color="#31E085"/>
<stop offset="1" stop-color="#22E1ED"/>
</linearGradient>
<linearGradient id="paint85_linear_0_1601" x1="295.929" y1="67.3943" x2="541.462" y2="993.086" gradientUnits="userSpaceOnUse">
<stop stop-color="#31E085"/>
<stop offset="1" stop-color="#22E1ED"/>
</linearGradient>
<linearGradient id="paint86_linear_0_1601" x1="297.9" y1="68.4762" x2="525.953" y2="997.013" gradientUnits="userSpaceOnUse">
<stop stop-color="#31E085"/>
<stop offset="1" stop-color="#22E1ED"/>
</linearGradient>
<linearGradient id="paint87_linear_0_1601" x1="299.868" y1="69.705" x2="510.395" y2="1000.73" gradientUnits="userSpaceOnUse">
<stop stop-color="#31E085"/>
<stop offset="1" stop-color="#22E1ED"/>
</linearGradient>
<linearGradient id="paint88_linear_0_1601" x1="301.832" y1="71.0764" x2="494.795" y2="1004.22" gradientUnits="userSpaceOnUse">
<stop stop-color="#31E085"/>
<stop offset="1" stop-color="#22E1ED"/>
</linearGradient>
<linearGradient id="paint89_linear_0_1601" x1="303.789" y1="72.5927" x2="479.16" y2="1007.5" gradientUnits="userSpaceOnUse">
<stop stop-color="#31E085"/>
<stop offset="1" stop-color="#22E1ED"/>
</linearGradient>
<linearGradient id="paint90_linear_0_1601" x1="305.736" y1="74.2542" x2="463.497" y2="1010.55" gradientUnits="userSpaceOnUse">
<stop stop-color="#31E085"/>
<stop offset="1" stop-color="#22E1ED"/>
</linearGradient>
<linearGradient id="paint91_linear_0_1601" x1="307.672" y1="76.0564" x2="447.813" y2="1013.38" gradientUnits="userSpaceOnUse">
<stop stop-color="#31E085"/>
<stop offset="1" stop-color="#22E1ED"/>
</linearGradient>
<linearGradient id="paint92_linear_0_1601" x1="309.593" y1="78.0026" x2="432.115" y2="1015.99" gradientUnits="userSpaceOnUse">
<stop stop-color="#31E085"/>
<stop offset="1" stop-color="#22E1ED"/>
</linearGradient>
<linearGradient id="paint93_linear_0_1601" x1="311.498" y1="80.0913" x2="416.41" y2="1018.38" gradientUnits="userSpaceOnUse">
<stop stop-color="#31E085"/>
<stop offset="1" stop-color="#22E1ED"/>
</linearGradient>
<linearGradient id="paint94_linear_0_1601" x1="313.383" y1="82.3242" x2="400.706" y2="1020.54" gradientUnits="userSpaceOnUse">
<stop stop-color="#31E085"/>
<stop offset="1" stop-color="#22E1ED"/>
</linearGradient>
<linearGradient id="paint95_linear_0_1601" x1="315.248" y1="84.6935" x2="385.009" y2="1022.47" gradientUnits="userSpaceOnUse">
<stop stop-color="#31E085"/>
<stop offset="1" stop-color="#22E1ED"/>
</linearGradient>
<linearGradient id="paint96_linear_0_1601" x1="317.089" y1="87.2057" x2="369.328" y2="1024.18" gradientUnits="userSpaceOnUse">
<stop stop-color="#31E085"/>
<stop offset="1" stop-color="#22E1ED"/>
</linearGradient>
<linearGradient id="paint97_linear_0_1601" x1="318.904" y1="89.8541" x2="353.669" y2="1025.66" gradientUnits="userSpaceOnUse">
<stop stop-color="#31E085"/>
<stop offset="1" stop-color="#22E1ED"/>
</linearGradient>
<linearGradient id="paint98_linear_0_1601" x1="320.69" y1="92.6444" x2="338.039" y2="1026.92" gradientUnits="userSpaceOnUse">
<stop stop-color="#31E085"/>
<stop offset="1" stop-color="#22E1ED"/>
</linearGradient>
<linearGradient id="paint99_linear_0_1601" x1="322.447" y1="95.5714" x2="322.447" y2="1027.95" gradientUnits="userSpaceOnUse">
<stop stop-color="#31E085"/>
<stop offset="1" stop-color="#22E1ED"/>
</linearGradient>
<clipPath id="clip0_0_1601">
<rect width="1600" height="344" fill="white"/>
</clipPath>
</defs>
</svg>
