<svg width="92" height="34" viewBox="0 0 92 34" fill="none" xmlns="http://www.w3.org/2000/svg">
<path fill-rule="evenodd" clip-rule="evenodd" d="M90.2643 16.4501C90.6052 16.1215 90.8724 15.7243 91.0482 15.2847C91.2241 14.8451 91.3045 14.3732 91.2843 13.9001C91.289 13.4978 91.2119 13.0987 91.0576 12.7271C90.9053 12.3682 90.6947 12.037 90.4343 11.7468C90.1583 11.4426 89.8372 11.1827 89.4823 10.9761C89.1024 10.751 88.6997 10.5668 88.2809 10.4265C87.8152 10.2929 87.3721 10.0904 86.9663 9.8258C86.8611 9.75085 86.775 9.65214 86.7151 9.53769C86.6552 9.42325 86.6231 9.29629 86.6214 9.16711C86.6198 9.03794 86.6486 8.9102 86.7056 8.79425C86.7625 8.6783 86.846 8.57743 86.9493 8.4998C87.1703 8.31847 87.5216 8.2278 87.9976 8.2278C88.4216 8.22571 88.843 8.29466 89.2443 8.4318C89.5908 8.54534 89.9234 8.6974 90.2359 8.88513L90.4456 6.67513C90.1371 6.48272 89.8033 6.33398 89.4539 6.23313C88.9135 6.0847 88.3538 6.01785 87.7936 6.0348C87.2503 6.02752 86.7097 6.11378 86.1956 6.2898C85.7611 6.44231 85.3621 6.68135 85.0226 6.99247C84.7026 7.28541 84.4511 7.64527 84.2859 8.04647C84.1188 8.4546 84.0341 8.89177 84.0366 9.3328C84.0314 10.0659 84.291 10.7762 84.7676 11.3331C85.3512 11.9784 86.0995 12.4525 86.9323 12.7045C87.4182 12.8513 87.8773 13.0751 88.2923 13.3675C88.5246 13.5658 88.6606 13.8491 88.6549 14.1551C88.6601 14.3061 88.6269 14.456 88.5586 14.5908C88.4902 14.7255 88.3889 14.8408 88.2639 14.9258C87.9266 15.1352 87.5325 15.2342 87.1363 15.2091C85.8886 15.2025 84.683 14.7572 83.7306 13.9511L83.9686 16.4898C84.3979 16.8003 84.8797 17.0307 85.3909 17.1698C85.9973 17.3398 86.6149 17.4135 87.2439 17.4078C88.5813 17.4078 89.5843 17.0905 90.2699 16.4501H90.2643ZM52.4676 12.6535L56.6779 17.2718H58.0096V6.29547H55.3746V10.3755C55.3746 11.0781 55.3859 11.7525 55.4199 12.3985L55.3859 12.4211C54.8236 11.7056 54.2319 11.0137 53.6123 10.3471L49.9459 6.30113H47.8209V17.1471H50.4559V12.5571L50.4503 11.4578C50.4447 11.0646 50.4296 10.6716 50.405 10.2791L50.4446 10.2621C51.0964 11.0727 51.7691 11.8663 52.4619 12.6421L52.4676 12.6535ZM39.5023 17.1585V6.31247H45.8206V8.4658H42.1373V10.6248H45.1463V12.8178H42.1429V14.9938H46.3023V17.1585H39.5023ZM44.7326 27.4095L41.8483 24.2361C41.6011 23.969 41.3592 23.697 41.1229 23.4201L40.7603 22.9951L40.4316 22.6098L40.4146 22.6268L40.4316 23.4428V27.2791H39.4796V21.0968H40.1256L42.7719 24.0038C42.933 24.174 43.0879 24.3498 43.2366 24.5308L43.4066 24.7178L43.5766 24.9161C43.7431 25.1015 43.9056 25.2904 44.0639 25.4828L44.0809 25.4715C44.069 25.2261 44.0633 24.9805 44.0639 24.7348V21.0911H45.0159V27.4095H44.7326ZM46.2626 27.2735V21.0968H49.606V21.9015H47.2146V23.7658H49.2206V24.5705H47.2146V26.4688H49.9459V27.2735H46.2626ZM53.1193 27.2791V21.8958H55.1026V21.0968H50.1896V21.9015H52.1729V27.2848L53.1193 27.2791ZM59.6076 26.2308C59.4963 26.4564 59.3378 26.6554 59.1429 26.8145C58.9498 26.9689 58.7285 27.0844 58.4913 27.1545C58.2586 27.2289 58.0159 27.2671 57.7716 27.2678H55.7543V21.0911H57.4769C57.9038 21.0948 58.3178 21.2381 58.6556 21.4991C58.9225 21.7207 59.1069 22.0259 59.1789 22.3652C59.2508 22.7046 59.2062 23.0583 59.0523 23.3691C58.971 23.5599 58.8215 23.7134 58.6329 23.7998C58.9477 23.8999 59.2231 24.0961 59.4206 24.3608C59.6187 24.6262 59.7404 24.9408 59.7723 25.2705C59.8043 25.6001 59.751 25.9323 59.6076 26.2308ZM58.0039 22.0828C57.8113 21.9489 57.5812 21.8795 57.3466 21.8845H56.7063V23.5165H57.3466C57.5733 23.5165 57.8056 23.4541 58.0039 23.3238C58.1909 23.1991 58.2873 22.9951 58.2873 22.7118C58.2873 22.4171 58.1853 22.2075 58.0039 22.0828ZM58.7349 24.9161C58.6667 24.7833 58.5699 24.6672 58.4516 24.5761C58.3327 24.4848 58.1984 24.4157 58.0549 24.3721C57.902 24.3281 57.7438 24.3052 57.5846 24.3041H56.7006V26.4745H57.5846C57.7414 26.4767 57.8977 26.4576 58.0493 26.4178C58.279 26.3655 58.4835 26.2354 58.6281 26.0494C58.7727 25.8635 58.8485 25.6333 58.8426 25.3978C58.8488 25.23 58.8153 25.0636 58.7349 24.9161ZM60.8146 21.0968V27.2735H64.4923V26.4688H61.7609V24.5705H63.7669V23.7658H61.7609V21.8958H64.1579V21.0968H60.8146ZM69.4279 27.2735V24.5705H66.2603V27.2735H65.3196V21.0968H66.2659V23.7601H69.4336V21.0968H70.3799V27.2735H69.4279ZM71.6379 21.0968V27.2735H75.3156V26.4688H72.5843V24.5705H74.5903V23.7658H72.5843V21.8958H74.9756V21.0968H71.6323H71.6379ZM76.1316 27.2735V21.0968H79.4749V21.9015H77.0836V23.7658H79.084V24.5705H77.0836V26.4688H79.8093V27.2735H76.1316ZM82.4216 24.5591L84.3709 27.2735V27.2848H85.4646L83.3509 24.4288C83.6535 24.3061 83.9191 24.1069 84.1216 23.8508C84.3439 23.5608 84.4563 23.2014 84.4389 22.8365C84.4458 22.5863 84.3947 22.3379 84.2895 22.1108C84.1843 21.8837 84.0279 21.684 83.8326 21.5275C83.4757 21.2467 83.0344 21.0949 82.5803 21.0968H80.6253V27.2735H81.5489V24.5591H82.4216ZM83.1639 22.1225C83.2687 22.2051 83.3526 22.3113 83.4087 22.4324C83.4648 22.5535 83.4916 22.6861 83.4869 22.8195C83.4923 22.964 83.4631 23.1077 83.4019 23.2388C83.3447 23.3539 83.2635 23.4554 83.1639 23.5365C83.0642 23.6176 82.9483 23.6765 82.8239 23.7091C82.695 23.7464 82.5615 23.7655 82.4273 23.7658H81.5659V21.8731H82.4273C82.6919 21.8723 82.9499 21.9556 83.1639 22.1111V22.1225ZM60.1233 17.1585V6.31247H66.4359V8.4658H62.7526V10.6248H65.7616V12.8178H62.7583V14.9938H66.9176V17.1585H60.1176H60.1233ZM73.3039 14.8125L74.7489 17.1585H77.6389L74.1766 11.5825L77.4633 6.31247H74.7319L73.3719 8.50547C73.1436 8.85389 72.9391 9.21739 72.7599 9.59347H72.7259C72.565 9.21155 72.3657 8.84701 72.1309 8.50547L70.7709 6.31247H67.8866L71.1959 11.6505L67.7166 17.1585H70.4479L71.9269 14.8125L72.2896 14.2288C72.4086 14.0191 72.5163 13.8208 72.6126 13.6225H72.6466C72.8498 14.0277 73.0691 14.4247 73.3039 14.8125ZM79.2426 17.1585V6.31247H81.8719V17.1585H79.2426Z" fill="#635D63"/>
<path fill-rule="evenodd" clip-rule="evenodd" d="M17.6176 0L0.617554 17L17.6176 34L34.6176 17L17.6176 0Z" fill="#BDDB00"/>
<path fill-rule="evenodd" clip-rule="evenodd" d="M0.617554 17L17.6176 0L21.4029 3.78533L21.4199 9.078H13.7076V14.3197H21.4256L21.4426 19.5613H13.7189V24.7973H21.4652L21.4822 30.1353L17.6176 34L0.617554 17Z" fill="#DF0073"/>
</svg>
