<svg width="24" height="24" viewBox="0 0 24 24" fill="none" xmlns="http://www.w3.org/2000/svg">
<path d="M2 12H4H2ZM20 12H22H20ZM3 20.01L3.01 19.999L3 20.01ZM6 16.01L6.01 15.999L6 16.01ZM9 20.01L9.01 19.999L9 20.01ZM15 20.01L15.01 19.999L15 20.01ZM18 16.01L18.01 15.999L18 16.01ZM21 20.01L21.01 19.999L21 20.01ZM12.396 3.396L15.5 6.5C16.1923 7.19225 16.6638 8.07426 16.8549 9.03448C17.0459 9.9947 16.9479 10.99 16.5733 11.8945C16.1986 12.7991 15.5642 13.5722 14.7501 14.1161C13.9361 14.66 12.979 14.9504 12 14.9504C11.021 14.9504 10.0639 14.66 9.24988 14.1161C8.43584 13.5722 7.80139 12.7991 7.42675 11.8945C7.05211 10.99 6.95411 9.9947 7.14515 9.03448C7.33619 8.07426 7.80768 7.19225 8.5 6.5L11.604 3.396C11.656 3.344 11.7177 3.30274 11.7857 3.2746C11.8536 3.24645 11.9265 3.23196 12 3.23196C12.0735 3.23196 12.1464 3.24645 12.2143 3.2746C12.2823 3.30274 12.344 3.344 12.396 3.396Z" fill="#2FC177" fill-opacity="0.4"/>
<path d="M2 12H4M20 12H22M3 20.01L3.01 19.999M6 16.01L6.01 15.999M9 20.01L9.01 19.999M15 20.01L15.01 19.999M18 16.01L18.01 15.999M21 20.01L21.01 19.999M12.396 3.396L15.5 6.5C16.1923 7.19225 16.6638 8.07426 16.8549 9.03448C17.0459 9.9947 16.9479 10.99 16.5733 11.8945C16.1986 12.7991 15.5642 13.5722 14.7501 14.1161C13.9361 14.66 12.979 14.9504 12 14.9504C11.021 14.9504 10.0639 14.66 9.24988 14.1161C8.43584 13.5722 7.80139 12.7991 7.42675 11.8945C7.05211 10.99 6.95411 9.9947 7.14515 9.03448C7.33619 8.07426 7.80768 7.19225 8.5 6.5L11.604 3.396C11.656 3.344 11.7177 3.30274 11.7857 3.2746C11.8536 3.24645 11.9265 3.23196 12 3.23196C12.0735 3.23196 12.1464 3.24645 12.2143 3.2746C12.2823 3.30274 12.344 3.344 12.396 3.396Z" stroke="#218753" stroke-width="1.5" stroke-linecap="round" stroke-linejoin="round"/>
</svg>
