<svg width="24" height="24" viewBox="0 0 24 24" fill="none" xmlns="http://www.w3.org/2000/svg">
<path d="M10.05 10.607L2.98001 17.677C2.79405 17.8628 2.64654 18.0833 2.54589 18.3261C2.44524 18.5689 2.39343 18.8292 2.39343 19.092C2.39343 19.3548 2.44524 19.6151 2.54589 19.8579C2.64654 20.1007 2.79405 20.3213 2.98001 20.507C3.35506 20.882 3.86368 21.0926 4.39401 21.0926C4.92433 21.0926 5.43295 20.882 5.80801 20.507L12.878 13.435M17.193 13.8L21.071 17.678C21.4459 18.0531 21.6566 18.5617 21.6566 19.092C21.6566 19.6223 21.4459 20.131 21.071 20.506C20.6959 20.881 20.1873 21.0916 19.657 21.0916C19.1267 21.0916 18.6181 20.881 18.243 20.506L12.034 14.298M6.73301 5.90401L4.61001 6.61001L2.49001 3.07501L3.90401 1.66101L7.44001 3.78201L6.73301 5.90401ZM6.73301 5.90401L9.56301 8.73401L6.73301 5.90401Z" fill="#2FC177" fill-opacity="0.4"/>
<path d="M10.05 10.607L2.98001 17.677C2.79405 17.8628 2.64654 18.0833 2.54589 18.3261C2.44524 18.5689 2.39343 18.8292 2.39343 19.092C2.39343 19.3548 2.44524 19.6151 2.54589 19.8579C2.64654 20.1007 2.79405 20.3213 2.98001 20.507C3.35506 20.882 3.86368 21.0926 4.39401 21.0926C4.92433 21.0926 5.43295 20.882 5.80801 20.507L12.878 13.435M17.193 13.8L21.071 17.678C21.4459 18.0531 21.6566 18.5617 21.6566 19.092C21.6566 19.6223 21.4459 20.131 21.071 20.506C20.6959 20.881 20.1873 21.0916 19.657 21.0916C19.1267 21.0916 18.6181 20.881 18.243 20.506L12.034 14.298M6.73301 5.90401L4.61001 6.61001L2.49001 3.07501L3.90401 1.66101L7.44001 3.78201L6.73301 5.90401ZM6.73301 5.90401L9.56301 8.73401" stroke="#218753" stroke-width="1.5" stroke-linecap="round" stroke-linejoin="round"/>
<path d="M10.05 10.607C9.20599 8.45399 9.37099 5.62899 11.111 3.88899C12.851 2.14899 16.061 1.76799 17.828 2.82899L14.788 5.86899L14.505 8.97999L17.616 8.69799L20.656 5.65699C21.718 7.42499 21.336 10.635 19.596 12.374C17.856 14.114 15.032 14.279 12.879 13.435" fill="#2FC177" fill-opacity="0.4"/>
<path d="M10.05 10.607C9.20599 8.45399 9.37099 5.62899 11.111 3.88899C12.851 2.14899 16.061 1.76799 17.828 2.82899L14.788 5.86899L14.505 8.97999L17.616 8.69799L20.656 5.65699C21.718 7.42499 21.336 10.635 19.596 12.374C17.856 14.114 15.032 14.279 12.879 13.435" stroke="#218753" stroke-width="1.5" stroke-linecap="round" stroke-linejoin="round"/>
</svg>
