<svg width="24" height="24" viewBox="0 0 24 24" fill="none" xmlns="http://www.w3.org/2000/svg">
<path d="M6 9H18H6ZM8 13H16H8ZM10 17H14H10ZM12 22C6.477 22 2 17.523 2 12C2 6.477 6.477 2 12 2C17.523 2 22 6.477 22 12C22 17.523 17.523 22 12 22Z" fill="#2FC177" fill-opacity="0.4"/>
<path d="M6 9H18M8 13H16M10 17H14M12 22C6.477 22 2 17.523 2 12C2 6.477 6.477 2 12 2C17.523 2 22 6.477 22 12C22 17.523 17.523 22 12 22Z" stroke="#218753" stroke-width="1.5" stroke-linecap="round" stroke-linejoin="round"/>
</svg>
