<svg width="24" height="24" viewBox="0 0 24 24" fill="none" xmlns="http://www.w3.org/2000/svg">
<path d="M2 15V9C2 7.4087 2.63214 5.88258 3.75736 4.75736C4.88258 3.63214 6.4087 3 8 3H16C17.5913 3 19.1174 3.63214 20.2426 4.75736C21.3679 5.88258 22 7.4087 22 9V15C22 16.5913 21.3679 18.1174 20.2426 19.2426C19.1174 20.3679 17.5913 21 16 21H8C6.4087 21 4.88258 20.3679 3.75736 19.2426C2.63214 18.1174 2 16.5913 2 15Z" fill="#2FC177" fill-opacity="0.4" stroke="#218753" stroke-width="1.5"/>
<path d="M15 9C15 9 16 10.125 16 12C16 13.875 15 15 15 15M12 12.01L12.01 11.999M17 7C17 7 19 8.786 19 12C19 15.214 17 17 17 17M9 9C9 9 8 10.125 8 12C8 13.875 9 15 9 15M7 7C7 7 5 8.786 5 12C5 15.214 7 17 7 17" stroke="#218753" stroke-width="1.5" stroke-linecap="round" stroke-linejoin="round"/>
</svg>
