<svg width="24" height="24" viewBox="0 0 24 24" fill="none" xmlns="http://www.w3.org/2000/svg">
<path d="M3.2 14.222V4C3.2 3.46957 3.41071 2.96086 3.78578 2.58579C4.16086 2.21071 4.66956 2 5.2 2H18.8C19.3304 2 19.8391 2.21071 20.2142 2.58579C20.5893 2.96086 20.8 3.46957 20.8 4V14.222M3.2 14.222H20.8H3.2ZM3.2 14.222L1.72 19.456C1.63594 19.7534 1.62194 20.0662 1.6791 20.3699C1.73625 20.6736 1.86301 20.9599 2.04942 21.2064C2.23583 21.4529 2.47683 21.6528 2.75349 21.7905C3.03015 21.9282 3.33496 21.9999 3.644 22H20.356C20.665 21.9999 20.9698 21.9282 21.2465 21.7905C21.5232 21.6528 21.7642 21.4529 21.9506 21.2064C22.137 20.9599 22.2637 20.6736 22.3209 20.3699C22.3781 20.0662 22.3641 19.7534 22.28 19.456L20.8 14.222" fill="#2FC177" fill-opacity="0.4"/>
<path d="M3.2 14.222V4C3.2 3.46957 3.41071 2.96086 3.78578 2.58579C4.16086 2.21071 4.66956 2 5.2 2H18.8C19.3304 2 19.8391 2.21071 20.2142 2.58579C20.5893 2.96086 20.8 3.46957 20.8 4V14.222M3.2 14.222H20.8M3.2 14.222L1.72 19.456C1.63594 19.7534 1.62194 20.0662 1.6791 20.3699C1.73625 20.6736 1.86301 20.9599 2.04942 21.2064C2.23583 21.4529 2.47683 21.6528 2.75349 21.7905C3.03015 21.9282 3.33496 21.9999 3.644 22H20.356C20.665 21.9999 20.9698 21.9282 21.2465 21.7905C21.5232 21.6528 21.7642 21.4529 21.9506 21.2064C22.137 20.9599 22.2637 20.6736 22.3209 20.3699C22.3781 20.0662 22.3641 19.7534 22.28 19.456L20.8 14.222" stroke="#218753" stroke-width="1.5"/>
<path d="M11 19H13H11Z" fill="#2FC177" fill-opacity="0.6"/>
<path d="M11 19H13" stroke="#218753" stroke-width="1.5" stroke-linecap="round" stroke-linejoin="round"/>
</svg>
