<svg width="24" height="24" viewBox="0 0 24 24" fill="none" xmlns="http://www.w3.org/2000/svg">
<path d="M7 19C7.53043 19 8.03914 18.7893 8.41421 18.4142C8.78929 18.0391 9 17.5304 9 17C9 16.4696 8.78929 15.9609 8.41421 15.5858C8.03914 15.2107 7.53043 15 7 15C6.46957 15 5.96086 15.2107 5.58579 15.5858C5.21071 15.9609 5 16.4696 5 17C5 17.5304 5.21071 18.0391 5.58579 18.4142C5.96086 18.7893 6.46957 19 7 19ZM17 19C17.5304 19 18.0391 18.7893 18.4142 18.4142C18.7893 18.0391 19 17.5304 19 17C19 16.4696 18.7893 15.9609 18.4142 15.5858C18.0391 15.2107 17.5304 15 17 15C16.4696 15 15.9609 15.2107 15.5858 15.5858C15.2107 15.9609 15 16.4696 15 17C15 17.5304 15.2107 18.0391 15.5858 18.4142C15.9609 18.7893 16.4696 19 17 19Z" stroke="#218753" stroke-width="1.5" stroke-miterlimit="1.5" stroke-linecap="round" stroke-linejoin="round"/>
<path d="M14 17V6.6C14 6.44087 13.9368 6.28826 13.8243 6.17574C13.7117 6.06321 13.5591 6 13.4 6H2.6C2.44087 6 2.28826 6.06321 2.17574 6.17574C2.06321 6.28826 2 6.44087 2 6.6V16.4C2 16.4788 2.01552 16.5568 2.04567 16.6296C2.07582 16.7024 2.12002 16.7685 2.17574 16.8243C2.23145 16.88 2.29759 16.9242 2.37039 16.9543C2.44319 16.9845 2.52121 17 2.6 17H4.65M14 17H9.05H14ZM14 9H19.61C19.726 9.00003 19.8395 9.03367 19.9367 9.09685C20.034 9.16003 20.1108 9.25005 20.158 9.356L21.948 13.384C21.9821 13.4605 21.9998 13.5433 22 13.627V16.4C22 16.4788 21.9845 16.5568 21.9543 16.6296C21.9242 16.7024 21.88 16.7685 21.8243 16.8243C21.7685 16.88 21.7024 16.9242 21.6296 16.9543C21.5568 16.9845 21.4788 17 21.4 17H19.5M14 17H15H14Z" fill="#2FC177" fill-opacity="0.4"/>
<path d="M14 17V6.6C14 6.44087 13.9368 6.28826 13.8243 6.17574C13.7117 6.06321 13.5591 6 13.4 6H2.6C2.44087 6 2.28826 6.06321 2.17574 6.17574C2.06321 6.28826 2 6.44087 2 6.6V16.4C2 16.4788 2.01552 16.5568 2.04567 16.6296C2.07583 16.7024 2.12002 16.7685 2.17574 16.8243C2.23145 16.88 2.29759 16.9242 2.37039 16.9543C2.44319 16.9845 2.52121 17 2.6 17H4.65M14 17H9.05M14 17H15M14 9H19.61C19.726 9.00003 19.8395 9.03367 19.9367 9.09685C20.034 9.16003 20.1108 9.25005 20.158 9.356L21.948 13.384C21.9821 13.4605 21.9998 13.5433 22 13.627V16.4C22 16.4788 21.9845 16.5568 21.9543 16.6296C21.9242 16.7024 21.88 16.7685 21.8243 16.8243C21.7685 16.88 21.7024 16.9242 21.6296 16.9543C21.5568 16.9845 21.4788 17 21.4 17H19.5" stroke="#218753" stroke-width="1.5" stroke-linecap="round"/>
</svg>
