<svg width="24" height="24" viewBox="0 0 24 24" fill="none" xmlns="http://www.w3.org/2000/svg">
<path d="M11.732 21.866L6.212 19.106C5.54737 18.7739 4.98838 18.2632 4.59768 17.6313C4.20699 16.9993 4.00003 16.271 4 15.528V2.6C4 2.44087 4.06321 2.28826 4.17574 2.17574C4.28826 2.06321 4.44087 2 4.6 2H19.4C19.5591 2 19.7117 2.06321 19.8243 2.17574C19.9368 2.28826 20 2.44087 20 2.6V15.528C20.0001 16.2709 19.7933 16.9991 19.4027 17.6311C19.0122 18.263 18.4534 18.7737 17.789 19.106L12.269 21.866C12.1856 21.9077 12.0937 21.9294 12.0005 21.9294C11.9073 21.9294 11.8154 21.9077 11.732 21.866ZM12 10V2V10ZM4 10H20H4Z" fill="#2FC177" fill-opacity="0.4"/>
<path d="M12 10V2M4 10H20M11.732 21.866L6.212 19.106C5.54737 18.7739 4.98838 18.2632 4.59768 17.6313C4.20699 16.9993 4.00003 16.271 4 15.528V2.6C4 2.44087 4.06321 2.28826 4.17574 2.17574C4.28826 2.06321 4.44087 2 4.6 2H19.4C19.5591 2 19.7117 2.06321 19.8243 2.17574C19.9368 2.28826 20 2.44087 20 2.6V15.528C20.0001 16.2709 19.7933 16.9991 19.4027 17.6311C19.0122 18.263 18.4534 18.7737 17.789 19.106L12.269 21.866C12.1856 21.9077 12.0937 21.9294 12.0005 21.9294C11.9073 21.9294 11.8154 21.9077 11.732 21.866Z" stroke="#218753" stroke-width="1.5" stroke-linecap="round" stroke-linejoin="round"/>
</svg>
