<svg width="24" height="24" viewBox="0 0 24 24" fill="none" xmlns="http://www.w3.org/2000/svg">
<path d="M4 12C3.16047 12.6296 2.54033 13.5075 2.22743 14.5092C1.91453 15.5108 1.92473 16.5856 2.25658 17.5811C2.58844 18.5767 3.22512 19.4426 4.07645 20.0562C4.92778 20.6698 5.95059 21 7 21C8.04941 21 9.07222 20.6698 9.92355 20.0562C10.7749 19.4426 11.4116 18.5767 11.7434 17.5811C12.0753 16.5856 12.0855 15.5108 11.7726 14.5092C11.4597 13.5075 10.8395 12.6296 10 12M4 12V3H10V12M10 3H12H10ZM10 6H12H10ZM10 9H12H10Z" fill="#2FC177" fill-opacity="0.4"/>
<path d="M10 3H4V12C3.16047 12.6296 2.54033 13.5075 2.22743 14.5092C1.91453 15.5108 1.92473 16.5856 2.25658 17.5811C2.58844 18.5767 3.22512 19.4426 4.07645 20.0562C4.92778 20.6698 5.95059 21 7 21C8.04941 21 9.07222 20.6698 9.92355 20.0562C10.7749 19.4426 11.4116 18.5767 11.7434 17.5811C12.0753 16.5856 12.0855 15.5108 11.7726 14.5092C11.4597 13.5075 10.8395 12.6296 10 12V3ZM10 3H12M10 6H12M10 9H12" stroke="#218753" stroke-width="1.5" stroke-linecap="round" stroke-linejoin="round"/>
<path d="M7 14C6.46957 14 5.96086 14.2107 5.58579 14.5858C5.21071 14.9609 5 15.4696 5 16C5 16.5304 5.21071 17.0391 5.58579 17.4142C5.96086 17.7893 6.46957 18 7 18C7.53043 18 8.03914 17.7893 8.41421 17.4142C8.78929 17.0391 9 16.5304 9 16C9 15.4696 8.78929 14.9609 8.41421 14.5858C8.03914 14.2107 7.53043 14 7 14ZM7 14V6M19 18V6M19 6L21.5 8.5M19 6L16.5 8.5" stroke="#218753" stroke-width="1.5" stroke-linecap="round" stroke-linejoin="round"/>
</svg>
