<svg width="28" height="28" viewBox="0 0 28 28" fill="none" xmlns="http://www.w3.org/2000/svg">
<rect x="0.5" y="0.5" width="27" height="27" rx="5.5" stroke="white" stroke-opacity="0.1"/>
<path d="M14.0001 22.3333C18.6024 22.3333 22.3334 18.6023 22.3334 14C22.3334 9.39763 18.6024 5.66667 14.0001 5.66667C9.39771 5.66667 5.66675 9.39763 5.66675 14C5.66675 18.6023 9.39771 22.3333 14.0001 22.3333Z" stroke="#97A4B5" stroke-width="1.25" stroke-linecap="round" stroke-linejoin="round"/>
<path d="M6.08325 14.4167L10.6666 16.0833L9.83325 19L10.6666 21.5" stroke="#97A4B5" stroke-width="1.25" stroke-linecap="round" stroke-linejoin="round"/>
<path d="M18.1667 21.0833L17.7501 19L15.6667 18.1667V15.25L18.1667 14.4167L21.9167 14.8333" stroke="#97A4B5" stroke-width="1.25" stroke-linecap="round" stroke-linejoin="round"/>
<path d="M19.8333 8.58333L19.4167 9.83333L16.5 10.25V12.75L18.5833 11.9167H20.25L21.9167 12.75" stroke="#97A4B5" stroke-width="1.25" stroke-linecap="round" stroke-linejoin="round"/>
<path d="M6.08325 12.75L8.16659 11.0833L10.2499 10.6667L11.9166 8.16667L11.0833 6.5" stroke="#97A4B5" stroke-width="1.25" stroke-linecap="round" stroke-linejoin="round"/>
</svg>
