<svg width="28" height="28" viewBox="0 0 28 28" fill="none" xmlns="http://www.w3.org/2000/svg">
<rect x="0.5" y="0.5" width="27" height="27" rx="5.5" stroke="white" stroke-opacity="0.1"/>
<path d="M8.34314 16.5928L6.10397 14.3536C5.9087 14.1583 5.9087 13.8418 6.10397 13.6464L8.34314 11.4073C8.5384 11.212 8.85499 11.212 9.05024 11.4073L11.2894 13.6464C11.4847 13.8418 11.4847 14.1583 11.2894 14.3536L9.05024 16.5928C8.85499 16.788 8.5384 16.788 8.34314 16.5928Z" stroke="white" stroke-width="1.25"/>
<path d="M13.6463 21.8958L11.4072 19.6567C11.2119 19.4614 11.2119 19.1448 11.4072 18.9496L13.6463 16.7104C13.8417 16.5152 14.1582 16.5152 14.3535 16.7104L16.5927 18.9496C16.7879 19.1448 16.7879 19.4614 16.5927 19.6567L14.3535 21.8958C14.1582 22.0912 13.8417 22.0912 13.6463 21.8958Z" stroke="white" stroke-width="1.25"/>
<path d="M13.6463 11.2896L11.4072 9.05041C11.2119 8.85515 11.2119 8.53856 11.4072 8.34331L13.6463 6.10413C13.8417 5.90887 14.1582 5.90887 14.3535 6.10413L16.5927 8.34331C16.7879 8.53856 16.7879 8.85515 16.5927 9.05041L14.3535 11.2896C14.1582 11.4848 13.8417 11.4848 13.6463 11.2896Z" stroke="white" stroke-width="1.25"/>
<path d="M18.9496 16.5928L16.7104 14.3536C16.5152 14.1583 16.5152 13.8418 16.7104 13.6464L18.9496 11.4073C19.1449 11.212 19.4615 11.212 19.6567 11.4073L21.8959 13.6464C22.0912 13.8418 22.0912 14.1583 21.8959 14.3536L19.6567 16.5928C19.4615 16.788 19.1449 16.788 18.9496 16.5928Z" stroke="white" stroke-width="1.25"/>
</svg>
