<svg width="25" height="24" viewBox="0 0 25 24" fill="none" xmlns="http://www.w3.org/2000/svg">
<g clip-path="url(#clip0_2005_38)">
<path d="M11 13.6V21H3.6C3.26863 21 3 20.7314 3 20.4V13H10.4C10.7314 13 11 13.2686 11 13.6Z" fill="#218753" fill-opacity="0.12" stroke="#218753" stroke-width="1.5" stroke-linecap="round" stroke-linejoin="round"/>
<path d="M11 21H14" stroke="#218753" stroke-width="1.5" stroke-linecap="round" stroke-linejoin="round"/>
<path d="M3 13V10" stroke="#218753" stroke-width="1.5" stroke-linecap="round" stroke-linejoin="round"/>
<path d="M6 3H3.6C3.26863 3 3 3.26863 3 3.6V6" stroke="#218753" stroke-width="1.5" stroke-linecap="round" stroke-linejoin="round"/>
<path d="M14 3H10" stroke="#218753" stroke-width="1.5" stroke-linecap="round" stroke-linejoin="round"/>
<path d="M21 10V14" stroke="#218753" stroke-width="1.5" stroke-linecap="round" stroke-linejoin="round"/>
<path d="M18 3H20.4C20.7314 3 21 3.26863 21 3.6V6" stroke="#218753" stroke-width="1.5" stroke-linecap="round" stroke-linejoin="round"/>
<path d="M18 21H20.4C20.7314 21 21 20.7314 21 20.4V18" stroke="#218753" stroke-width="1.5" stroke-linecap="round" stroke-linejoin="round"/>
<path d="M11 10H14V13" stroke="#218753" stroke-width="1.5" stroke-linecap="round" stroke-linejoin="round"/>
</g>
<defs>
<clipPath id="clip0_2005_38">
<rect width="24" height="24" fill="white" transform="translate(0.5)"/>
</clipPath>
</defs>
</svg>
