<svg width="25" height="24" viewBox="0 0 25 24" fill="none" xmlns="http://www.w3.org/2000/svg">
<g clip-path="url(#clip0_2005_305)">
<g clip-path="url(#clip1_2005_305)">
<mask id="mask0_2005_305" style="mask-type:luminance" maskUnits="userSpaceOnUse" x="0" y="0" width="24" height="24">
<path d="M24 0H0V24H24V0Z" fill="white"/>
</mask>
<g mask="url(#mask0_2005_305)">
<path d="M9.95242 9.62272L11.5109 6.31816C11.711 5.89395 12.289 5.89395 12.4891 6.31816L14.0476 9.62272L17.5329 10.1559C17.9801 10.2243 18.1583 10.7996 17.8346 11.1296L15.313 13.7001L15.9081 17.3314C15.9845 17.7978 15.5168 18.1534 15.1167 17.9331L12 16.2177L8.88328 17.9331C8.48316 18.1534 8.01545 17.7978 8.09187 17.3314L8.68695 13.7001L6.16545 11.1296C5.8417 10.7996 6.01993 10.2243 6.46711 10.1559L9.95242 9.62272Z" fill="#218753" fill-opacity="0.12" stroke="#218753" stroke-width="1.5" stroke-linecap="round" stroke-linejoin="round"/>
<path d="M22 12H23" stroke="#218753" stroke-width="1.5" stroke-linecap="round" stroke-linejoin="round"/>
<path d="M12 2V1" stroke="#218753" stroke-width="1.5" stroke-linecap="round" stroke-linejoin="round"/>
<path d="M12 23V22" stroke="#218753" stroke-width="1.5" stroke-linecap="round" stroke-linejoin="round"/>
<path d="M20 20L19 19" stroke="#218753" stroke-width="1.5" stroke-linecap="round" stroke-linejoin="round"/>
<path d="M20 4L19 5" stroke="#218753" stroke-width="1.5" stroke-linecap="round" stroke-linejoin="round"/>
<path d="M4 20L5 19" stroke="#218753" stroke-width="1.5" stroke-linecap="round" stroke-linejoin="round"/>
<path d="M4 4L5 5" stroke="#218753" stroke-width="1.5" stroke-linecap="round" stroke-linejoin="round"/>
<path d="M1 12H2" stroke="#218753" stroke-width="1.5" stroke-linecap="round" stroke-linejoin="round"/>
</g>
</g>
</g>
<defs>
<clipPath id="clip0_2005_305">
<rect width="24" height="24" fill="white" transform="translate(0.5)"/>
</clipPath>
<clipPath id="clip1_2005_305">
<rect width="24" height="24" fill="white"/>
</clipPath>
</defs>
</svg>
