<svg width="25" height="24" viewBox="0 0 25 24" fill="none" xmlns="http://www.w3.org/2000/svg">
<g clip-path="url(#clip0_2005_397)">
<path d="M21.5 9.6V20.4C21.5 20.7314 21.2314 21 20.9 21H10.1C9.76863 21 9.5 20.7314 9.5 20.4V9.6C9.5 9.26863 9.76863 9 10.1 9H20.9C21.2314 9 21.5 9.26863 21.5 9.6Z" fill="#218753" fill-opacity="0.12" stroke="#218753" stroke-width="1.5" stroke-linecap="round" stroke-linejoin="round"/>
<path d="M15.5 3.6V14.4C15.5 14.7314 15.2314 15 14.9 15H4.1C3.76863 15 3.5 14.7314 3.5 14.4V3.6C3.5 3.26863 3.76863 3 4.1 3H14.9C15.2314 3 15.5 3.26863 15.5 3.6Z" fill="#218753" fill-opacity="0.12" stroke="#218753" stroke-width="1.5" stroke-linecap="round" stroke-linejoin="round"/>
</g>
<defs>
<clipPath id="clip0_2005_397">
<rect width="24" height="24" fill="white" transform="translate(0.5)"/>
</clipPath>
</defs>
</svg>
