<svg width="23" height="15" viewBox="0 0 23 15" fill="none" xmlns="http://www.w3.org/2000/svg">
<path d="M5.01188 14.27C4.08788 14.27 3.27788 14.108 2.58188 13.784C1.88588 13.46 1.33988 13.004 0.943881 12.416C0.559881 11.816 0.361881 11.12 0.349881 10.328L2.56388 10.094C2.58788 10.85 2.82188 11.444 3.26588 11.876C3.70988 12.296 4.30388 12.506 5.04788 12.506C5.77988 12.506 6.33188 12.326 6.70388 11.966C7.07588 11.606 7.26188 11.084 7.26188 10.4C7.26188 9.056 6.42788 8.384 4.75988 8.384H4.07588V6.764H4.70588C5.43788 6.764 5.98388 6.596 6.34388 6.26C6.71588 5.912 6.90188 5.432 6.90188 4.82C6.90188 4.232 6.72188 3.776 6.36188 3.452C6.01388 3.128 5.52188 2.966 4.88588 2.966C4.17788 2.966 3.63188 3.188 3.24788 3.632C2.86388 4.076 2.67188 4.706 2.67188 5.522L0.529881 5.162C0.529881 3.95 0.931881 2.99 1.73588 2.282C2.53988 1.574 3.62588 1.22 4.99388 1.22C6.31388 1.22 7.33988 1.52 8.07188 2.12C8.80388 2.708 9.16988 3.524 9.16988 4.568C9.16988 5.276 8.95388 5.894 8.52188 6.422C8.10188 6.938 7.52588 7.28 6.79388 7.448C7.69388 7.592 8.37788 7.922 8.84588 8.438C9.31388 8.942 9.54788 9.62 9.54788 10.472C9.54788 11.648 9.13988 12.578 8.32388 13.262C7.50788 13.934 6.40388 14.27 5.01188 14.27ZM16.64 14.306C15.488 14.306 14.486 14.03 13.634 13.478C12.782 12.914 12.128 12.128 11.672 11.12C11.228 10.112 11.006 8.948 11.006 7.628C11.006 6.308 11.246 5.144 11.726 4.136C12.218 3.116 12.92 2.324 13.832 1.76C14.744 1.196 15.83 0.913999 17.09 0.913999C18.17 0.913999 19.082 1.106 19.826 1.49C20.57 1.874 21.14 2.36 21.536 2.948C21.932 3.536 22.184 4.154 22.292 4.802L19.988 5.198C19.868 4.526 19.574 3.95 19.106 3.47C18.638 2.99 17.954 2.75 17.054 2.75C15.902 2.75 15.002 3.194 14.354 4.082C13.706 4.958 13.382 6.134 13.382 7.61C13.382 9.062 13.694 10.232 14.318 11.12C14.954 11.996 15.872 12.434 17.072 12.434C17.864 12.434 18.506 12.254 18.998 11.894C19.49 11.534 19.832 11.102 20.024 10.598C20.228 10.094 20.33 9.608 20.33 9.14V8.906H16.874V7.124H22.436V14H20.78L20.582 12.038C20.282 12.734 19.784 13.286 19.088 13.694C18.392 14.102 17.576 14.306 16.64 14.306Z" fill="white"/>
</svg>
