<svg width="23" height="15" viewBox="0 0 23 15" fill="none" xmlns="http://www.w3.org/2000/svg">
<path d="M9.94388 11.012H7.98188V14H5.82188V11.012H0.00788087V9.518L5.53388 1.49H7.98188V9.356H9.94388V11.012ZM5.87588 5.234C5.87588 4.49 5.88788 3.938 5.91188 3.578H5.87588C5.73188 3.95 5.46188 4.436 5.06588 5.036L3.08588 7.988C2.89388 8.276 2.71388 8.54 2.54588 8.78C2.37788 9.008 2.21588 9.2 2.05988 9.356H5.87588V5.234ZM16.64 14.306C15.488 14.306 14.486 14.03 13.634 13.478C12.782 12.914 12.128 12.128 11.672 11.12C11.228 10.112 11.006 8.948 11.006 7.628C11.006 6.308 11.246 5.144 11.726 4.136C12.218 3.116 12.92 2.324 13.832 1.76C14.744 1.196 15.83 0.913999 17.09 0.913999C18.17 0.913999 19.082 1.106 19.826 1.49C20.57 1.874 21.14 2.36 21.536 2.948C21.932 3.536 22.184 4.154 22.292 4.802L19.988 5.198C19.868 4.526 19.574 3.95 19.106 3.47C18.638 2.99 17.954 2.75 17.054 2.75C15.902 2.75 15.002 3.194 14.354 4.082C13.706 4.958 13.382 6.134 13.382 7.61C13.382 9.062 13.694 10.232 14.318 11.12C14.954 11.996 15.872 12.434 17.072 12.434C17.864 12.434 18.506 12.254 18.998 11.894C19.49 11.534 19.832 11.102 20.024 10.598C20.228 10.094 20.33 9.608 20.33 9.14V8.906H16.874V7.124H22.436V14H20.78L20.582 12.038C20.282 12.734 19.784 13.286 19.088 13.694C18.392 14.102 17.576 14.306 16.64 14.306Z" fill="white"/>
</svg>
