<svg width="23" height="14" viewBox="0 0 23 14" fill="none" xmlns="http://www.w3.org/2000/svg">
<path d="M4.98467 13.77C3.79667 13.77 2.80667 13.464 2.01467 12.852C1.22267 12.24 0.74267 11.412 0.57467 10.368L2.78867 10.062C2.90867 10.65 3.15467 11.118 3.52667 11.466C3.91067 11.802 4.40867 11.97 5.02067 11.97C5.75267 11.97 6.32267 11.742 6.73067 11.286C7.13867 10.83 7.34267 10.194 7.34267 9.378C7.34267 8.538 7.14467 7.872 6.74867 7.38C6.35267 6.888 5.79467 6.642 5.07467 6.642C4.49867 6.642 4.01867 6.798 3.63467 7.11C3.26267 7.422 2.99867 7.872 2.84267 8.46L0.80867 8.262L1.56467 0.989999H8.92667V2.808H3.20267L2.78867 6.408C3.38867 5.436 4.34867 4.95 5.66867 4.95C6.86867 4.95 7.81667 5.34 8.51267 6.12C9.20867 6.888 9.55667 7.944 9.55667 9.288C9.55667 10.188 9.37067 10.974 8.99867 11.646C8.62667 12.318 8.09267 12.84 7.39667 13.212C6.71267 13.584 5.90867 13.77 4.98467 13.77ZM16.6312 13.806C15.4792 13.806 14.4772 13.53 13.6252 12.978C12.7732 12.414 12.1192 11.628 11.6632 10.62C11.2192 9.612 10.9972 8.448 10.9972 7.128C10.9972 5.808 11.2372 4.644 11.7172 3.636C12.2092 2.616 12.9112 1.824 13.8232 1.26C14.7352 0.695999 15.8212 0.413999 17.0812 0.413999C18.1612 0.413999 19.0732 0.605999 19.8172 0.989999C20.5612 1.374 21.1312 1.86 21.5272 2.448C21.9232 3.036 22.1752 3.654 22.2832 4.302L19.9792 4.698C19.8592 4.026 19.5652 3.45 19.0972 2.97C18.6292 2.49 17.9452 2.25 17.0452 2.25C15.8932 2.25 14.9932 2.694 14.3452 3.582C13.6972 4.458 13.3732 5.634 13.3732 7.11C13.3732 8.562 13.6852 9.732 14.3092 10.62C14.9452 11.496 15.8632 11.934 17.0632 11.934C17.8552 11.934 18.4972 11.754 18.9892 11.394C19.4812 11.034 19.8232 10.602 20.0152 10.098C20.2192 9.594 20.3212 9.108 20.3212 8.64V8.406H16.8652V6.624H22.4272V13.5H20.7712L20.5732 11.538C20.2732 12.234 19.7752 12.786 19.0792 13.194C18.3832 13.602 17.5672 13.806 16.6312 13.806Z" fill="white"/>
</svg>
